<svg xmlns="http://www.w3.org/2000/svg" viewBox="0 0 21.01 39.3"><title>fb</title><g id="Layer_2" data-name="Layer 2"><g id="Layer_1-2" data-name="Layer 1"><path d="M13.72,9.64c0,1.55-.06,5.15-.06,5.15h7.16l-.95,7.27H13.71V38.59a24.28,24.28,0,0,1-5.87.71c-.56,0-1.12,0-1.67-.06V22H0V14.79H6.21v-.54c0-1.46,0-2.91,0-4.37a20.75,20.75,0,0,1,.23-2.79A8.13,8.13,0,0,1,9.69,1.68,9.41,9.41,0,0,1,15.12,0C16.4,0,17.67,0,19,.09c.7,0,1.4.14,2.06.2V6.78H20.5c-1.25,0-2.49,0-3.75,0C15,6.85,13.78,7.5,13.72,9.64Z" style="fill:#1e4fad;fill-rule:evenodd"/></g></g></svg>