<svg xmlns="http://www.w3.org/2000/svg" viewBox="0 0 1100 1000"><defs><style>.\30 dd62325-eac2-4fb6-b83f-d77a5fb54aa7,.\31 f3eebc2-27e3-4316-b624-9d7d2493d874,.\32 00e9848-7f3a-49f2-8ebd-14cc57b5591e,.\32 c1d5db8-9037-47bd-9ada-cba40b43a7ab,.\34 201c03c-8597-4056-bbab-b901e393fb30,.\34 557d952-80b9-4ad8-874d-45af7555f678,.\36 07c7a0c-a480-404c-bd74-9d7113626a59,.\36 b8657dd-9ffe-4036-86e4-f09226675e4f,.a4f39f56-6ca3-404f-8334-5e619f8191a7,.a66308c5-64b5-4413-b6db-9a9bc6506572,.a7213844-007a-43c8-8572-20d8cfd825cc,.bd3e4a3b-9463-4502-bb6a-2d998fe5d993,.cba40eb2-cc65-412b-b48f-0dd80868e3b9,.ee78a6a2-adb5-427e-a9e4-8ab9fb12a266{fill:none;}.\30 dd62325-eac2-4fb6-b83f-d77a5fb54aa7,.\33 002d68d-39cf-4dbd-a217-90e48995cd8f,.\34 201c03c-8597-4056-bbab-b901e393fb30,.\34 557d952-80b9-4ad8-874d-45af7555f678,.a66308c5-64b5-4413-b6db-9a9bc6506572{stroke:#f9cadf;}.\30 dd62325-eac2-4fb6-b83f-d77a5fb54aa7,.\31 f3eebc2-27e3-4316-b624-9d7d2493d874,.\32 00e9848-7f3a-49f2-8ebd-14cc57b5591e,.\32 c1d5db8-9037-47bd-9ada-cba40b43a7ab,.\33 002d68d-39cf-4dbd-a217-90e48995cd8f,.\34 201c03c-8597-4056-bbab-b901e393fb30,.\34 557d952-80b9-4ad8-874d-45af7555f678,.\34 63b06af-0ee8-4626-bd4a-a51dc6034983,.\36 07c7a0c-a480-404c-bd74-9d7113626a59,.\36 a04e1fd-0fe4-4d2f-ac68-c9f032509f9b,.\36 b8657dd-9ffe-4036-86e4-f09226675e4f,.a66308c5-64b5-4413-b6db-9a9bc6506572,.a7213844-007a-43c8-8572-20d8cfd825cc,.bd3e4a3b-9463-4502-bb6a-2d998fe5d993,.cba40eb2-cc65-412b-b48f-0dd80868e3b9,.ee78a6a2-adb5-427e-a9e4-8ab9fb12a266,.fb1e6f33-4d1a-4b40-874d-a4330175c1bf{stroke-miterlimit:10;}.\30 dd62325-eac2-4fb6-b83f-d77a5fb54aa7{stroke-width:4.04px;}.\36 b8657dd-9ffe-4036-86e4-f09226675e4f,.ee78a6a2-adb5-427e-a9e4-8ab9fb12a266{stroke:#f9ca9e;}.ee78a6a2-adb5-427e-a9e4-8ab9fb12a266{stroke-width:4.24px;}.\36 07c7a0c-a480-404c-bd74-9d7113626a59{stroke:#ff9f55;stroke-width:3.92px;}.\36 b8657dd-9ffe-4036-86e4-f09226675e4f{stroke-width:3.98px;}.\33 002d68d-39cf-4dbd-a217-90e48995cd8f,.\34 201c03c-8597-4056-bbab-b901e393fb30,.\34 557d952-80b9-4ad8-874d-45af7555f678,.\34 63b06af-0ee8-4626-bd4a-a51dc6034983,.a66308c5-64b5-4413-b6db-9a9bc6506572,.bd3e4a3b-9463-4502-bb6a-2d998fe5d993{stroke-linecap:round;}.\33 002d68d-39cf-4dbd-a217-90e48995cd8f,.a66308c5-64b5-4413-b6db-9a9bc6506572{stroke-width:3.97px;}.\33 002d68d-39cf-4dbd-a217-90e48995cd8f,.\34 63b06af-0ee8-4626-bd4a-a51dc6034983,.\36 a04e1fd-0fe4-4d2f-ac68-c9f032509f9b{fill:#273549;}.\34 557d952-80b9-4ad8-874d-45af7555f678{stroke-width:1.99px;}.\34 201c03c-8597-4056-bbab-b901e393fb30{stroke-width:4.18px;}.\31 f3eebc2-27e3-4316-b624-9d7d2493d874,.a7213844-007a-43c8-8572-20d8cfd825cc,.fb1e6f33-4d1a-4b40-874d-a4330175c1bf{stroke:#3ff1ff;}.\31 f3eebc2-27e3-4316-b624-9d7d2493d874,.cba40eb2-cc65-412b-b48f-0dd80868e3b9{stroke-width:1.99px;}.\32 00e9848-7f3a-49f2-8ebd-14cc57b5591e,.\32 c1d5db8-9037-47bd-9ada-cba40b43a7ab,.\36 a04e1fd-0fe4-4d2f-ac68-c9f032509f9b,.cba40eb2-cc65-412b-b48f-0dd80868e3b9{stroke:#8aefbf;}.\32 c1d5db8-9037-47bd-9ada-cba40b43a7ab,.\36 a04e1fd-0fe4-4d2f-ac68-c9f032509f9b,.a7213844-007a-43c8-8572-20d8cfd825cc,.fb1e6f33-4d1a-4b40-874d-a4330175c1bf{stroke-width:3.99px;}.fb1e6f33-4d1a-4b40-874d-a4330175c1bf{fill:#273648;}.\32 00e9848-7f3a-49f2-8ebd-14cc57b5591e{stroke-width:1px;}.\34 63b06af-0ee8-4626-bd4a-a51dc6034983,.bd3e4a3b-9463-4502-bb6a-2d998fe5d993{stroke:#16df82;stroke-width:1.06px;}</style></defs><title>Improve b2912 Electric</title><g id="18968693-7cfc-4f54-b591-c3228b1d4ec2" data-name="Layer 2"><g id="95455056-96b2-43fd-a471-7f94fe461b3b" data-name="Mature"><g id="f1b5c79b-326d-42f0-9bc3-1776807703a2" data-name="Mature Electric"><rect id="a058092a-79e3-4406-ad14-37ad21f45c30" data-name="Back" class="a4f39f56-6ca3-404f-8334-5e619f8191a7" width="1100" height="1000"/><g id="02fece72-f84b-4265-8a7c-e73a4c7d5cbe" data-name="Podium"><line id="3df5870d-78b9-4f79-9ed2-499b71d4cf3f" data-name="Silver" class="0dd62325-eac2-4fb6-b83f-d77a5fb54aa7" x1="6" y1="947" x2="374" y2="947"/><line id="ee91805c-7f4b-4489-a5cc-c198740ff848" data-name="Gold" class="ee78a6a2-adb5-427e-a9e4-8ab9fb12a266" x1="369.04" y1="901" x2="729.04" y2="901"/><line id="8088ae05-3a1e-49dd-8df9-3064123af8ef" data-name="Bronze" class="607c7a0c-a480-404c-bd74-9d7113626a59" x1="727" y1="956" x2="977" y2="956"/></g><g id="efc03d75-d772-423a-816b-fe08aef2c862" data-name="Male 2"><g id="a58ff0e1-f1f6-4409-8720-eb2c8738c128" data-name="Face"><path id="26f2843b-1e7a-49a2-951d-4d1ca61c3e52" data-name="Ear Left" class="6b8657dd-9ffe-4036-86e4-f09226675e4f" d="M885.4,196.53c0-.1,6.72.51,9.25,3.53,5.26,6.28-8.27,19.28-8.29,19C886.2,215.18,885.67,202.9,885.4,196.53Z"/><path id="f2618e98-4e1a-4727-ae99-23d5cd7ceb09" data-name="Ear Right" class="6b8657dd-9ffe-4036-86e4-f09226675e4f" d="M812.11,201c-.16-3.29-7.3.78-9.25,3.53-4.5,6.37,10.92,19.79,10.83,18.64C813.08,216,812.55,209.67,812.11,201Z"/><line id="47afc560-0f0e-4209-b7e2-600fc82101ae" data-name="Neck Left" class="6b8657dd-9ffe-4036-86e4-f09226675e4f" x1="878" y1="247.95" x2="880.43" y2="269.64"/><line id="ec3b9978-51a5-4aa3-9a8f-856e20a13d30" data-name="Neck Right" class="6b8657dd-9ffe-4036-86e4-f09226675e4f" x1="825.68" y1="248.8" x2="825" y2="271.3"/><path id="011b73fc-1022-4673-a33b-8d73dc767ad7" data-name="Face Outline" class="6b8657dd-9ffe-4036-86e4-f09226675e4f" d="M851.69,259.71A43.14,43.14,0,0,0,875,250.57a42.13,42.13,0,0,0,12-15.46q-1.41-33-2.83-66.05a40.08,40.08,0,0,0-8.17-13.74c-3.55-3.9-20-19.66-12.56-9.29-12.92-12.93-21.29-22.9-15.33-3.68-8.06-19.28-9.36-17.23-16.69,3.26,4.62-19.3-7.16.73-13.65,9.84,0-1.93-6.79,9.3-8.56,15q2.84,33.73,5.66,67.46a55.54,55.54,0,0,0,36.77,21.79Z"/><path id="0d741904-c4b7-4306-ad37-5f16f688b6fb" data-name="Hairline" class="6b8657dd-9ffe-4036-86e4-f09226675e4f" d="M812.11,204.45a82.13,82.13,0,0,0,6-10c1.3-2.55,2.37-5,3.27-7.3a1.2,1.2,0,0,1,1.9-.46A30.06,30.06,0,0,0,840.65,194c13,1,21.73-7.24,23.07-8.55a7.28,7.28,0,0,1,10.6,0,46.86,46.86,0,0,0,11.4,18.44"/><path id="8974f898-01ef-4842-a0fb-34f09f2e5fed" data-name="Smile" class="6b8657dd-9ffe-4036-86e4-f09226675e4f" d="M836.84,234.41a30.3,30.3,0,0,0,27.94-.35"/></g><g id="26a9ce7c-64e0-43c4-92c8-185135bd5f0c" data-name="Legs"><path id="287f37b5-547f-4f29-98f8-66157a02ebff" data-name="Leg Left" class="6b8657dd-9ffe-4036-86e4-f09226675e4f" d="M885.46,928.52a27.09,27.09,0,0,0,18.56,0,25.65,25.65,0,0,0,9.27-6.19q-.33-30.37-.65-60.77c-2.55,3-10.13,11.19-22.41,13.2a34.92,34.92,0,0,1-11.13,0l2.79,23.64Z"/><path id="69af088b-e0ed-4acf-9a19-ad98313afa47" data-name="Leg Right" class="6b8657dd-9ffe-4036-86e4-f09226675e4f" d="M791.17,920.78a25.24,25.24,0,0,0,11.19,8.46,26.31,26.31,0,0,0,19.46-.72q2.7-30.28,5.41-60.56c-1,1.67-5.05,7.67-12.65,9.61-8.42,2.15-17.84-1.55-23.67-9.4Q791,894.48,791.17,920.78Z"/></g><g id="34eaf8d3-4189-4ec7-ba34-be9ba9419524" data-name="Shoes"><path id="e252f3e2-6712-4989-bd88-2c2752bc4cab" data-name="Foot Left" class="6b8657dd-9ffe-4036-86e4-f09226675e4f" d="M893.5,952h64.62c1.68-1.7,3.67-4.26,3.18-6.85-.94-5.08-10.11-3.42-21-10.83-6-4.11-12.27-10.81-19.84-13.79-1.81-.71-4-1.88-5-.51a22.58,22.58,0,0,1-12.81,9,24.84,24.84,0,0,1-7.88.6c-6.74-.4-7.68-2.12-9.34-1.06-1.29.82-1.35,4.64-1.46,12.29a12.61,12.61,0,0,0,1.83,7.25c.1.15.2.27.29.39A10.7,10.7,0,0,0,893.5,952Z"/><path id="f4214c75-9a4f-444c-ae62-fd6549e0db3a" data-name="Foot Right" class="6b8657dd-9ffe-4036-86e4-f09226675e4f" d="M813.16,953H748.54c-1.7-1.72-3.66-4.27-3.19-6.85,1-5.21,10.59-3.76,21.32-10.82,7.87-5.18,20.83-17.9,21.73-17.64a1.3,1.3,0,0,1,.21.08c.33.2.49.77,2.56,3.25a27.15,27.15,0,0,0,6.25,6.06,22.6,22.6,0,0,0,3.09,1.68A23.56,23.56,0,0,0,804,930a24.62,24.62,0,0,0,7.88.6c6.75-.52,8.12-3,10-1.81,2.07,1.28,1.66,5.23.84,13-.56,5.28-1.33,6.67-2.13,7.64A10.68,10.68,0,0,1,813.16,953Z"/></g><g id="d82f4c25-417b-4130-b489-0244f1759745" data-name="Hands"><path id="fe14fd87-168a-40cd-8c02-fea988756c54" data-name="Hand Left" class="6b8657dd-9ffe-4036-86e4-f09226675e4f" d="M1023.82,191.19a6.23,6.23,0,0,1,11.67-2.63l9.55,14.22,5.83-30a19.33,19.33,0,0,1,37.13,7.9q-10.08,32.94-20.15,65.88a25.73,25.73,0,0,1-12.73,1.06,26.29,26.29,0,0,1-15.38-9Z"/><path id="8d9b2ede-e355-4e56-860c-332cd5a8faaf" data-name="Hand Right" class="6b8657dd-9ffe-4036-86e4-f09226675e4f" d="M715.76,185.18a6.21,6.21,0,0,0-10.27-6.11L692,189.63l3.85-30.34a19.33,19.33,0,0,0-37.76-3.95q-.72,34.41-1.45,68.84a25.65,25.65,0,0,0,11.77,4.93,26.46,26.46,0,0,0,17.42-3.76Z"/></g><g id="df3669b8-c29b-44e5-b22e-89dbacb42161" data-name="Torso and Arms"><path id="ce439d29-22a0-41f1-9512-d2cb813d71a4" data-name="Arm Left" class="6b8657dd-9ffe-4036-86e4-f09226675e4f" d="M948.16,295.9a1.85,1.85,0,0,1,3-1.24,120.13,120.13,0,0,0,52.49,25.13,199.29,199.29,0,0,0,36.07-81.16,26.29,26.29,0,0,0,15.38,9,25.73,25.73,0,0,0,12.73-1.06l-20.69,88.54a48.63,48.63,0,0,1-10.08,21.61A49.13,49.13,0,0,1,1018,370.91a170.44,170.44,0,0,1-76.23-11.62Q945,327.6,948.16,295.9Z"/><path id="3a6fb9d2-5171-4323-af4d-93b50e5d02ea" data-name="Arm Right" class="6b8657dd-9ffe-4036-86e4-f09226675e4f" d="M756.93,297.65c-11.33,3.64-23.46,7.13-36.37,10.3-8.91,2.19-17.54,4.06-25.87,5.68a198.89,198.89,0,0,1-8.89-88.28,26.46,26.46,0,0,1-17.42,3.76,25.65,25.65,0,0,1-11.77-4.93l-8,90.54c-.42,4.76-2,14.18,2.82,23.65,5.9,11.68,17.71,16.71,28.46,21.12,19.83,8.14,37.28,7.94,46.68,7.73a139.21,139.21,0,0,0,45.57-8.79Q764.52,328,756.93,297.65Z"/><path id="b8a9227f-20fa-4ea9-b32a-7f17027c958a" data-name="Capri" class="6b8657dd-9ffe-4036-86e4-f09226675e4f" d="M853,650.16c1.85,0,1.82,24.11,6.56,57,5.36,37.17,9.72,33.3,11.63,56.44,2.22,27-2.92,37.9-.53,80.64,1.1,19.69,2.76,27.54,8.49,30.57,12.75,6.73,35.87-15.64,38.18-17.92,5.71-44.24,10.46-91,13.79-140.19,4-59.23,5.55-115.41,5.31-168.13a279.85,279.85,0,0,1-166.54,2.11c0,51.58,1.42,106,4.77,162.85,3.15,53.43,7.71,104.45,13.26,152.85,1.73,1.54,17.79,15.54,30.75,10.18,6.88-2.84,10.88-10.3,14.33-26.52,7.47-35.1-1.06-48.31,1.06-82.75,1.39-22.44,5.06-17.58,11.45-61.1C850.45,672.07,851,650.15,853,650.16Z"/><path id="331f069e-0f28-4735-b692-7b1cca0e2e10" data-name="Torso" class="6b8657dd-9ffe-4036-86e4-f09226675e4f" d="M880.43,269.64c-3,11.24-11.88,19.79-22.64,21.72-13.43,2.42-27.66-5.85-32.79-20.06a244.52,244.52,0,0,0-68.07,26.35,370.42,370.42,0,0,1,14,54.66c1.93,11,7.08,39.21,4.26,110.31-.92,23.34-2.49,53.19-5.3,88a360.53,360.53,0,0,0,166.54-2.11q-1.17-22.17-1.49-46.19c0-3.18.11-6.29.37-9.3,1.32-27.83-2.67-54.6,2.18-82.59q.34-5.25.75-10.42c2.92-38,7.51-73.19,13-105.36q-16.86-6.69-35.13-13.17T880.43,269.64Z"/><path id="952f6bda-b03a-459f-9ba7-47d38baa6ac8" data-name="Pocket Left" class="6b8657dd-9ffe-4036-86e4-f09226675e4f" d="M890.63,485.54c0,20.78,8.68,37.61,19.41,37.61"/><path id="592dd1c1-2a6a-44aa-af4b-a880e07838e9" data-name="Pocket Right" class="6b8657dd-9ffe-4036-86e4-f09226675e4f" d="M819.4,487c0,20.78-8.68,37.61-19.41,37.61"/><path id="4fa8f91b-f75c-4ecc-8cec-54e5989ff986" data-name="Zip" class="6b8657dd-9ffe-4036-86e4-f09226675e4f" d="M847.93,291.64Q851.32,427,854.7,562.3"/><line id="3ca62fd7-274b-446f-b4d0-f97ad1e7a9c3" data-name="Zipper" class="6b8657dd-9ffe-4036-86e4-f09226675e4f" x1="848.16" y1="293.84" x2="856.76" y2="305.41"/></g></g><g id="88aec0eb-0a8d-4347-a61f-242cb49f4997" data-name="Male 1"><path id="35ba858e-8fbf-4855-9d6b-641a75602ee7" data-name="Shoe Left" class="a66308c5-64b5-4413-b6db-9a9bc6506572" d="M360.31,944c2.46,0,4.78-3.85,3.14-5.68-2.24-2.5-15.72-5.37-20-5.93-22.24-2.89-37.85-15.14-39.32-25a4.09,4.09,0,0,0-5.29-3.29,55.1,55.1,0,0,1-26.46,1.63,4.52,4.52,0,0,0-5.25,3.44c-1.42,6.45-2.22,17.83-3.77,28.56a4.73,4.73,0,0,0,4.7,5.38C294.6,943.18,333.69,943.9,360.31,944Z"/><path id="c1f54fc7-6de2-4b10-92b5-1e1a9998ec89" data-name="Shoe Right" class="a66308c5-64b5-4413-b6db-9a9bc6506572" d="M16.93,943.54c-7,0,.61-7.24,1.74-8.42,3.8-3.92,12-6,17.13-7.18,18.19-4.3,19.54-5,21.45-7,5-5.3.59-14.23,7.22-13.53,4.26.45,6.53,1.08,15.07,1.57,11.71.67,18.8-5.18,20.63-.32,5.25,14,12.9,33.26-.93,33.94C89.4,943.11,30.65,943.49,16.93,943.54Z"/><path id="b4e8a0a3-2683-4d98-adb8-3221b31b3d8d" data-name="Trousers" class="3002d68d-39cf-4dbd-a217-90e48995cd8f" d="M180.24,597.91c4.94-.14,7,20.71,16.73,55.34,13.64,48.71,22,52.12,30.15,89.1,6.09,27.62-4.46,29.49,7.73,71.29,21.62,74.11,28.42,76.84,29,81.49,1.37,10.71,15.36,12.09,22,11.36,5-.55,19.44-4.29,19.79-9.1.86-11.85-3.53-27.47-9.79-78.12-5.24-42.36-2.69-69-3.18-79.57-2.76-59.66-8.88-74.23-10.52-118.36-1.22-32.93-9.49-100.16-9.84-100.47-.8-.74-25-9.26-48.47-10.79-27.16-1.77-26.23,4.12-54.71,9.61-16.19,3.12-25.69,7.06-46.16,7.67-18.44.55-23.85-3.2-31.83-2.13C79.17,526.85,78,636.68,78,636.68c.11,28.89-1.36,56.66-2.08,66.67-.39,5.56-1,12.11-1.54,21.06,0,0-.53,9.46-1.36,18.15h0c-1.42,16-8.49,35.2-9,66.21-.53,33.81-1.3,48.39-3.49,63.27-1.14,7.82-5.55,30.08,1.95,33.42,8.2,3.65,11.2,4.3,17.06,3.54a76.25,76.25,0,0,0,21-5.79s13.07-37.54,17.47-47.85a185.69,185.69,0,0,0,9.73-29c1.09-4.37,3.86-9.09,4.78-16.51,2.34-18.89.36-45.79,5.48-70.35,1-5,6.91-24,14-48.57,5.45-18.89,6.53-19.39,11.85-37.41C175.3,614.67,175.84,598,180.24,597.91Z"/><path id="c06ef431-d3c1-4410-a741-06209397850d" data-name="Pocket Left" class="4557d952-80b9-4ad8-874d-45af7555f678" d="M249.61,529a36.2,36.2,0,0,0,3.7,23c7.7,14.23,22.47,17.72,24.76,18.22"/><path id="1d08ae1a-4485-4dbf-9e61-c870df80e345" data-name="Pocket Right" class="4557d952-80b9-4ad8-874d-45af7555f678" d="M106.11,538c.64,3.28,1.86,12.92-2.53,22.25-6.52,13.91-20.25,17.18-22.49,17.84"/><path id="17864cd5-8275-4329-a74e-426ba861ddae" data-name="Torso" class="a66308c5-64b5-4413-b6db-9a9bc6506572" d="M212.12,221.49a32.58,32.58,0,0,1-30.62,28.76c-16.68.7-31.72-12.13-33.46-29.39L83.65,249.31q2.3,17.4,4.1,35.33a1167.11,1167.11,0,0,1-1,241.22c38.47,4.09,66.82-.77,85.87-6.14,11.3-3.19,18-6.09,30.31-8.1,28.46-4.63,53.26,1.94,70.08,8.44-12.42-68.43-17.38-148.33-4.11-235.42q2.73-17.86,6.24-34.86Z"/><path id="5a3e5250-516b-4c88-8a22-12c863e0054b" data-name="Shirt Lining" class="a66308c5-64b5-4413-b6db-9a9bc6506572" d="M212.12,221.49q-10.86,112.77-28.83,232-5.1,33.47-10.63,66.23"/><g id="d84ed953-6e4c-4400-91b1-43319080a8b9" data-name="Arms"><ellipse id="82ed19be-11e5-43aa-9506-5438a44fdeda" data-name="Button" class="4201c03c-8597-4056-bbab-b901e393fb30" cx="198.48" cy="257.05" rx="3.99" ry="3.95"/><path class="3002d68d-39cf-4dbd-a217-90e48995cd8f" d="M72,260.57a15.52,15.52,0,0,1,11.68-11.26c7.2-1.36,15,3.27,17.67,11.26a133.2,133.2,0,0,1,16.14,50.12,132.45,132.45,0,0,1-1.61,39.92l107.64,6.56-6.31,27.2A245.53,245.53,0,0,1,75.8,393.18,13.66,13.66,0,0,1,65.21,379.5c.43-13.36,0-24.44-.5-32.64-1.83-28.7-6.59-45.73.31-69.1A96.14,96.14,0,0,1,72,260.57Z"/><path class="3002d68d-39cf-4dbd-a217-90e48995cd8f" d="M259.47,259.32c4.53-8.2,13.89-11.45,20.84-8.45,4.95,2.15,7.12,7.62,8.84,12.82C298,290.63,299.45,308,299.45,308a266.51,266.51,0,0,1-.83,53.58c-2.63,21.86-3.94,32.79-9.5,37.76-11.1,9.93-31.29,5.24-73.84-9.62-25.11-8.77-59.23-21.51-99.43-39.08.87-.84,3.62-13.88,3.15-15,7.33.29,18.95.69,33.26,1,26.05.49,34.11.05,48.46.79a373.53,373.53,0,0,1,46.76,5.44c-2.79-19.06-2.83-35-.95-46A122.64,122.64,0,0,1,259.47,259.32Z"/></g><g id="5ab0c238-df43-486a-9254-a215aede2786" data-name="Face"><path id="ce3e7bd3-9776-4764-8c35-e8aafe7335a4" data-name="Face Outline" class="a66308c5-64b5-4413-b6db-9a9bc6506572" d="M180.24,214.61a46,46,0,0,1-19.57-6.26,45.37,45.37,0,0,1-16.41-16.88A145.48,145.48,0,0,1,143,114.56C149.94,96.79,167.91,86,185.92,88.3a39,39,0,0,1,14.53,4.88,38.29,38.29,0,0,1,11.61,10,39.05,39.05,0,0,1,7.32,13.91,190.47,190.47,0,0,1,2.53,28.14,193.12,193.12,0,0,1-5,46.9A41.11,41.11,0,0,1,203,207.73,41.84,41.84,0,0,1,180.24,214.61Z"/><path id="fa041407-1cf3-4760-85b5-d62e065a8108" data-name="Ear Left" class="a66308c5-64b5-4413-b6db-9a9bc6506572" d="M220.61,170.69A10.6,10.6,0,0,0,221.92,150"/><path id="73cc925f-e5f6-4ae9-8ba8-0217d09da614" data-name="Ear Right" class="a66308c5-64b5-4413-b6db-9a9bc6506572" d="M139.17,171.16a10.6,10.6,0,0,1-1.31-20.65"/><path id="4b2a3876-152a-460c-86c7-334b6f823480" data-name="Smile" class="a66308c5-64b5-4413-b6db-9a9bc6506572" d="M195.63,187.06a23.4,23.4,0,0,1-27.46.47"/><path id="0ff8bdd4-99c8-4412-b12d-a5cc340378d2" data-name="Hairline" class="a66308c5-64b5-4413-b6db-9a9bc6506572" d="M139.32,166.72a32.54,32.54,0,0,0,8.49-8.23,33.18,33.18,0,0,0,5.92-18.21c0-1.12.87-1.57,1.86-1a21.37,21.37,0,0,0,31.61-12.18c.47-1.39,1.44-1.44,2.11-.12a16.84,16.84,0,0,0,8,7.84,16.65,16.65,0,0,0,7.63,1.47,2.87,2.87,0,0,1,2.9,2.36,56.52,56.52,0,0,0,12.79,27.83"/><path id="3273f0bb-4296-4ece-9013-4693082146b5" data-name="Neck Left" class="a66308c5-64b5-4413-b6db-9a9bc6506572" d="M212.11,199.41q-.12,12.45-.26,24.91"/><path id="889a19f9-55e2-425e-b8cd-8ea40ca2f71d" data-name="Neck Right" class="a66308c5-64b5-4413-b6db-9a9bc6506572" d="M150.43,200q.1,11.73.22,23.44"/></g></g><g id="f853da79-47af-4e32-9e81-48d0b4393eed" data-name="Female"><path id="8473faf3-ac87-4e53-9519-09c0aa4c63a1" data-name="Shoe Right" class="1f3eebc2-27e3-4316-b624-9d7d2493d874" d="M462.49,865.24a30.45,30.45,0,0,0,34.22,1.47,41.14,41.14,0,0,1,4.83,14.76c.09.79.58,16.38-2.88,16.38H477.51c-2.47,0-1.66-4.78-1.55-7.19.14-2.82-12.67,7.19-21,7.19H395.18c-1.79,0-4.51-4-4-6.89.22-1.31,1.52-4.7,19.24-8.89a174.84,174.84,0,0,1,18.34-3.28C436.9,877.64,448.52,874.47,462.49,865.24Z"/><path id="75d3fab8-e0a0-4f3e-a42e-f7547c1c4203" data-name="Shoe Left" class="1f3eebc2-27e3-4316-b624-9d7d2493d874" d="M640.87,862.5c-1.47-1.15-10.34,7.2-16.41,7.15s-15.89-3.87-16.59-2.59a35.66,35.66,0,0,0-4.46,16.64c-.09,5.87,1.39,14.07,5.21,14.15,13.4.26,11.76.14,18,0,2.93-.07.78-7.34,4-8,4-.77,18,6.4,21,7,6.14,1.11,23.4,1.33,54.22,1,0,0,8.28-1.31,8.12-8-.1-3.94-13.54-7.74-21.09-9.29-12.57-2.57-18.64-2.68-28.21-5.56A85.73,85.73,0,0,1,640.87,862.5Z"/><path id="46e25d5f-056f-4295-b081-3d36f34f9d42" data-name="Torso" class="6a04e1fd-0fe4-4d2f-ac68-c9f032509f9b" d="M464.43,220.38c-.09-3.23-30.15-8.48-30.27-2.72-.34,16-5.48,35.39-5.82,57.72-.52,34.56-11.68,61.87-15.67,71.4-5.37,12.83-12.19,25.49-17.2,34.69-14.91,27.37-20.74,32.19-21.55,37.63a7.12,7.12,0,0,0,0,2.83c1,4.18,7.66,11.57,99.85,18.15,8.24.59,36.7,13.57,37.55,13.35,6.41-1.64-1.79-84.22,3.34-102.19a83.39,83.39,0,0,1,3.54-9.74c3.57-7.57,5.66-10.14,16.19-34.31,7.34-16.87,12.16-18.86,8.21-24.67a107.07,107.07,0,0,1-5.91-9.24c-4.53-7.83-5.74-10.31-8.83-14.85-5.83-8.55-6.63-21.2-2.76-30.31a49.61,49.61,0,0,1,9-14.74c2.1-2.49-13.18,1.86-20.83,4.82-3,1.15-19,14.19-26.28,22.58-11.47,13.17-19.48,21.13-22.12,19.75C463.88,260,464.67,228.34,464.43,220.38Z"/><path id="72c512c1-6dcb-4b90-86a1-370234f5c7d2" data-name="Jeans" class="2c1d5db8-9037-47bd-9ada-cba40b43a7ab" d="M462.86,578.85c43.22,67.84,58,97.38,62.09,110.81.71,2.31,5,16.93,12.62,36.48,0,0,2.77,7.15,5.7,14.07,14.93,35.34,26.82,45.8,40.41,77.26,11,25.55,15.2,46.42,25.76,47,3.86.21,6.49-2.39,15.91-3.54a61.63,61.63,0,0,1,16.73.27c-.69-8.69-10.8-46.6-11.37-48.41-4.75-15-21.79-61.95-29.78-90.92-18.55-67.29-37.3-103.52-43.67-154.51-4-32.35-5.32-71.22-34.92-104.07A106.37,106.37,0,0,0,509.46,451c-18.9-15-78.68-16.88-130.18-27.93a3.61,3.61,0,0,0-4.37,3.14c-6.08,60.26-1.93,108.11,2.89,140.4,6.5,43.64,15.72,68.87,48.08,177.44,14.28,47.94,27.66,93.18,34.88,118.26a5.1,5.1,0,0,0,1.73,2.93c3.54,2.57,8.71-.27,16.55-.55,9.6-.34,13.26,4.06,17.67,2,3.44-1.6,3.53-7.47,2.9-30.6-.73-26.87-1.19-31.68-1.52-34.77a278.69,278.69,0,0,0-4.41-27.92h0c-4.46-33.2-11.55-49.21-19-84.13A553.87,553.87,0,0,1,462.86,578.85Z"/><path id="0ac7452d-7e23-44e6-a942-b16a624e02d2" data-name="Jeans Zip" class="2c1d5db8-9037-47bd-9ada-cba40b43a7ab" d="M437.38,474c.33,12.65-.78,20.08,1.5,35.07,4.17,27.38,16.72,50.83,24,69.75"/><path id="f937f397-5893-4837-b234-c1a32e4289f9" data-name="Arm Right" class="a7213844-007a-43c8-8572-20d8cfd825cc" d="M393.1,386.14c-3.41,5.65-3.36,5.72-6.5,8.35-3.39,2.83-28.3-70.7-30-75.48a61.8,61.8,0,0,0-3.13-7.49,5,5,0,0,1,.67-5.47c4.3-5,13.23-16.85,18.2-24s62-65,62-65v0c1.39,10.14-2.41,24.14-2.67,26.13-.82,6.4-2.9,10.77-3.8,39.71-7.89,7.57-14.8,13.48-19.32,17.42-12.22,10.67-16.89,13.76-17.83,20.15-.47,3.15,1.57,7.54,4.93,16.47,4,10.69,6.88,18.67,9.18,26,0,.13-3.51,8.51-5.75,12.87C396.7,380.62,396.44,380.61,393.1,386.14Z"/><path id="a4ce26ce-b334-4ce4-a9bf-255f5f6d8b0c" data-name="Neckline" class="a7213844-007a-43c8-8572-20d8cfd825cc" d="M508.24,194.36l1.63,24.87"/><path id="314bfd51-f7e6-4d07-a428-7d8e0ac21bbf" data-name="Arm Left" class="fb1e6f33-4d1a-4b40-874d-a4330175c1bf" d="M523,239.59c.21-14,9.18-24.56,9.32-24.65l.21-.15.22-.16c.16-.11,13.51-1.53,25.1,5.14,14.51,8.37,21.38,26.65,30.74,47.87,22.73,51.54,34.36,62,27.43,75.15-1.75,3.32-9.33,9.11-24.5,20.69-12.26,9.36-13.38,9.31-24.51,17.79,0,0-13.32,11-32.59,29.51-6.81,6.56-11.19,11.73-11.82,18.53q-.52,5.65-1,11.31c-.12,1.35-2.69,1.21-4,.88-7.89-2-4.36-29.5-11.28-31.19-4-1-8.29,7.54-10.24,6.53-2.2-1.12-.36-13.79,6.82-24.78,3-4.53,6.85-5.8,16.16-12.05,2.09-1.4,7.89-5.93,19.52-14.93,22.59-17.46,33.88-26.27,34.67-29.19,2-7.48-2.44-12.08-26.7-47.56C530.43,264.77,522.81,252.78,523,239.59Z"/><path id="107b4877-30a1-4737-aa5e-5584d4a08fa2" data-name="Arm Left Cover" class="2c1d5db8-9037-47bd-9ada-cba40b43a7ab" d="M543.15,283.16c.32-.6,2,3.07,1.38,2.19-16.1-23.56-21.72-32.57-21.53-45.76.21-14,10.18-26.54,10.32-26.64s2.49-1.81-1.81,3.6"/><path id="f6e8153c-44c8-4c57-a204-20a09feb5b99" data-name="Face Outline" class="a7213844-007a-43c8-8572-20d8cfd825cc" d="M517,183.34a32.6,32.6,0,0,1-31.91,18.29c-17.64-1.63-25.63-17.75-26-18.5-1.74-4.11-3.49-8.67-5.14-13.66a102.47,102.47,0,0,1-4-15.68c-1.86-10.95-2.86-21.88-4.86-32.8,5,2,10,1,15,1,22-3,44-16.89,64.06-5,5,3,1,14.9,1.53,22.91-.45,4.76-.95,9.39-1.67,14.21A176.44,176.44,0,0,1,517,183.34Z"/><path id="102aabe2-7d46-4917-922b-125b12a7661a" data-name="Ear" class="a7213844-007a-43c8-8572-20d8cfd825cc" d="M526.11,133.68c5,.14,6.61,2,7.13,2.7,2.84,4-.61,13-10,21.44"/><path id="0f9d3fcf-8f09-49da-8204-d560964ffdac" data-name="Smile" class="a7213844-007a-43c8-8572-20d8cfd825cc" d="M477.85,174.13a18,18,0,0,0,24.32.36"/><path id="8a9172a1-8804-4d57-8842-150fca5363ac" data-name="Hair" class="fb1e6f33-4d1a-4b40-874d-a4330175c1bf" d="M346,209.34a52.05,52.05,0,0,0,32.92-5.17,51.37,51.37,0,0,0,19.75-19.33c3.93-6.52,5.66-12.46,8.5-28.59,4.31-24.4,3.69-29.71,5.76-39.4,2.37-11.15,8-26.65,22.6-44.06a72.25,72.25,0,0,1,30.62-18.1,69.51,69.51,0,0,1,41.69,1.09c6.75,2.39,18.17,6.42,26.34,18a45.44,45.44,0,0,1,8,21.78A32.37,32.37,0,0,1,535,121.74a14.68,14.68,0,0,1-4.59,3.49c-12.28,5.69-24.29-5.24-32.29-13.18,2,19.86-11,39.73-30.25,46.17a91,91,0,0,1-11.52,3.29,2.49,2.49,0,0,0-1.94,2.66c.47,5.16.89,12,5.37,18.76a49.6,49.6,0,0,0,8.12,9.42c6.18,5.62,14.46,8.59,18.53,10.16h0a73.1,73.1,0,0,1-10.66,25.08A70.81,70.81,0,0,1,444,254c-22.32,9.16-45.51,4.21-61.45-4-7.5-3.86-12.2-8.44-16.7-12.89A102.89,102.89,0,0,1,346,209.34Z"/><path id="c9286eb8-82ea-43c3-a752-6d013af57e39" data-name="Hand Left Cuff" class="200e9848-7f3a-49f2-8ebd-14cc57b5591e" d="M509.29,388.05a.26.26,0,0,1,.31-.4,35,35,0,0,1,12.9,10.23,34.53,34.53,0,0,1,6.7,15.19.26.26,0,0,1-.47.19Z"/><g id="d86f3ea9-1725-4531-a1ff-76d40bdd3cd4" data-name="Tickets"><g id="8cffcf9b-89b3-4fd9-9452-4492782f69e6" data-name="T2"><path class="bd3e4a3b-9463-4502-bb6a-2d998fe5d993" d="M492.34,500.59c4.09-9.65,4.09-9.65,7-14.93,1.73-3.11,3.5-6,5.26-8.59l13.32,6.1a4.65,4.65,0,0,1,2.3,6.18Q515,500.66,509.74,512c-3.07-1.7-6.32-3.65-9.67-5.87C497.28,504.26,494.7,502.41,492.34,500.59Z"/><path class="bd3e4a3b-9463-4502-bb6a-2d998fe5d993" d="M493.28,490.41c0,.09,9.69,4.64,21.76,10.16"/></g><g id="2586c060-c2f7-4849-aada-31228e1c71a0" data-name="T1"><path class="463b06af-0ee8-4626-bd4a-a51dc6034983" d="M481,487.3V476.82a4.7,4.7,0,0,1,4.7-4.66h14.63a4.7,4.7,0,0,1,4.7,4.66v31.37c.06.17.12.38,0,.5-.67.82-8.06-3.57-13-7.77A47.89,47.89,0,0,1,481,487.3Z"/><path class="bd3e4a3b-9463-4502-bb6a-2d998fe5d993" d="M482.7,488.73l22.67.12"/></g></g><path id="98a0ad15-14ba-47d3-bb4d-66132e2e3bc1" data-name="Pocket" class="cba40eb2-cc65-412b-b48f-0dd80868e3b9" d="M476.61,467.28c.19,3.25,1.72,23.64,19.2,37a50.18,50.18,0,0,0,28.89,10.07"/></g></g></g></g></svg>