<svg xmlns="http://www.w3.org/2000/svg" xmlns:xlink="http://www.w3.org/1999/xlink" viewBox="0 0 163 103"><defs><style>.cls-1,.cls-2,.cls-3,.cls-4,.cls-5{fill:none;stroke-miterlimit:10;stroke-width:3px;}.cls-1{stroke:url(#New_Gradient_Swatch_3);}.cls-2{stroke:url(#New_Gradient_Swatch_3-2);}.cls-3{stroke:url(#New_Gradient_Swatch_3-3);}.cls-4{stroke:url(#New_Gradient_Swatch_3-4);}.cls-5{stroke:url(#New_Gradient_Swatch_3-5);}</style><linearGradient id="New_Gradient_Swatch_3" x1="54.98" y1="97.98" x2="78.39" y2="74.57" gradientUnits="userSpaceOnUse"><stop offset="0" stop-color="#69f0ae"/><stop offset="1" stop-color="#16df82"/></linearGradient><linearGradient id="New_Gradient_Swatch_3-2" x1="39.85" y1="99.7" x2="150.67" y2="-11.12" xlink:href="#New_Gradient_Swatch_3"/><linearGradient id="New_Gradient_Swatch_3-3" x1="64.85" y1="105.87" x2="134.75" y2="-15.2" xlink:href="#New_Gradient_Swatch_3"/><linearGradient id="New_Gradient_Swatch_3-4" x1="48.19" y1="87.37" x2="114.34" y2="-27.22" xlink:href="#New_Gradient_Swatch_3"/><linearGradient id="New_Gradient_Swatch_3-5" x1="107.86" y1="87.09" x2="158.86" y2="-1.25" xlink:href="#New_Gradient_Swatch_3"/></defs><title>DLC v4L</title><g id="Layer_2" data-name="Layer 2"><g id="Divisional_Logo" data-name="Divisional Logo"><g id="DLC"><g id="Plane"><g id="Out"><path id="Underbody" class="cls-1" d="M60.45,101.32l19.7-22.74a.09.09,0,0,0,0-.15l-9.73-3.6a1.26,1.26,0,0,0-1.64.8S60.29,101.5,60.45,101.32Z"/><path id="Wing_Base" data-name="Wing Base" class="cls-2" d="M2.32,59.79l46.94,8.35a1,1,0,0,1,.76.69s9.9,32.67,10.27,32.67,8.54-26.16,8.54-26.16A1,1,0,0,1,70,74.7l0,0,53.74,19.86a1,1,0,0,0,1.24-.56L161.44,2.2a.49.49,0,0,0-.61-.66L2.17,57.87A1,1,0,0,0,2.32,59.79Z"/></g><g id="In"><path id="Body" class="cls-3" d="M50.06,69a1,1,0,0,1,.44-1.12L160.86,1.75a.25.25,0,0,1,.27.41l-91.75,72a1.12,1.12,0,0,0-.33.47s-8.63,26.85-8.76,26.85S50.06,69,50.06,69Z"/><path id="Semi-Wing-Left_Upper" data-name="Semi-Wing-Left Upper" class="cls-4" d="M104.75,35.39l56-33.61c.6-.36.4-.35-.28-.11L2,57.91c-.25.09-.66.85-.39.79Z"/><path id="Semi-Wing-Right_Upper" data-name="Semi-Wing-Right Upper" class="cls-5" d="M114.33,39.2a.51.51,0,0,1,.18-.48L161.36,2a.1.1,0,0,1,.14.08L124.81,94.65c-.09.23-.79.19-.83-.05Z"/></g></g></g></g></g></svg>