<svg xmlns="http://www.w3.org/2000/svg" viewBox="0 0 29.22 23.78"><title>tw</title><g id="Layer_2" data-name="Layer 2"><g id="Layer_1-2" data-name="Layer 1"><path d="M8.86,18.61a6,6,0,0,1-5.59-4.17,6,6,0,0,0,2.57-.08l.09,0A6,6,0,0,1,2,11.57a5.83,5.83,0,0,1-.88-3.19,5.92,5.92,0,0,0,2.67.73A6,6,0,0,1,1.36,5.46,6,6,0,0,1,2,1.11,17.18,17.18,0,0,0,14.38,7.39c0-.24-.07-.45-.1-.66a5.83,5.83,0,0,1,.88-3.93A5.77,5.77,0,0,1,19.24.09a5.85,5.85,0,0,1,5.26,1.67.3.3,0,0,0,.32.1A12.1,12.1,0,0,0,28.31.52l.08,0h0a6.14,6.14,0,0,1-2.57,3.27,11.52,11.52,0,0,0,3.34-.9l0,0c-.23.3-.45.61-.69.9a11.76,11.76,0,0,1-2.18,2.07.2.2,0,0,0-.1.19,16.54,16.54,0,0,1-.11,2.67A17.67,17.67,0,0,1,24.59,14a17.28,17.28,0,0,1-3.25,4.73,16,16,0,0,1-8.25,4.6,18,18,0,0,1-3.34.4A17,17,0,0,1,.14,21.19L0,21.1a12.14,12.14,0,0,0,6-.83A11.9,11.9,0,0,0,8.86,18.61Z" style="fill:#1ba5d4;fill-rule:evenodd"/></g></g></svg>