<svg xmlns="http://www.w3.org/2000/svg" xmlns:xlink="http://www.w3.org/1999/xlink" viewBox="0 0 1100 1000"><defs><style>.cls-1,.cls-2,.cls-4,.cls-6,.cls-7{fill:#273549;}.cls-2{stroke:#8eacd8;}.cls-2,.cls-3,.cls-4,.cls-5,.cls-6,.cls-7{stroke-miterlimit:10;stroke-width:4px;}.cls-3,.cls-5{fill:none;}.cls-3,.cls-4{stroke:#f9ca9e;}.cls-5{stroke:#f9cadf;stroke-linecap:round;}.cls-6{stroke:#ffacc9;}.cls-7{stroke:#ff9f55;}</style></defs><title>Learn 1608</title><g id="Layer_2" data-name="Layer 2"><g id="Learn"><g id="Char_1_Learn_b" data-name="Char 1 | Learn b"><rect class="cls-1" width="1100" height="1000"/><rect id="Baseline_1" data-name="Baseline 1" class="cls-2" x="18.18" y="924.75" width="1061.8" height="2.59"/><g id="Right_Arm" data-name="Right Arm"><path class="cls-3" d="M377.83,832.79l11.29,6.44q-2.4,19.07-4.79,38.13"/><path class="cls-3" d="M373,877.78l33.57,4.47"/><path id="Right_Arm-2" data-name="Right Arm" class="cls-3" d="M482.28,534.17c1.85-13.81,4.54-40.06-3.12-42.79-6.83-2.44-18.83,15-23.15,21.29-32.3,47-40.21,109.35-60.63,218-4.23,22.47-12.68,66.6-20,126.88-1,8.43-1.81,15.44-2.34,20.26H309.66l10.56,18.1h81.34l10-27.06a356.71,356.71,0,0,0,27.85-69.6c9.45-33.56,5.12-37.45,15.54-66,11.35-31.13,20.2-37,30.29-67.58a233.57,233.57,0,0,0,10.81-52.42q-4.68-22.56-9.37-45.11Q484.48,551.13,482.28,534.17Z"/></g><g id="Right_Leg" data-name="Right Leg"><path class="cls-3" d="M509.06,825.24l32.42-30.47c4.83-2.42,38.79-18.76,75.87-2.6,28.75,12.55,41.24,36.73,44.42,43.42l-37.5-3.76a83.83,83.83,0,0,0-24.45-16.3c-3-1.3-31.38-13.21-55.93-3.89-3.09,1.18-7.74,3.3-19.27,7.77C518,822,512.54,824,509.06,825.24Z"/><path class="cls-3" d="M527.22,919.26c137.46,1.51,274.92-.86,412.38.65,6.51-2.84,10.64-9.12,10.37-15.56-.33-8.1-7.55-15.27-16.85-15.56l-170.6-21.48a349.92,349.92,0,0,0-140.64-35.58,77.81,77.81,0,0,0-97.26-12.32c-1.87.47-30.11,8-37.6,31.77C479.57,874.8,495.36,908.22,527.22,919.26Z"/><path class="cls-3" d="M538.17,780.41l.86,16.66Z"/></g><g id="Torso"><path id="Neck_Left" data-name="Neck Left" class="cls-3" d="M578.21,425.72c.11,9.17.55,19,1.48,29.39.78,8.79,1.83,17.11,3,24.92Z"/><path id="Neck_Right" data-name="Neck Right" class="cls-3" d="M673.38,423.55q-1.05,43.14-.92,43.15C672.52,466.7,673.27,432.7,673.38,423.55Z"/><path class="cls-3" d="M557.09,354.54c-11,0-19.81-14.79-19.81-33.08,0-7.47,8.86-13.53,19.81-13.53v6c0,7.48-8.86,13.53-19.81,13.53"/><path id="Lips" class="cls-3" d="M588.9,393.28c7.66,9.81,19.71,19.62,38.48,19.62"/><path class="cls-3" d="M694.9,351c11,0,19.81-14.79,19.81-33.07,0-7.48-8.86-13.53-19.81-13.53v6c0,7.48,8.86,13.53,19.81,13.53"/><path id="Hairline" class="cls-3" d="M694.4,287a84.36,84.36,0,0,1-11.4,4.65c-3.36,1.94-6.72,3.23-10.06,1.84-11.16-7-23.77-9.28-36-5.9a44.84,44.84,0,0,0-9.05,3.61c-3,1.58-5.88,4.21-8.72,5.85-2.05,2.79-3.84,5.64-6.4,3.78-1.54,2.62-4.19.52-6.65-1.1-1.78.34-4.22-1.28-6.49-2.67s-4.62-3.09-6.89-4.57c-4.55-2.94-9.21-5.86-14-7.07-1.63-.78-3.31-1.3-5.23-.11a59.51,59.51,0,0,0-5.62,4.75,46.88,46.88,0,0,0-10.8,18.79"/><path id="Face_Outline" data-name="Face Outline" class="cls-3" d="M625.87,442.74h0A69,69,0,0,1,557.09,374V292.75c0-3.31-.2-6.8.7-9.75,0-3.37-1.28-7.07,2-9.36-2.34-2.83-3.32-5.19.8-6.8-3.38-2.41.22-4.29,1.6-6.29a10.87,10.87,0,0,1,.34-6.83c.59-2,1.94-3.53,5-4.26-1-2.33-.2-5.12,2-5.28,1.34-2.49,3-5.1,5.72-3.82.64-4.5,3.68-6.31,8.64-5.82,1.34-3.35,6.83-4.57,10-3.92,3.39-2.88,6.58-5.35,10.39-3,2.69-3.9,7.25-6.28,10.67-2,1-3.66,2.71-5.59,6-4,.2-2.79,3.29-.34,4.82,3,1.54-3.55,3.08-5.5,5.18-5.38,1.38-.56,3.62,1.19,5.78,4.41,1.73-6.43,6.82-.05,10.31,2.58,2.92-1.35,6.73.18,10,1.74,3.47,1.36,9.53-.65,9.83,5.21,5.3-2.92,6.15,3.53,9,5.69s8.06,3.88,8.21,7.28c4,1.45,6.11,3.58,4.05,8,3.77.2,2.92,4.27,2.3,6.48,1.76,2.22,3.59,4.49,1.53,6.92,2.91,2,3.15,4.21,1.12,7,2.6,1.65,1.38,4.41.72,7.07,1.42,3.19.91,7.33.91,11.11v40.61c-1.24,18.05,1.09,34.37-.91,51.72a66.53,66.53,0,0,1-2.62,10.56A69,69,0,0,1,625.87,442.74Z"/><path id="Shirt" class="cls-4" d="M762.74,735.68a174.16,174.16,0,0,1-35.54,18c-29.22,10.77-53.72,10.66-65.37,10.83-26.69.39-66.42,3.4-123.88,15a478.75,478.75,0,0,0-7.59-52.27,489.13,489.13,0,0,0-23.64-80.2c-11.41-30.52-24.08-78.94-27.56-155.7a332.41,332.41,0,0,1,43.37-11.76c20.13-4,35.92-6,54.6-2,29.37,6.29,32.75,21.81,51.51,19.86,19-2,22.8-18.71,43.54-29.42,14.11-7.29,36-7.24,71.92,0a2.17,2.17,0,0,1,1.61,2.87,125.81,125.81,0,0,0-7.65,35.36c-.65,9.75,2.05,23.08,6.53,49.29,1.12,6.48,2,9.68,2.67,15.06,3.12,25.25,6,45.39,7.44,63.65C756.87,661.72,759.63,695.6,762.74,735.68Z"/></g><g id="Left_Leg" data-name="Left Leg"><path class="cls-4" d="M752.68,760.67c-14,19.87-26.74,42-21.45,66.45,3.83,17.68,15.65,29.83,23.69,36.57L842.19,875l39.12-60.2a237.19,237.19,0,0,0,31.25,71,234.69,234.69,0,0,0,27.12,34l121.79.27a5,5,0,0,0,4.9-6.12l-1.45-6.39a11.23,11.23,0,0,0-7.37-8.15,303.57,303.57,0,0,1-59.4-27.21L891.77,619.89C860.28,645.13,795.43,699.9,752.68,760.67Z"/><path class="cls-4" d="M939.68,919.79c-.26-1.44-3.87-24.09,13.27-39.67a43.47,43.47,0,0,1,45.2-7.93"/><line class="cls-3" x1="762.74" y1="735.68" x2="765.24" y2="743.76"/></g><g id="Left_Arm" data-name="Left Arm"><path id="Left_Arm-2" data-name="Left Arm" class="cls-4" d="M856.76,843.53c1.22.56.76,2.87,0,16.09a86.4,86.4,0,0,0,.5,15.5.53.53,0,0,0,0,.18,26.3,26.3,0,0,0,49.21,0,.87.87,0,0,0,0-.22Q913.84,746.57,921.12,618a.68.68,0,0,0-.18-.51A947.81,947.81,0,0,0,747.33,469a.69.69,0,0,0-1,.33c-4.74,12.86-12.41,39-5.71,65.88.28,1.09,4,19.73,4,20.31-.4,20.49,45.14,49.47,45.14,49.47,29.93,19,56.36,34.74,78.46,47.38l-6.9,164.12a.7.7,0,0,1-.28.56l-22.65,16.74a.69.69,0,0,0-.27.38,10,10,0,0,0,2.58,9.82c3.46,3.36,8.38,2.63,8.89,2.55C853.88,845.9,855.27,842.84,856.76,843.53Z"/><path class="cls-4" d="M909.85,816.92a55.33,55.33,0,0,0-48.56,0"/><path id="Button_Slit" data-name="Button Slit" class="cls-4" d="M911.39,761.58l-11.88,12.55Q898.46,792,897.39,810"/></g><g id="Laptop"><line class="cls-5" x1="230.43" y1="744.65" x2="312.47" y2="920.58"/><path class="cls-5" d="M430,910.08h0a9.34,9.34,0,0,1-9.33,9.26c-150.94.11-150.94.11-316.71-.05C97.05,904.47,32.18,762.94,29,753.86c-.38-1.09-1.43-4.12,0-6.35,1-1.62,3.06-2.63,5.78-2.62l202.42.74a11.08,11.08,0,0,1,10,6.4q33.77,72.39,67.52,144.8a6.3,6.3,0,0,0,5.64,3.63l101.15,1A8.5,8.5,0,0,1,430,910.08Z"/><line id="Dynamo_1" data-name="Dynamo 1" class="cls-6" x1="171.25" y1="673.86" x2="177.1" y2="713.75"/><line id="Dynamo_2" data-name="Dynamo 2" class="cls-7" x1="239.26" y1="634.84" x2="221.33" y2="704.67"/><line id="Dynamo_3" data-name="Dynamo 3" class="cls-2" x1="250.5" y1="728.51" x2="283.69" y2="693.81"/><image width="1600" height="1000" transform="translate(129.78 805.54) scale(0.06)" xlink:href="../../PaperPlane Evo16x10.png"/></g><g id="Necktie"><path class="cls-7" d="M617.61,682.35,651.35,710q13.35-16,26.72-32c-20-87.58-20-87.58-36.9-151-.8-3-9.14,2.14-10.31-.72C625.68,581,622.79,627.65,617.61,682.35Z"/><path class="cls-7" d="M598.74,482c2.85-2.85,14.3,12.28,30.45,10.58s24.12-19,27.85-16.63c2.85,1.79-1.66,13.09-10.68,35.7-4.24,10.63-6.16,14.41-9.75,15.19-2.65.59-6.63-.38-18-13.53C616.65,511.09,595,485.83,598.74,482Z"/></g></g></g></g></svg>