<svg xmlns="http://www.w3.org/2000/svg" xmlns:xlink="http://www.w3.org/1999/xlink" viewBox="0 0 434.56 275.08"><defs><style>.cls-1{isolation:isolate;}.cls-2{fill:url(#linear-gradient);}.cls-3{fill:url(#linear-gradient-2);}.cls-4{fill:url(#linear-gradient-3);}.cls-5,.cls-6,.cls-7,.cls-8{mix-blend-mode:screen;}.cls-5{fill:url(#linear-gradient-4);}.cls-6{fill:url(#linear-gradient-5);}.cls-7{fill:url(#linear-gradient-6);}.cls-8{fill:url(#linear-gradient-7);}.cls-9{fill:#527b96;}.cls-10{fill:url(#linear-gradient-8);}.cls-11{fill:url(#linear-gradient-9);}</style><linearGradient id="linear-gradient" x1="136.26" y1="250.77" x2="385.8" y2="81.37" gradientTransform="translate(-8.34 -18.64) rotate(-3.99)" gradientUnits="userSpaceOnUse"><stop offset="0" stop-color="#16df82"/><stop offset="1" stop-color="#00c853"/></linearGradient><linearGradient id="linear-gradient-2" x1="39" y1="-137.75" x2="171.64" y2="-137.75" gradientTransform="translate(109.57 199.95) rotate(25.4)" xlink:href="#linear-gradient"/><linearGradient id="linear-gradient-3" x1="47.16" y1="-132.86" x2="153.7" y2="-132.86" gradientTransform="translate(109.57 199.95) rotate(25.4)" xlink:href="#linear-gradient"/><linearGradient id="linear-gradient-4" x1="105.55" y1="-202.65" x2="171.64" y2="-202.65" gradientTransform="translate(109.57 199.95) rotate(25.4)" xlink:href="#linear-gradient"/><linearGradient id="linear-gradient-5" x1="39" y1="-67.96" x2="95.8" y2="-67.96" gradientTransform="translate(109.57 199.95) rotate(25.4)" xlink:href="#linear-gradient"/><linearGradient id="linear-gradient-6" x1="46.18" y1="-104.05" x2="111.48" y2="-104.05" gradientTransform="translate(109.57 199.95) rotate(25.4)" xlink:href="#linear-gradient"/><linearGradient id="linear-gradient-7" x1="1256.64" y1="764.7" x2="1321.94" y2="764.7" gradientTransform="translate(1125.74 1350.1) rotate(-154.6)" xlink:href="#linear-gradient"/><linearGradient id="linear-gradient-8" x1="29.2" y1="203.54" x2="402.29" y2="76.85" gradientTransform="translate(-8.75 -19.93) rotate(-4.19)" gradientUnits="userSpaceOnUse"><stop offset="0" stop-color="#fff"/><stop offset="1" stop-color="#c9c8c8"/></linearGradient><linearGradient id="linear-gradient-9" x1="238.3" y1="258.64" x2="442.29" y2="52.76" xlink:href="#linear-gradient-8"/></defs><title>Plane Green</title><g class="cls-1"><g id="Layer_2" data-name="Layer 2"><g id="Logo_Evo" data-name="Logo Evo"><path id="Base_Inner" data-name="Base Inner" class="cls-2" d="M151.38,275.08l-33-90.16L434.56,0Z"/><g id="_Group_" data-name="&lt;Group&gt;"><polygon id="_Path_" data-name="&lt;Path&gt;" class="cls-3" points="312.8 132.58 242.58 164.51 236.8 167.14 152.63 200.2 205.51 161.96 244.53 133.75 201.77 113.45 271.99 81.52 374.98 41.19 270.05 112.28 312.8 132.58"/><path id="_Path_2" data-name="&lt;Path&gt;" class="cls-4" d="M311.14,131.79a.85.85,0,0,1,0,1.55L245.92,163h0a.85.85,0,0,1-1-1.32l6.37-7.77A12.32,12.32,0,0,0,247,135l-43.61-20.71a.85.85,0,0,1,0-1.55L268.65,83a.85.85,0,0,1,1,1.31l-6.39,7.77a12.34,12.34,0,0,0,4.24,19Z"/><polygon id="_Path_3" data-name="&lt;Path&gt;" class="cls-5" points="374.98 41.19 268.42 111.5 270.04 112.28 374.98 41.19"/><polygon id="_Path_4" data-name="&lt;Path&gt;" class="cls-6" points="152.63 200.2 246.6 134.74 244.53 133.75 152.63 200.2"/><path id="_Path_5" data-name="&lt;Path&gt;" class="cls-7" d="M252.54,156.65,245.92,163l-3.34,1.52,8.7-10.61A12.32,12.32,0,0,0,247,135l-45.27-21.5,46.83,20.74A13.73,13.73,0,0,1,252.54,156.65Z"/><path id="_Path_6" data-name="&lt;Path&gt;" class="cls-8" d="M262,89.38,268.65,83,272,81.52l-8.7,10.61a12.31,12.31,0,0,0,4.24,19l45.27,21.5L266,111.84A13.72,13.72,0,0,1,262,89.38Z"/></g><path id="Base_Outer" data-name="Base Outer" class="cls-9" d="M430,3.27,151.38,275.08l26.5-73.84Z"/><path id="Left_Wing" data-name="Left Wing" class="cls-10" d="M118.41,184.92,0,156.67,434.56,0Z"/><path id="Right_Wing" data-name="Right Wing" class="cls-11" d="M434.56,0,177.88,201.24l131.39,48.64Q371.93,124.95,434.56,0Z"/></g></g></g></svg>