<svg xmlns="http://www.w3.org/2000/svg" xmlns:xlink="http://www.w3.org/1999/xlink" viewBox="0 0 802.57 160.35"><defs><style>.cls-1{fill:#fff8e7;}.cls-2{fill:url(#linear-gradient);}.cls-3{fill:url(#linear-gradient-2);}.cls-4{fill:url(#linear-gradient-3);}.cls-5{fill:url(#linear-gradient-4);}.cls-6{fill:url(#linear-gradient-5);}.cls-7{fill:url(#linear-gradient-6);}.cls-8{fill:url(#linear-gradient-7);}.cls-9{fill:url(#linear-gradient-8);}.cls-10{fill:url(#linear-gradient-9);}.cls-11{fill:url(#linear-gradient-10);}.cls-12,.cls-13,.cls-14,.cls-15,.cls-16{fill:none;stroke-miterlimit:10;stroke-width:5.14px;}.cls-12{stroke:url(#New_Gradient_Swatch_3);}.cls-13{stroke:url(#New_Gradient_Swatch_3-2);}.cls-14{stroke:url(#New_Gradient_Swatch_3-3);}.cls-15{stroke:url(#New_Gradient_Swatch_3-4);}.cls-16{stroke:url(#New_Gradient_Swatch_3-5);}</style><linearGradient id="linear-gradient" x1="269.57" y1="63.29" x2="326.2" y2="63.29" gradientUnits="userSpaceOnUse"><stop offset="0" stop-color="#69f0ae"/><stop offset="1" stop-color="#16df82"/></linearGradient><linearGradient id="linear-gradient-2" x1="331.53" y1="63.29" x2="346.86" y2="63.29" xlink:href="#linear-gradient"/><linearGradient id="linear-gradient-3" x1="352.85" y1="63.29" x2="407.49" y2="63.29" xlink:href="#linear-gradient"/><linearGradient id="linear-gradient-4" x1="416.15" y1="63.29" x2="469.45" y2="63.29" xlink:href="#linear-gradient"/><linearGradient id="linear-gradient-5" x1="476.11" y1="63.29" x2="529.41" y2="63.29" xlink:href="#linear-gradient"/><linearGradient id="linear-gradient-6" x1="540.74" y1="63.29" x2="590.7" y2="63.29" xlink:href="#linear-gradient"/><linearGradient id="linear-gradient-7" x1="592.7" y1="63.29" x2="646" y2="63.29" xlink:href="#linear-gradient"/><linearGradient id="linear-gradient-8" x1="652.67" y1="63.29" x2="667.99" y2="63.29" xlink:href="#linear-gradient"/><linearGradient id="linear-gradient-9" x1="675.98" y1="63.29" x2="737.95" y2="63.29" xlink:href="#linear-gradient"/><linearGradient id="linear-gradient-10" x1="747.94" y1="63.29" x2="802.57" y2="63.29" xlink:href="#linear-gradient"/><linearGradient id="New_Gradient_Swatch_3" x1="81.56" y1="152.81" x2="116.73" y2="117.64" xlink:href="#linear-gradient"/><linearGradient id="New_Gradient_Swatch_3-2" x1="59.14" y1="155.35" x2="223.81" y2="-9.32" xlink:href="#linear-gradient"/><linearGradient id="New_Gradient_Swatch_3-3" x1="96.25" y1="164.55" x2="200.15" y2="-15.42" xlink:href="#linear-gradient"/><linearGradient id="New_Gradient_Swatch_3-4" x1="71.56" y1="137.15" x2="169.92" y2="-33.22" xlink:href="#linear-gradient"/><linearGradient id="New_Gradient_Swatch_3-5" x1="159.96" y1="136.73" x2="235.87" y2="5.26" xlink:href="#linear-gradient"/></defs><title>TDC Logo WM Long</title><g id="Layer_2" data-name="Layer 2"><g id="Layer_2-2" data-name="Layer 2"><g id="TDC_WordMark_Dark" data-name="TDC WordMark Dark"><g id="The"><path class="cls-1" d="M269.57,0h24l-2.4,5.92h-5.85V26.65h-7.49V5.92H272Z"/><path class="cls-1" d="M296.22,0H303V10.87h10.45V0h6.77V26.65h-6.77V16.42H303V26.65h-6.77Z"/><path class="cls-1" d="M322.87,0h22l-2.38,5.63H329.71v4.73h12.47V16H329.71v5h12.77l2.38,5.63h-22Z"/></g><g id="Disruption"><path class="cls-2" d="M311.08,37.08a27.4,27.4,0,0,1,11.14,10.56,30.26,30.26,0,0,1,4,15.61,30.29,30.29,0,0,1-4,15.65,27.28,27.28,0,0,1-11.36,10.61A36.26,36.26,0,0,1,294,93.27H269.57v-60h25A34.89,34.89,0,0,1,311.08,37.08ZM303,78.48a14.53,14.53,0,0,0,5.42-6.08,19.93,19.93,0,0,0,1.95-9,19,19,0,0,0-2.08-9.06,15.16,15.16,0,0,0-5.72-6.12,15.78,15.78,0,0,0-8.3-2.18h-9.74V80.62H295A15,15,0,0,0,303,78.48Z"/><path class="cls-3" d="M331.53,33.31h15.33v60H331.53Z"/><path class="cls-4" d="M390.06,47.44A30.68,30.68,0,0,0,381,45.7a8.66,8.66,0,0,0-4.55,1,3.34,3.34,0,0,0-1.66,3,4.05,4.05,0,0,0,1.45,3.18A11.06,11.06,0,0,0,379.8,55c1.42.53,3.52,1.2,6.3,2a81.28,81.28,0,0,1,10.26,3.47,17.82,17.82,0,0,1,6.94,5.32,14.5,14.5,0,0,1,2.9,9.38,15.71,15.71,0,0,1-3.15,9.87,19.13,19.13,0,0,1-8.64,6.15,34.47,34.47,0,0,1-12.22,2.06,45.67,45.67,0,0,1-14.78-2.51c-4.91-1.68-11-5.76-14.56-8.68l7.88-10a37.73,37.73,0,0,0,10.69,6.36,29.94,29.94,0,0,0,10.94,2.48,10.48,10.48,0,0,0,5.49-1.24,4,4,0,0,0,2-3.64,4.24,4.24,0,0,0-1.49-3.3,11.1,11.1,0,0,0-3.75-2.11c-1.5-.52-3.62-1.14-6.34-1.85a80.44,80.44,0,0,1-10.13-3.35,17.93,17.93,0,0,1-6.86-5.12q-2.85-3.44-2.85-9.13a15.58,15.58,0,0,1,2.94-9.41,18.65,18.65,0,0,1,8.34-6.24,33.31,33.31,0,0,1,12.56-2.19A46.64,46.64,0,0,1,395,35.09a53.9,53.9,0,0,1,12.45,5.64L400.24,51.9A52.51,52.51,0,0,0,390.06,47.44Z"/><path class="cls-5" d="M451.88,93.27l-8.66-16.59H431.68V93.27H416.15v-60h26.73q11.81,0,18.29,5.52t6.49,15.53A23.79,23.79,0,0,1,465,66a18.87,18.87,0,0,1-7.89,7.66l12.39,19.58Zm-20.2-29.08H443q4.74,0,7.34-2.39c1.72-1.6,2.59-3.91,2.59-6.93a8.64,8.64,0,0,0-2.59-6.72c-1.73-1.56-4.18-2.35-7.34-2.35H431.68Z"/><path class="cls-6" d="M514.75,67.91l1.33-34.6h13.33v34.6c0,13.82-12.51,25.36-26.65,25.36S476.11,82,476.11,67.91V33.31h13.32l.67,34.6c.12,7.1,5.11,12,12.66,12A12.07,12.07,0,0,0,514.75,67.91Z"/><path class="cls-7" d="M584.44,38.83q6.27,5.52,6.26,15.53,0,10.61-6.26,16.46t-17.62,5.86l-10.76-.06V93.27H540.74v-60h26.08Q578.17,33.31,584.44,38.83Zm-11.06,23a9.56,9.56,0,0,0,2.67-7.17,8.13,8.13,0,0,0-2.67-6.48c-1.72-1.56-4.17-2.35-7.33-2.35l-10,.17V64h10C569.21,64,571.66,63.39,573.38,61.8Z"/><path class="cls-8" d="M592.7,33.31H646l-5.33,13.33h-13V93.27H611V46.64H598Z"/><path class="cls-9" d="M652.67,33.31H668v60H652.67Z"/><path class="cls-10" d="M722.78,37.2A28.89,28.89,0,0,1,738,63.09a29.7,29.7,0,0,1-4.05,15.38,29.31,29.31,0,0,1-11.12,10.84,33.71,33.71,0,0,1-31.63,0A28.89,28.89,0,0,1,680,78.51a29.89,29.89,0,0,1-4-15.42A28.89,28.89,0,0,1,691.15,37.2a34.09,34.09,0,0,1,31.63,0ZM699.24,48.37a15.84,15.84,0,0,0-5.76,6.16,18.62,18.62,0,0,0,0,17.37,16.79,16.79,0,0,0,5.76,6.2,14.36,14.36,0,0,0,7.85,2.27,14.21,14.21,0,0,0,7.81-2.27,16,16,0,0,0,5.59-6.2,18.55,18.55,0,0,0,2.05-8.73,18.36,18.36,0,0,0-2.05-8.64,15.51,15.51,0,0,0-5.59-6.16,14.43,14.43,0,0,0-7.81-2.24A14.77,14.77,0,0,0,699.24,48.37Z"/><path class="cls-11" d="M788.26,33.31h14.31v60H789.1L762.33,57.43V93.27H747.94v-60h13.55l26.86,36.1Z"/></g><g id="Challenge."><path class="cls-1" d="M308.62,114.87a16.07,16.07,0,0,0-7.71-2.11,15.1,15.1,0,0,0-8,2.19,15.45,15.45,0,0,0-5.68,6,18.73,18.73,0,0,0,0,17.12,15.49,15.49,0,0,0,5.68,6,15,15,0,0,0,8,2.2,17.7,17.7,0,0,0,7.46-1.82,23.6,23.6,0,0,0,7-5l8.87,9.52A35.43,35.43,0,0,1,313,157a31.24,31.24,0,0,1-28.48-1,29.09,29.09,0,0,1-10.94-10.83,30.17,30.17,0,0,1-4-15.39,28.88,28.88,0,0,1,15.21-25.89,32.5,32.5,0,0,1,15.88-3.88,32.15,32.15,0,0,1,12.77,2.69A31.58,31.58,0,0,1,324.12,110l-8.79,10.58A21.53,21.53,0,0,0,308.62,114.87Z"/><path class="cls-1" d="M331.53,99.94h15.41V124.4h23.82V99.94h15.41v60H370.76v-23H346.94v23H331.53Z"/><path class="cls-1" d="M440.36,159.9l-4-10.61H410.79l-4.12,10.61H390.83l25.36-60H432l24.77,60Zm-24.93-22.58h16.34l-8.09-21.39Z"/><path class="cls-1" d="M462.12,99.94h14.66v46.64h22.65l2.66,13.32h-40Z"/><path class="cls-1" d="M508.76,99.94h14.65v46.64h22.66l2.66,13.32h-40Z"/><path class="cls-1" d="M556.06,99.94h49.3L600,112.6H571.38v10.66h28v12.66h-28v11.32H600l5.33,12.66h-49.3Z"/><path class="cls-1" d="M653,99.94h14.31v60H653.85l-26.76-35.84V159.9h-14.4v-60h13.55L653.1,136Z"/><path class="cls-1" d="M716.52,129.22H729.3v23.07a37.33,37.33,0,0,1-11.13,5.5,40.9,40.9,0,0,1-12.5,2.11,30.82,30.82,0,0,1-15.5-3.93,28.78,28.78,0,0,1-10.89-10.79,30.26,30.26,0,0,1-4-15.39,29,29,0,0,1,15.34-26,32.94,32.94,0,0,1,16-3.88,35.92,35.92,0,0,1,12.63,2.35A32.88,32.88,0,0,1,730,108.62l-8.42,10.59a23.52,23.52,0,0,0-7.08-4.72,19.85,19.85,0,0,0-7.89-1.73,15.28,15.28,0,0,0-8.17,2.23,15.91,15.91,0,0,0-5.75,6.12,18,18,0,0,0-2.11,8.68,18.38,18.38,0,0,0,2.11,8.81,15.52,15.52,0,0,0,5.83,6.16,15.72,15.72,0,0,0,8.25,2.24,22.14,22.14,0,0,0,9.8-2.81Z"/><path class="cls-1" d="M738.61,99.94h49.3l-5.33,12.66H753.94v10.66h28v12.66h-28v11.32h28.64l5.33,12.66h-49.3Z"/><path class="cls-1" d="M800.7,148.42a6.43,6.43,0,0,1,1.87,4.78,6.44,6.44,0,0,1-6.7,6.7,6.39,6.39,0,0,1-4.75-1.89,7.14,7.14,0,0,1,0-9.59,6.45,6.45,0,0,1,4.79-1.84A6.58,6.58,0,0,1,800.7,148.42Z"/></g></g><g id="Plane"><g id="Out"><path id="Underbody" class="cls-12" d="M89.9,157.51l29.19-33.69a.14.14,0,0,0,0-.23l-14.43-5.33a1.87,1.87,0,0,0-2.43,1.19S89.66,157.78,89.9,157.51Z"/><path id="Wing_Base" data-name="Wing Base" class="cls-13" d="M3.78,96l69.54,12.36a1.45,1.45,0,0,1,1.13,1s14.66,48.4,15.21,48.4S102.32,119,102.32,119a1.43,1.43,0,0,1,1.79-1l.06,0,79.62,29.43a1.43,1.43,0,0,0,1.83-.83l53.9-136a.72.72,0,0,0-.39-.95.74.74,0,0,0-.51,0L3.56,93.14A1.49,1.49,0,0,0,3.78,96Z"/></g><g id="In"><path id="Body" class="cls-14" d="M74.51,109.59a1.55,1.55,0,0,1,.65-1.66L238.66,10a.37.37,0,0,1,.4.61L103.13,117.3a1.82,1.82,0,0,0-.49.7s-12.78,39.78-13,39.78S74.51,109.59,74.51,109.59Z"/><path id="Semi-Wing-Left_Upper" data-name="Semi-Wing-Left Upper" class="cls-15" d="M155.53,59.84,238.48,10c.9-.53.59-.51-.41-.15L3.28,93.2c-.37.14-1,1.26-.58,1.17Z"/><path id="Semi-Wing-Right_Upper" data-name="Semi-Wing-Right Upper" class="cls-16" d="M169.73,65.48a.72.72,0,0,1,.27-.71l69.41-54.42a.13.13,0,0,1,.2.11L185.25,147.63c-.14.34-1.16.29-1.23-.08Z"/></g></g></g></g></svg>