<svg xmlns="http://www.w3.org/2000/svg" xmlns:xlink="http://www.w3.org/1999/xlink" viewBox="0 0 292.66 264.88"><defs><style>.cls-1,.cls-2,.cls-3,.cls-4,.cls-5{fill:none;stroke-miterlimit:10;stroke-width:4.56px;}.cls-1{stroke:url(#New_Gradient_Swatch_3);}.cls-2{stroke:url(#New_Gradient_Swatch_3-2);}.cls-3{stroke:url(#New_Gradient_Swatch_3-3);}.cls-4{stroke:url(#New_Gradient_Swatch_3-4);}.cls-5{stroke:url(#New_Gradient_Swatch_3-5);}.cls-6{fill:#041620;}.cls-7{fill:url(#linear-gradient);}.cls-8{fill:url(#linear-gradient-2);}.cls-9{fill:url(#linear-gradient-3);}.cls-10{fill:url(#linear-gradient-4);}.cls-11{fill:url(#linear-gradient-5);}.cls-12{fill:url(#linear-gradient-6);}.cls-13{fill:url(#linear-gradient-7);}.cls-14{fill:url(#linear-gradient-8);}.cls-15{fill:url(#linear-gradient-9);}.cls-16{fill:url(#linear-gradient-10);}</style><linearGradient id="New_Gradient_Swatch_3" x1="98.88" y1="175.7" x2="140.43" y2="134.15" gradientUnits="userSpaceOnUse"><stop offset="0" stop-color="#69f0ae"/><stop offset="1" stop-color="#16df82"/></linearGradient><linearGradient id="New_Gradient_Swatch_3-2" x1="71.63" y1="178.8" x2="270.58" y2="-20.15" xlink:href="#New_Gradient_Swatch_3"/><linearGradient id="New_Gradient_Swatch_3-3" x1="116.56" y1="189.84" x2="242" y2="-27.43" xlink:href="#New_Gradient_Swatch_3"/><linearGradient id="New_Gradient_Swatch_3-4" x1="86.55" y1="156.53" x2="205.25" y2="-49.06" xlink:href="#New_Gradient_Swatch_3"/><linearGradient id="New_Gradient_Swatch_3-5" x1="194" y1="156.03" x2="285.41" y2="-2.3" xlink:href="#New_Gradient_Swatch_3"/><linearGradient id="linear-gradient" x1="21.11" y1="197.49" x2="2.34" y2="230" xlink:href="#New_Gradient_Swatch_3"/><linearGradient id="linear-gradient-2" x1="46.06" y1="198.71" x2="29.96" y2="226.61" xlink:href="#New_Gradient_Swatch_3"/><linearGradient id="linear-gradient-3" x1="70" y1="197.61" x2="52.72" y2="227.54" xlink:href="#New_Gradient_Swatch_3"/><linearGradient id="linear-gradient-4" x1="102.3" y1="198.3" x2="83.39" y2="231.05" xlink:href="#New_Gradient_Swatch_3"/><linearGradient id="linear-gradient-5" x1="134.8" y1="192.98" x2="116.19" y2="225.22" xlink:href="#New_Gradient_Swatch_3"/><linearGradient id="linear-gradient-6" x1="165.1" y1="196.05" x2="146.35" y2="228.52" xlink:href="#New_Gradient_Swatch_3"/><linearGradient id="linear-gradient-7" x1="196.35" y1="192.13" x2="177.59" y2="224.62" xlink:href="#New_Gradient_Swatch_3"/><linearGradient id="linear-gradient-8" x1="219.64" y1="198.71" x2="203.54" y2="226.61" xlink:href="#New_Gradient_Swatch_3"/><linearGradient id="linear-gradient-9" x1="245.02" y1="198.36" x2="228.53" y2="226.91" xlink:href="#New_Gradient_Swatch_3"/><linearGradient id="linear-gradient-10" x1="284.42" y1="194.11" x2="263" y2="231.21" xlink:href="#New_Gradient_Swatch_3"/></defs><title>Logo WM Trans Light</title><g id="Layer_2" data-name="Layer 2"><g id="Layer_2-2" data-name="Layer 2"><g id="Plane"><g id="Out"><path id="Underbody" class="cls-1" d="M108.42,182l35.48-40.94a.18.18,0,0,0-.07-.28l-17.53-6.48a2.27,2.27,0,0,0-3,1.44S108.13,182.34,108.42,182Z"/><path id="Wing_Base" data-name="Wing Base" class="cls-2" d="M3.75,107.24l84.52,15a1.74,1.74,0,0,1,1.37,1.24s17.82,58.83,18.49,58.83c.51,0,15.38-47.1,15.38-47.1a1.74,1.74,0,0,1,2.18-1.15l.07,0,96.78,35.77a1.75,1.75,0,0,0,2.22-1L290.27,3.54a.88.88,0,0,0-.48-1.16.91.91,0,0,0-.61,0L3.48,103.78A1.8,1.8,0,0,0,3.75,107.24Z"/></g><g id="In"><path id="Body" class="cls-3" d="M89.72,123.77a1.89,1.89,0,0,1,.78-2l198.73-119a.45.45,0,0,1,.49.74L124.5,133.14a2.08,2.08,0,0,0-.59.85s-15.54,48.35-15.78,48.35S89.72,123.77,89.72,123.77Z"/><path id="Semi-Wing-Left_Upper" data-name="Semi-Wing-Left Upper" class="cls-4" d="M188.19,63.3,289,2.78c1.09-.65.73-.62-.49-.19L3.14,103.86c-.45.16-1.18,1.53-.71,1.42Z"/><path id="Semi-Wing-Right_Upper" data-name="Semi-Wing-Right Upper" class="cls-5" d="M205.44,70.16a.92.92,0,0,1,.33-.87L290.13,3.15a.17.17,0,0,1,.25.14L224.31,170c-.17.42-1.41.36-1.49-.08Z"/></g></g><g id="TDC_WordMark_Light" data-name="TDC WordMark Light"><g id="The"><path class="cls-6" d="M.38,178.45h13l-1.29,3.2H8.89v11.21H4.83V181.65H1.67Z"/><path class="cls-6" d="M14.78,178.45h3.66v5.88h5.65v-5.88h3.66v14.41H24.09v-5.53H18.44v5.53H14.78Z"/><path class="cls-6" d="M29.19,178.45H41.07l-1.28,3H32.88v2.56h6.75v3H32.88v2.72h6.91l1.28,3.05H29.19Z"/></g><g id="Disruption"><path class="cls-7" d="M22.81,198.49a14.89,14.89,0,0,1,6,5.71,17.57,17.57,0,0,1,0,16.9,14.7,14.7,0,0,1-6.13,5.73,19.63,19.63,0,0,1-9.09,2H.38V196.46H13.91A18.81,18.81,0,0,1,22.81,198.49Zm-4.37,22.38a7.86,7.86,0,0,0,2.93-3.28,10.85,10.85,0,0,0,1.05-4.86,10.32,10.32,0,0,0-1.12-4.9,8.3,8.3,0,0,0-3.09-3.31,8.62,8.62,0,0,0-4.49-1.17H8.46V222h5.67A8.05,8.05,0,0,0,18.44,220.87Z"/><path class="cls-8" d="M33.87,196.46h8.28v32.41H33.87Z"/><path class="cls-9" d="M65.51,204.09a16.87,16.87,0,0,0-4.91-.94,4.67,4.67,0,0,0-2.46.56,1.81,1.81,0,0,0-.9,1.63,2.21,2.21,0,0,0,.79,1.72A6.13,6.13,0,0,0,60,208.18c.77.28,1.9.64,3.41,1.09a45.32,45.32,0,0,1,5.54,1.87A9.71,9.71,0,0,1,72.66,214a7.82,7.82,0,0,1,1.57,5.07,8.49,8.49,0,0,1-1.71,5.34,10.26,10.26,0,0,1-4.67,3.32,18.73,18.73,0,0,1-6.6,1.12,24.8,24.8,0,0,1-8-1.36,30,30,0,0,1-7.87-4.69l4.26-5.43a20.36,20.36,0,0,0,5.78,3.44,16.19,16.19,0,0,0,5.91,1.34,5.58,5.58,0,0,0,3-.67,2.17,2.17,0,0,0,1.08-2,2.31,2.31,0,0,0-.8-1.79,6.29,6.29,0,0,0-2-1.14c-.81-.28-2-.61-3.43-1a43.67,43.67,0,0,1-5.47-1.81A9.59,9.59,0,0,1,50,211a7.44,7.44,0,0,1-1.54-4.93A8.42,8.42,0,0,1,50,201a10,10,0,0,1,4.51-3.37,18,18,0,0,1,6.79-1.18,25.31,25.31,0,0,1,6.9,1,29.21,29.21,0,0,1,6.72,3l-3.91,6A29.47,29.47,0,0,0,65.51,204.09Z"/><path class="cls-10" d="M98.92,228.87l-4.68-9H88v9H79.61V196.46H94.06q6.38,0,9.88,3a10.4,10.4,0,0,1,3.51,8.39,12.82,12.82,0,0,1-1.47,6.31,10.25,10.25,0,0,1-4.26,4.14l6.7,10.59ZM88,213.15h6.1a5.6,5.6,0,0,0,4-1.3,4.85,4.85,0,0,0,1.4-3.74,4.67,4.67,0,0,0-1.4-3.63,5.69,5.69,0,0,0-4-1.27H88Z"/><path class="cls-11" d="M132.9,215.16l.72-18.7h7.21v18.7c0,7.47-6.77,13.71-14.41,13.71S112,222.78,112,215.16v-18.7h7.2l.36,18.7c.06,3.84,2.76,6.5,6.84,6.5A6.51,6.51,0,0,0,132.9,215.16Z"/><path class="cls-12" d="M170.57,199.44c2.26,2,3.39,4.78,3.39,8.39q0,5.73-3.39,8.9t-9.52,3.17l-5.82,0v9H147V196.46h14.1Q167.18,196.46,170.57,199.44Zm-6,12.41A5.17,5.17,0,0,0,166,208a4.41,4.41,0,0,0-1.44-3.5,5.69,5.69,0,0,0-4-1.27l-5.4.09V213h5.4A5.57,5.57,0,0,0,164.6,211.85Z"/><path class="cls-13" d="M175,196.46h28.81l-2.88,7.2h-7v25.21h-9V203.66h-7Z"/><path class="cls-14" d="M207.45,196.46h8.28v32.41h-8.28Z"/><path class="cls-15" d="M245.35,198.56a15.6,15.6,0,0,1,8.2,14,16.08,16.08,0,0,1-2.19,8.32,15.86,15.86,0,0,1-6,5.85,18.15,18.15,0,0,1-17.1,0,15.57,15.57,0,0,1-6-5.85,16.18,16.18,0,0,1-2.19-8.34,15.6,15.6,0,0,1,8.2-14,18.46,18.46,0,0,1,17.1,0Zm-12.73,6a8.68,8.68,0,0,0-3.11,3.33,10.08,10.08,0,0,0,0,9.39,9,9,0,0,0,3.12,3.35,7.76,7.76,0,0,0,4.24,1.23,7.67,7.67,0,0,0,4.22-1.23,8.52,8.52,0,0,0,3-3.35,10.48,10.48,0,0,0,0-9.39,8.46,8.46,0,0,0-3-3.33,7.81,7.81,0,0,0-4.22-1.2A8.06,8.06,0,0,0,232.62,204.59Z"/><path class="cls-16" d="M280.74,196.46h7.74v32.41H281.2l-14.47-19.38v19.38H259V196.46h7.32L280.79,216Z"/></g><g id="Challenge."><path class="cls-6" d="M21.48,240.54a8.68,8.68,0,0,0-4.16-1.14A8.16,8.16,0,0,0,13,240.58a8.41,8.41,0,0,0-3.07,3.27,10.11,10.11,0,0,0,0,9.25A8.39,8.39,0,0,0,13,256.36a8.17,8.17,0,0,0,4.33,1.19,9.47,9.47,0,0,0,4-1,12.51,12.51,0,0,0,3.76-2.68l4.8,5.14a19,19,0,0,1-6.07,4.27,16.88,16.88,0,0,1-15.4-.56,15.66,15.66,0,0,1-5.91-5.85,16.35,16.35,0,0,1-2.15-8.32,15.6,15.6,0,0,1,8.22-14,17.58,17.58,0,0,1,8.58-2.1,17.41,17.41,0,0,1,6.9,1.45,17.09,17.09,0,0,1,5.78,4l-4.75,5.72A11.59,11.59,0,0,0,21.48,240.54Z"/><path class="cls-6" d="M33.87,232.47H42.2v13.22H55.07V232.47H63.4v32.41H55.07V252.44H42.2v12.44H33.87Z"/><path class="cls-6" d="M92.69,264.88l-2.18-5.73H76.71l-2.23,5.73H65.92l13.71-32.41h8.56l13.38,32.41ZM79.22,252.67h8.83l-4.37-11.56Z"/><path class="cls-6" d="M104.45,232.47h7.93v25.21h12.24l1.44,7.2H104.45Z"/><path class="cls-6" d="M129.66,232.47h7.93v25.21h12.24l1.44,7.2H129.66Z"/><path class="cls-6" d="M155.23,232.47h26.65L179,239.31H163.51v5.76h15.13v6.85H163.51V258H179l2.88,6.84H155.23Z"/><path class="cls-6" d="M207.64,232.47h7.73v32.41h-7.28l-14.47-19.37v19.37h-7.78V232.47h7.33L207.68,252Z"/><path class="cls-6" d="M242,248.29h6.91v12.48a20.2,20.2,0,0,1-6,3,22.23,22.23,0,0,1-6.76,1.14,16.75,16.75,0,0,1-8.38-2.12,15.55,15.55,0,0,1-5.88-5.84,16.28,16.28,0,0,1-2.15-8.31,15.65,15.65,0,0,1,8.29-14,17.87,17.87,0,0,1,8.64-2.1,19.4,19.4,0,0,1,6.83,1.27,17.66,17.66,0,0,1,5.77,3.42l-4.55,5.72a12.57,12.57,0,0,0-3.82-2.54,10.64,10.64,0,0,0-4.27-.94,8.33,8.33,0,0,0-4.42,1.2,8.59,8.59,0,0,0-3.1,3.31,9.7,9.7,0,0,0-1.14,4.7,9.91,9.91,0,0,0,1.14,4.76,8.42,8.42,0,0,0,3.15,3.33,8.53,8.53,0,0,0,4.46,1.21,11.94,11.94,0,0,0,5.29-1.52Z"/><path class="cls-6" d="M253.91,232.47h26.64l-2.88,6.84H262.19v5.76h15.12v6.85H262.19V258h15.48l2.88,6.84H253.91Z"/><path class="cls-6" d="M287.47,258.68a3.47,3.47,0,0,1,1,2.58,3.48,3.48,0,0,1-3.62,3.62,3.46,3.46,0,0,1-2.57-1,3.53,3.53,0,0,1-1-2.6,3.43,3.43,0,0,1,3.59-3.58A3.56,3.56,0,0,1,287.47,258.68Z"/></g></g></g></g></svg>