<svg xmlns="http://www.w3.org/2000/svg" viewBox="0 0 1100 1000"><defs><style>.cls-1,.cls-6,.cls-7{fill:#FFFFFF00;}.cls-2,.cls-3,.cls-5{fill:none;}.cls-2{stroke:#f9cadf;stroke-linecap:round;}.cls-2,.cls-3,.cls-4,.cls-5,.cls-6,.cls-7{stroke-miterlimit:10;}.cls-2,.cls-3,.cls-4,.cls-7{stroke-width:4px;}.cls-3,.cls-4{stroke:#3ff1ff;}.cls-4{fill:#273648;}.cls-5,.cls-6{stroke:#8eacd8;stroke-width:5.18px;}.cls-7{stroke:#8aefbf;}</style></defs><title>Learn 2308 Electric</title><g id="Layer_2" data-name="Layer 2"><g id="Learn"><g id="Char_1_Learn_c_Electric" data-name="Char 1 | Learn c Electric"><rect class="cls-1" width="1100" height="1000"/><g id="BeanBag"><path id="BeanBag-2" data-name="BeanBag" class="cls-2" d="M382.71,502c-85.5-6.1-142,99.63-145.25,171.21C234,749.67,306.35,803.39,363.24,843.87,482.41,928.66,649,962.58,792,928.76c30.65-7.25,60-20.81,90-30.47,82.57-26.6,162.1-36.58,182.42-134.13,16.25-78.06,24.5-180-28.21-247.6-55.34-71-176.78-59-257.34-62.95-64.07-3.1-131.4-6.43-194.78,6.09-15.5,3.06-29.34,8.13-43.84,14.08C488.92,494.8,438.55,506,382.71,502Z"/><path class="cls-2" d="M454.49,763.27c27.12-26.58,58.12-35.07,95.43-32.62,29,1.9,54.43,13.42,81.9-3.38"/></g><g id="Legs"><g id="Right_Show" data-name="Right Show"><path class="cls-3" d="M370,886.6c6.22,11,16.59,20.07,8.67,31.63-7.55,11-24.16,6.41-34.87,7-12.57.73-17.84,2.57-28.88,7-23.51,9.39-51.13,16.85-76.58,12.56-5.16-.87-28.64-4-25.78-14.2.47-1.69,5.23-1.89,6.29-3.42,10.71-15.41,43.65-20.45,58.51-33,12-10.14,12.51-19.12,26.18-19.49,12.46-.34,25.94,7.05,39.46,6.54C356.9,880.66,365.45,871.71,370,886.6Z"/><path class="cls-3" d="M383.15,909.93c-57.32-.27-109.12,36.34-166.06,18.22"/></g><path id="Right" class="cls-4" d="M290.49,871.93c15.1,3.16,34.39,6.73,54,9.05,5.07.6,13.24,1.45,17.7-3.35,2.22-2.39,2.12-6.8,2.51-15.41,1.93-42.56,10.29-75.52,22.78-116.71,10.89-35.92,17.78-96.87,46.9-118.47,35.92-26.65,80.45-45.87,119.35-68-51.78-8.47-111.06-22.49-163.58-17.79-12.19,1.09-21.56,4.56-29,9.79-20.42,14.42-26.6,38.46-31.29,59.74-25.31,114.91-23.51,103-24.67,112.49C300.27,763.9,294.92,814,290.49,871.93Z"/><g id="Left_Shoe" data-name="Left Shoe"><path class="cls-4" d="M38.57,905.37c2-8.45,55-6.88,62.91-7.91a148.35,148.35,0,0,0,42.77-12c16.75-7.71,24.36-7.4,37,5.56,10,10.25,24,14.78,36.75,20.8,9.07,4.3,10.18,5.31,7.86,15-3.22,13.55-4.09,36.2-22,31.84-18.78-4.55-33.32-10.16-53.24-9.7-26.64.61-52.85-2.8-78-11.77C55.35,931.15,33.43,926.76,38.57,905.37Z"/><path class="cls-3" d="M38.51,905.61A152.88,152.88,0,0,0,68,919.27c14.1,4.78,23.62,5.68,71.84,10.79,26.56,2.82,31.46,3.37,40,5.21a236.24,236.24,0,0,1,39.53,12.22"/></g><path id="Left" class="cls-4" d="M465.88,599.93l-57.39-4.19a60.55,60.55,0,0,0-47.88,23.19c-26.13,40-55,82.43-86.79,127-29.14,40.85-53.36,73.08-74.39,84.91a107.1,107.1,0,0,0-27.61,21.76,105.35,105.35,0,0,0-13.33,18.33A140.92,140.92,0,0,0,227.14,915a4.38,4.38,0,0,0,5-2.09c21.06-37.4,44-61.91,61.66-77.66,38.17-34.12,68-42.14,108.67-84a327.58,327.58,0,0,0,40-50.34q-3.17-15.49-6.34-31l11.67,28.34a179.08,179.08,0,0,0,55.33,15.66c20.51,2.27,34.14,0,66,3.34,12,1.27,21.74,2.84,28.3,4a128,128,0,0,0,34.37-14.67c20-12.3,26.9-24.45,40.67-38.67,0,0,30.5-31.51,72.66-46,42.71-14.67,78.16-4.19,78.67-7.33.44-2.74-26.54-10.89-141.67-34l-72.33-14.19Z"/></g><g id="Face-2" data-name="Face"><path id="Smile" class="cls-5" d="M756,247.64c2.06.27,17.63,2.07,25.35-7.8a18,18,0,0,0,2.75-5"/><path id="Hair" class="cls-6" d="M826.24,218.93c27.23-35.51,34.14-75.75,17.45-99-10.1-14-27-19.27-39.1-23C794.06,93.66,763,84,732.88,99.54c-40.17,20.74-52.9,73.19-45.64,78.39,3.22,2.31,9.17-4.43,24.25-13,6.18-3.51,64.22-36.5,94.75-16.25C832,165.75,826.92,213.14,826.24,218.93Z"/><path id="Outline" class="cls-5" d="M761.69,143.86c-10.79,2.14-20.17,6.42-31.84,11.76-7.68,3.51-13.93,6.83-18.36,9.31a78.07,78.07,0,0,1,13.5,28.5c3.62,15.1.85,23.82,1.75,40.5a117.86,117.86,0,0,0,7.46,35,12,12,0,0,0,8.58,7.49c12.92,3,42.83,6.88,64.71-13,11.08-10.05,15.72-22.23,17.75-29.5V190.68a60.74,60.74,0,0,0-24.19-44.82C783.32,140.91,769.67,142.29,761.69,143.86Z"/><path id="Ear" class="cls-6" d="M826.24,187.68c9-2.05,11.64.23,12.48,1.23,3.77,4.48-1.24,16.32-12.48,30"/></g><g id="Laptop"><path id="Base" class="cls-7" d="M437.94,567.75l103.59,77.84a5.79,5.79,0,0,0,4,1.13L669.9,634.78a4.31,4.31,0,0,0,1.94-7.9h0L547.36,545.77a5.48,5.48,0,0,0-4.06-.78L438.35,566A1,1,0,0,0,437.94,567.75Z"/><path class="cls-7" d="M545,638.27l3.26,7.43"/><path id="Container" class="cls-7" d="M669.9,634.78c0-.46-6.84-.5-22.27.29-22.14,1.14-54.69,1.2-98.48,4.49a6,6,0,0,1-6.24-4.39c-12.41-44.6-24.83-87.46-37.24-132.19a4.06,4.06,0,0,0-1.81-2.37L398.75,437.54a.46.46,0,0,0-.68.53l37.21,125.4a9.25,9.25,0,0,0,3.32,4.77l101.71,76.43a6,6,0,0,0,3.85,1.2c17.44-.7,41-2,68.83-4.44C636.87,639.32,670,635.8,669.9,634.78Z"/></g><g id="Torso"><path id="Torso_Base" data-name="Torso Base" class="cls-4" d="M745.59,329.67a83.54,83.54,0,0,0-62.1,31.26c-6,28.26-11.33,52.19-15.5,70.5-8.73,38.29-12,50.44-16.84,64.5a386.75,386.75,0,0,1-21,49.58c27.46,52.18,62.88,83.3,81.17,82.6a126.53,126.53,0,0,0,33.81-6.18c4-1.43,6.23-2.51,11.13-3.93,13.71-4,23.61-3.35,27-3.72,9.35-1,21.77-14.81,34.61-72.57a146.3,146.3,0,0,0,16.57-32.78c12-33.67,8.62-63.82,5.5-80a267.47,267.47,0,0,1-26.18-28.28c-21.11-26.42-26.44-43.53-48.18-59.46A104.42,104.42,0,0,0,745.59,329.67Z"/><path id="Right_Hand" data-name="Right  Hand" class="cls-5" d="M455.15,271.17a75.72,75.72,0,0,1,30,14.76,73.19,73.19,0,0,1,8.34,8q24.4,42.84,48.83,85.67a39.49,39.49,0,0,1-28.06,17.5L485.1,349.23l-48.61-13.3c-11.68-6.16-21.45-12-29.17-16.93-2.67-1.7-12.13-7.83-15.5-15.07a25.35,25.35,0,0,1-2.32-12.36c0-.34.09-.64.1-.7.07-.5.21-7.95,3.89-9.44,7.62-3.08,46.75,8.86,68.47,14.46,1.47.38,5.11,1.29,5.86,0,1.82-3-14.43-16.69-14.83-17.09l-.86-5.63Z"/><path id="Sitting_Curve" data-name="Sitting Curve" class="cls-2" d="M520.49,719.43c11.84.57,27.88,1.28,47,2,20.84.79,24.38.79,30-.16,21.92-3.76,37.1-15.88,46.68-23.46,13.29-10.53,16.86-17.4,26.89-28.26,24-26,53.9-41,74.13-47.62,42.25-13.82,77.82-2.54,78.67-7.33.43-2.45-8.49-7.39-46.83-18.17"/><path id="Hand_Left" data-name="Hand Left" class="cls-6" d="M697.32,551.74c-32,4.63-62.44-8.39-94.33-9.31-18.12-.51-35.36,4.59-49.22,16.57-5.4,4.66-8.45,6.62-6.69,13.48s11.17,14,18.39,14.23c8.76.31,18.09-5.44,27.06-6.32,13.37-1.31,27,3.14,40.14,5a60.07,60.07,0,0,0,12.43.64c10.77-.71,16.3-2.45,26.92.46,4.1,1.12,8.24,2.08,12.42,2.84,7.93,1.45,7.39,2.47,10.25-3.67C698.87,576.66,697.75,561.36,697.32,551.74Z"/><path id="Thumb_Hand_Left" data-name="Thumb Hand Left" class="cls-6" d="M575.15,535.93c6,0,12.47.32,19.34,1,11.4,1.13,21.63,5,30.5,7.29-18.13-2-34.29-2.07-50.72,1.09a3,3,0,0,1-3.13-1.3c-.75-1.15-1.49-2.72-1.15-4.08A5.52,5.52,0,0,1,575.15,535.93Z"/><path id="Neck_Left" data-name="Neck Left" class="cls-5" d="M825,234.85a193.77,193.77,0,0,0-1.65,26.58c.07,9,.15,15.05,2.17,22.84a69.23,69.23,0,0,0,7.33,17.67"/><path id="Neck_Right" data-name="Neck Right" class="cls-5" d="M736.65,305.6a41.19,41.19,0,0,0,7.5-10.5,41.78,41.78,0,0,0,4.35-17.56"/><path id="Torso_Arms_Connector" data-name="Torso Arms Connector" class="cls-4" d="M509,398.76c.42,1.08,20.72-7,22-7.83,3.22-2.09,13.9-17.41,15.41-17.31,2.37.17,8.87,19.36,11.15,23.06,4.86,7.87,10.91,14.08,17.54,20.41,4.17,4,35.85,43.34,34.9,43.84.34-.18-2-16.2-1.8-17.76,1.09-8.08,5.17-13.7,9.36-20.39,12.05-19.26,21.55-39.65,31.26-60.16,7.58-16,14.41-33.46,29-44.53,6.34-4.81,13.78-7.74,21-11.06,5.67-2.63,31.16-19.06,36.31-17,6.21,2.46-1.8,24.61,2.49,32.39,5.4,9.8,13.79,8,23.41,5.57,17.57-4.37,34.71-11.71,51.6-18.14,6.79-2.59,22-12.13,29.11-11.44,8.81.85,17.57,14,23.55,20.11,13.48,13.78,28.76,27.75,40,43.43,11.75,16.36,9.58,38.94,8.81,58.54a541.16,541.16,0,0,1-21.73,131.94c-10.09,34.16-19,53.73-57.83,54-18.51.14-35.78,1.51-54.16-2.25-19.39-4-37.38-11.5-57.45-11.8-4.17-.06-25.55,4.2-28.17,2.18-3.65-2.81,1.82-13.77,2.52-18.24.83-5.21-2.58-25.32-.51-28,4.38-5.74,17.41-1.91,24.94-1.84,38.88.37,75.48-12.91,113.83-.35.15-28.37,4.13-56.38,5-84.68q.27-9.07.08-18.17c-.25-13-2.09-15.72-10.92-25.14q-14.89-15.9-28.8-32.72c-13.56-16.45-26.16-42.55-45.57-52.59-20.74-10.74-54.06,6-67.12,23-10.19,13.26-10.93,35.31-14.64,51.8q-6,26.67-12.64,53.2c-1.68,6.69-2.86,15.17-5.5,21.55-4.4,10.61-11.54,13.34-21.86,19.09C623.42,507,611.37,515.08,600,517.68c-28.76,6.6-48.13-32.73-60.14-52.68C527.32,444.15,517.79,421.39,509,398.76Z"/><path id="Left_Shoulder_Curve" data-name="Left Shoulder Curve" class="cls-4" d="M867.49,384.43a31.3,31.3,0,0,1,14-16.5c13.43-7.35,27-1.19,28.5-.5"/></g></g></g></g></svg>