<svg xmlns="http://www.w3.org/2000/svg" xmlns:xlink="http://www.w3.org/1999/xlink" viewBox="0 0 1100 1000"><defs><style>.cls-1,.cls-11,.cls-13,.cls-9{fill:#273549;}.cls-10,.cls-12,.cls-14,.cls-2,.cls-3,.cls-4,.cls-8{fill:none;}.cls-10,.cls-2,.cls-8,.cls-9{stroke:#f9cadf;}.cls-10,.cls-11,.cls-12,.cls-13,.cls-14,.cls-2,.cls-3,.cls-4,.cls-8,.cls-9{stroke-miterlimit:10;}.cls-2,.cls-4,.cls-8,.cls-9{stroke-width:4px;}.cls-11,.cls-12,.cls-3{stroke:#f9ca9e;}.cls-11,.cls-3{stroke-width:4.25px;}.cls-4{stroke:#ff9f55;}.cls-5,.cls-6{font-size:40px;}.cls-5{fill:#f9ca9e;}.cls-5,.cls-6,.cls-7{font-family:Raleway-Black, Raleway;}.cls-6{fill:#f9cadf;}.cls-7{font-size:36.92px;fill:#ff9f55;}.cls-10,.cls-13,.cls-14,.cls-8,.cls-9{stroke-linecap:round;}.cls-10{stroke-width:2px;}.cls-12{stroke-width:2.12px;}.cls-13,.cls-14{stroke:#16df82;stroke-width:1.06px;}</style><image id="image" width="1600" height="1000" xlink:href="../../PaperPlane Evo16x10.png"/></defs><title>Mature 1608</title><g id="Layer_2" data-name="Layer 2"><g id="Mature"><g id="Mature-2" data-name="Mature"><rect id="Back" class="cls-1" width="1100" height="1000"/><g id="Podium"><line id="Main" class="cls-2" x1="9.9" y1="940.33" x2="369.9" y2="940.33"/><line id="Gold" class="cls-3" x1="370.75" y1="926.08" x2="730.75" y2="926.08"/><line class="cls-4" x1="727.24" y1="947.33" x2="987.24" y2="947.33"/><text class="cls-5" transform="translate(546.75 967.33)">1</text><text class="cls-6" transform="translate(176.11 975.33)">2</text><text class="cls-7" transform="translate(843.11 979.69) scale(1.08 1)">3</text></g><g id="Male_2" data-name="Male 2"><path class="cls-4" d="M881.29,256.75c-3,11.34-11.91,20-22.69,21.91-13.46,2.44-27.72-5.9-32.87-20.23A243.76,243.76,0,0,0,757.51,285a376.43,376.43,0,0,1,14,55.12c1.94,11.08,7.09,39.55,4.27,111.26-.92,23.54-2.49,53.66-5.31,88.77A359,359,0,0,0,937.36,538q-1.15-22.37-1.49-46.6c0-3.2.12-6.34.37-9.37,1.33-28.07-2.67-55.07,2.19-83.31.23-3.52.48-7,.75-10.51,2.92-38.28,7.53-73.81,13-106.26Q935.29,275.24,917,268.7T881.29,256.75Z"/><path class="cls-4" d="M853.74,640.55c1.87,0,1.83,24.32,6.58,57.44,5.38,37.49,9.75,33.58,11.66,56.93,2.23,27.23-2.93,38.22-.53,81.33,1.1,19.86,2.76,27.78,8.5,30.83,12.78,6.79,35.95-15.77,38.28-18.07,5.72-44.62,10.47-91.82,13.82-141.4,4-59.74,5.56-116.4,5.31-169.57a278.86,278.86,0,0,1-166.91,2.12c0,52,1.42,106.87,4.78,164.26,3.15,53.89,7.72,105.34,13.29,154.16,1.73,1.55,17.83,15.67,30.82,10.27,6.89-2.87,10.91-10.39,14.36-26.75,7.49-35.4-1.07-48.73,1.07-83.46,1.39-22.63,5.07-17.73,11.47-61.63C851.24,662.65,851.78,640.54,853.74,640.55Z"/><path class="cls-4" d="M852.49,246.73a42.23,42.23,0,0,0,35.44-24.8q-1.42-33.31-2.84-66.63a40.57,40.57,0,0,0-8.19-13.86c-3.56-3.93-20.08-19.83-12.59-9.37-12.95-13-21.33-23.09-15.37-3.7-8.07-19.45-9.37-17.38-16.72,3.28,4.63-19.47-7.18.74-13.69,9.93,0-2-6.79,9.38-8.57,15.14l5.67,68a55.66,55.66,0,0,0,36.86,22Z"/><path class="cls-4" d="M949.17,283.24a1.85,1.85,0,0,1,3-1.25,120.24,120.24,0,0,0,52.61,25.34A201.83,201.83,0,0,0,1041,225.47a26.38,26.38,0,0,0,15.41,9,25.57,25.57,0,0,0,12.76-1.07l-20.73,89.31a49.11,49.11,0,0,1-29.24,36.15,170,170,0,0,1-76.4-11.73Q946,315.21,949.17,283.24Z"/><path class="cls-4" d="M1025,177.63A6.23,6.23,0,0,1,1036.7,175l9.57,14.34,5.85-30.29a19.35,19.35,0,0,1,37.21,8q-10.1,33.21-20.2,66.44a25.57,25.57,0,0,1-12.76,1.07,26.38,26.38,0,0,1-15.41-9Z"/><path class="cls-4" d="M886.33,921.3a26.86,26.86,0,0,0,18.61,0,25.71,25.71,0,0,0,9.28-6.23q-.33-30.65-.65-61.3c-2.56,3.06-10.16,11.29-22.46,13.31a34.54,34.54,0,0,1-11.16,0l2.81,23.84Z"/><path class="cls-4" d="M791.83,913.5A25.14,25.14,0,0,0,803,922a26.14,26.14,0,0,0,19.5-.73L828,860.23c-1,1.68-5.07,7.73-12.68,9.69-8.44,2.17-17.88-1.56-23.72-9.48Q791.69,887,791.83,913.5Z"/><path class="cls-4" d="M894.39,944.69h64.77c1.73-1.8,3.93-4.58,3.19-6.91-1.66-5.16-15.74-1.63-27.11-8-4.35-2.43-9.67-7.06-13.79-16.85a2.88,2.88,0,0,0-5-.52,22.72,22.72,0,0,1-9.37,7.8,21.28,21.28,0,0,1-3.48,1.22,26.74,26.74,0,0,1-7.89.61c-6.8-.19-10.21-.27-11,.47-1.22,1.22-.77,4.43.13,10.86.8,5.74,1.48,6.91,2.12,7.71A10.71,10.71,0,0,0,894.39,944.69Z"/><path class="cls-4" d="M813.86,945.76H749.09c-1.73-1.8-3.93-4.58-3.18-6.91,1.69-5.3,16-.2,27.11-8,10.28-7.2,12.36-21.63,16-20.73.55.14.33.42,2.78,3.36a27.22,27.22,0,0,0,6.26,6.11,22.31,22.31,0,0,0,6.58,2.91,24.22,24.22,0,0,0,7.89.62c6.77-.53,8.14-3,10-1.84,2.08,1.3,1.67,5.28.84,13.16-.55,5.33-1.33,6.73-2.12,7.71A10.74,10.74,0,0,1,813.86,945.76Z"/><path class="cls-4" d="M757.51,285c-11.35,3.67-23.52,7.18-36.46,10.38q-13.38,3.3-25.92,5.73a201.55,201.55,0,0,1-8.91-89.05,26.36,26.36,0,0,1-17.47,3.8,25.7,25.7,0,0,1-11.79-5q-4,45.66-8.05,91.32c-.43,4.8-2,14.3,2.82,23.86,5.91,11.77,17.75,16.85,28.53,21.3,19.87,8.2,37.36,8,46.77,7.79a138.56,138.56,0,0,0,45.69-8.87Z"/><path class="cls-4" d="M716.24,171.56A6.23,6.23,0,0,0,706,165.4L692.4,176.05l3.86-30.6a19.36,19.36,0,0,0-37.85-4q-.72,34.72-1.45,69.44a25.7,25.7,0,0,0,11.79,5,26.36,26.36,0,0,0,17.47-3.8Z"/><path class="cls-4" d="M812.82,191a84.07,84.07,0,0,0,6-10.09,80.4,80.4,0,0,0,3.27-7.37,1.21,1.21,0,0,1,1.91-.47,29.92,29.92,0,0,0,17.41,7.43c13.07,1,21.78-7.3,23.13-8.62a7.41,7.41,0,0,1,5.22-2.32,7.51,7.51,0,0,1,5.41,2.32,47.27,47.27,0,0,0,11.42,18.6"/><path class="cls-4" d="M886.27,183c0-.1,6.73.51,9.27,3.57,5.28,6.33-8.29,19.43-8.3,19.14C887.07,201.82,886.54,189.43,886.27,183Z"/><path class="cls-4" d="M812.82,187.55c-.17-3.32-7.33.79-9.28,3.56-4.51,6.42,11,20,10.85,18.8C813.79,202.62,813.26,196.27,812.82,187.55Z"/><line class="cls-4" x1="878.86" y1="234.88" x2="881.29" y2="256.75"/><line class="cls-4" x1="826.41" y1="235.73" x2="825.73" y2="258.43"/><path class="cls-4" d="M837.6,221.22a30.23,30.23,0,0,0,28-.36"/><path class="cls-4" d="M891.52,474.51c0,21,8.69,37.93,19.44,37.93"/><path class="cls-4" d="M820.12,476c0,21-8.7,37.94-19.45,37.94"/><path class="cls-4" d="M848.72,278.94l6.78,273"/><line class="cls-4" x1="848.94" y1="281.15" x2="857.57" y2="292.83"/></g><g id="Male_1" data-name="Male 1"><path class="cls-8" d="M215.68,206c-1.89,16.14-15.17,28.45-30.7,29.11-16.72.71-31.8-12.28-33.54-29.74L86.88,234.16q2.3,17.63,4.11,35.77a1192.8,1192.8,0,0,1-1,244.16c38.56,4.14,67-.77,86.08-6.21,11.33-3.23,18-6.16,30.39-8.2,28.54-4.69,53.4,2,70.26,8.54-12.45-69.26-17.43-150.14-4.12-238.29q2.73-18.09,6.26-35.29Z"/><path class="cls-8" d="M215.68,206q-10.91,114.15-28.91,234.84-5.11,33.87-10.66,67"/><path class="cls-9" d="M183.72,587c4.95-.14,7.05,21,16.77,56,13.67,49.31,22,52.75,30.22,90.19,6.1,28,7.75,23.58,7.75,72.16,0,0,32.84,93.48,33.09,93.48l31.83-.4a3.07,3.07,0,0,0,3-3.31c-2.14-19.54-5.09-48.64-7.82-84.08-3.31-43.06-4.69-74.88-5.18-85.54-2.77-60.38-5.9-70.13-7.55-114.8C284.63,577.4,276.35,509.36,276,509c-.8-.75-25-9.37-48.6-10.93-27.23-1.79-30.92,11.22-59.84,10.73-16.54-.28-20.76-3.84-41.28-3.23-18.49.56-27.73.84-33.91,4.85C82.22,517,81.18,626.27,81.18,626.27c.12,29.23-1.36,57.35-2.08,67.48-.4,5.63-1,12.26-1.54,21.32,0,0-.53,9.57-1.37,18.37h0c-1.42,16.23-8.51,35.63-9,67-.54,34.23-.35,58.16-.11,73.38.12,7.72-5.67,21.11.56,26.5,3.59,3.1,9.23,2.35,15.11,1.58,12.68-1.67,24-8.87,24-8.86s6.51-22,14.51-45.43c8.68-25.43,10.13-26.26,12.55-46,2.35-19.11,4.36-46.35,9.5-71.21,1-5.06,4.92-24.35,12-49.16,5.46-19.12,6.55-19.63,11.88-37.86C178.77,604,179.3,587.16,183.72,587Z"/><path class="cls-9" d="M75.17,245.56c1.65-5.87,6.2-10.34,11.71-11.4,7.22-1.38,15.08,3.32,17.72,11.4a136.11,136.11,0,0,1,16.18,50.74,135.59,135.59,0,0,1-1.62,40.4l107.91,6.65-6.33,27.53A244,244,0,0,1,79,379.79,13.78,13.78,0,0,1,68.4,366c.42-13.52,0-24.74-.51-33.05-1.84-29-6.61-46.29.32-69.94A98.06,98.06,0,0,1,75.17,245.56Z"/><path class="cls-9" d="M263.15,244.29c4.53-8.29,13.92-11.59,20.89-8.54,5,2.17,7.14,7.7,8.86,13,8.9,27.26,10.32,44.82,10.32,44.82a271.54,271.54,0,0,1-.83,54.24c-2.63,22.12-3.95,33.18-9.52,38.21-11.13,10.06-31.37,5.31-74-9.73-25.18-8.88-59.38-21.77-99.68-39.56.87-.84,3.63-14.05,3.16-15.19,7.35.29,19,.69,33.34,1,26.12.5,34.2,0,48.59.8a370.17,370.17,0,0,1,46.87,5.51c-2.8-19.29-2.83-35.38-1-46.52A124.91,124.91,0,0,1,263.15,244.29Z"/><path class="cls-8" d="M354.24,937.34a2.85,2.85,0,0,0,2.15-4.75,27.29,27.29,0,0,0-9.09-7c-16.17-7.38-24-3.58-30.67-8.18-3.54-2.42-7.28-7.15-8.75-17.16a4.1,4.1,0,0,0-5.31-3.32A54.56,54.56,0,0,1,276,898.57a4.51,4.51,0,0,0-5.25,3.48c-1.43,6.54-2.24,18.05-3.78,28.91a4.77,4.77,0,0,0,4.71,5.45C298.36,936.51,327.56,937.24,354.24,937.34Z"/><path class="cls-8" d="M20,936.87a2.85,2.85,0,0,1-2.15-4.74,27.31,27.31,0,0,1,9.09-7c16.17-7.38,24-3.58,30.67-8.17,3.54-2.43,7.28-7.16,8.75-17.16a4.1,4.1,0,0,1,5.31-3.33,54.67,54.67,0,0,0,26.52,1.65,4.51,4.51,0,0,1,5.26,3.47c1.87,8.55,2.34,18.79,3.78,28.92a4.77,4.77,0,0,1-4.71,5.45C75.87,936,46.67,936.77,20,936.87Z"/><circle class="cls-8" cx="201.52" cy="242.23" r="3.8"/><path class="cls-10" d="M253.26,517.24a36.86,36.86,0,0,0,3.71,23.3C264.69,555,279.5,558.48,281.79,559"/><path class="cls-10" d="M108.4,524.36a35.5,35.5,0,0,1-2.53,21.52C99.32,560,85.56,564.27,83.31,564.94"/><path class="cls-8" d="M183.72,199a45.48,45.48,0,0,1-36.08-23.42,148.71,148.71,0,0,1-1.27-77.85c7-18,25-28.87,43-26.59A38.83,38.83,0,0,1,204,76.12a38.31,38.31,0,0,1,11.64,10.1A39.87,39.87,0,0,1,223,100.3a197.93,197.93,0,0,1,2.53,28.48,197.19,197.19,0,0,1-5.06,47.47A41.2,41.2,0,0,1,183.72,199Z"/><path class="cls-8" d="M224.19,154.59a10.76,10.76,0,0,0,1.31-20.91"/><path class="cls-8" d="M142.54,155.06a10.76,10.76,0,0,1-1.32-20.91"/><path class="cls-8" d="M199.14,167.15a23.28,23.28,0,0,1-27.53.48"/><path class="cls-8" d="M142.69,150.56a32.55,32.55,0,0,0,8.51-8.33,33.81,33.81,0,0,0,5.94-18.42,1.14,1.14,0,0,1,1.86-1,21.35,21.35,0,0,0,31.69-12.33c.47-1.41,1.45-1.46,2.12-.13a17,17,0,0,0,8,8,16.68,16.68,0,0,0,7.66,1.48,2.88,2.88,0,0,1,2.9,2.39,58.16,58.16,0,0,0,3.92,13.69,57.51,57.51,0,0,0,8.91,14.48"/><path class="cls-8" d="M215.67,183.65l-.27,25.22"/><path class="cls-8" d="M153.82,184.25q.12,11.87.23,23.73"/></g><g id="Female"><path class="cls-3" d="M465.93,240.06a6.9,6.9,0,0,0-5.64-6.63c-4.59-.8-8.89-2.66-13.29-4.11a8.61,8.61,0,0,0-11.31,8c-.34,16.15-5.48,35.62-5.82,58.1-.52,34.79-11.67,62.29-15.66,71.88C408.85,380.2,402,393,397,402.2c-14.9,27.56-20.72,32.41-21.54,37.89a7.31,7.31,0,0,0,0,2.84c1,4.21,7.65,11.65,99.76,18.27,8.23.59,36.67,13.66,37.52,13.44,6.4-1.65-1.79-84.77,3.34-102.86a84.52,84.52,0,0,1,3.53-9.8c3.57-7.63,5.66-10.22,16.18-34.54,13.91-32.2,11.59-64,8.56-87a7.52,7.52,0,0,0-8.83-6.41l-20.81,3.85a16.17,16.17,0,0,0-8.29,4.28c-6.65,6.48-11.67,10-19,18.44C476,273.84,469,281.86,466.37,280.47,465.38,280,466.17,248.07,465.93,240.06Z"/><path class="cls-11" d="M464.36,600.89c43.19,68.29,57.92,98,62,111.55.71,2.32,5,17,12.61,36.72,0,0,2.77,7.19,5.69,14.17,14.92,35.57,26.8,46.09,40.38,77.76,11,25.72,15.19,46.73,25.74,47.3,3.85.21,6.48-2.4,15.89-3.56a61.15,61.15,0,0,1,16.72.27c-.69-8.75-10.79-46.91-11.37-48.73-4.73-15.09-21.76-62.36-29.74-91.52-18.54-67.74-37.27-104.21-43.64-155.53-4-32.57-5.31-71.7-34.89-104.77a106.49,106.49,0,0,0-12.87-12.35c-18.89-15.08-78.61-17-130.07-28.12a3.61,3.61,0,0,0-4.36,3.17c-6.08,60.65-1.93,108.82,2.88,141.33,6.5,43.92,15.71,69.31,48,178.61,14.27,48.25,27.64,93.8,34.85,119a5.14,5.14,0,0,0,1.73,2.95c3.54,2.59,8.71-3.28,16.54-3.56,9.59-.34,13.25,7.09,17.65,5,3.44-1.6,3.53-7.51,2.9-30.79-.73-27.06-1.19-31.89-1.52-35-1.18-11.16-2.86-20.69-4.4-28.1h0c-4.46-33.42-11.54-49.53-19-84.68A561.35,561.35,0,0,1,464.36,600.89Z"/><path class="cls-11" d="M524.45,259.38c.21-14.13,9.18-24.71,9.31-24.8l.21-.16.22-.15c.16-.11,13.5-1.55,25.08,5.17,14.5,8.42,21.36,26.82,30.72,48.18,22.71,51.89,34.32,62.45,27.4,75.65-1.75,3.34-9.33,9.17-24.48,20.83-12.25,9.42-13.37,9.37-24.48,17.9,0,0-13.32,11-32.57,29.72-6.81,6.6-11.18,11.79-11.81,18.65q-.51,5.69-1,11.38c-.12,1.36-2.68,1.21-4,.88-7.89-2-4.36-29.69-11.28-31.39-4-1-8.28,7.58-10.23,6.58-2.2-1.14-.36-13.89,6.81-24.95,3-4.57,6.85-5.84,16.15-12.13,2.09-1.41,7.88-6,19.51-15,22.56-17.58,33.85-26.45,34.64-29.39,2-7.52-2.44-12.15-26.68-47.87C531.87,284.74,524.26,272.66,524.45,259.38Z"/><path class="cls-3" d="M438.9,495.38c.33,12.73-.78,20.21,1.5,35.3,4.17,27.56,16.71,51.17,24,70.21"/><path class="cls-3" d="M394.66,406.91c-3.41,5.69-3.35,5.76-6.5,8.4-3.38,2.85-28.27-71.17-29.92-76a62.84,62.84,0,0,0-3.13-7.54,5,5,0,0,1,.68-5.5c4.29-5,13.22-17,18.18-24.16s45.19-63.62,61.39-65.55c.52-.07.6.09.6.09v.08a38.55,38.55,0,0,1-3.12,20.18c-2.27,5.47-4.22,17.7-3.65,46-7.89,7.63-14.49,13.57-19,17.54-12.2,10.74-16.87,13.85-17.81,20.28-.46,3.17,1.57,7.59,4.93,16.58,4,10.76,6.87,18.8,9.17,26.2,0,.12-3.5,8.56-5.75,12.94C398.26,401.35,398,401.34,394.66,406.91Z"/><path class="cls-3" d="M518.45,202.77c-6,12.3-18.82,19.62-31.89,18.41-17.62-1.64-25.61-17.88-26-18.63-1.74-4.13-3.49-8.72-5.14-13.75a103.41,103.41,0,0,1-4-15.78c-1.85-11-2.85-22-4.85-33,5,2,10,1,15,1,22-3,44-17,64-5,5,3,1,15,1.53,23.05-.46,4.8-1,9.46-1.67,14.31A179.77,179.77,0,0,1,518.45,202.77Z"/><path class="cls-3" d="M527.55,152.78a19.33,19.33,0,0,1,7.5,5.39,11.74,11.74,0,0,1,2.39,8.65,11.89,11.89,0,0,1-12.8,10.26"/><path class="cls-3" d="M479.34,193.5a18.47,18.47,0,0,0,12.79,4.93,18.22,18.22,0,0,0,11.51-4.57"/><path class="cls-11" d="M347.6,228.94a49.93,49.93,0,0,0,52.62-24.66c3.93-6.56,5.66-12.55,8.5-28.78,4.3-24.57,3.69-29.91,5.75-39.67,2.38-11.22,8-26.82,22.58-44.34a72,72,0,0,1,30.6-18.22,68.9,68.9,0,0,1,41.65,1.09c6.75,2.4,18.15,6.46,26.32,18.09a45.9,45.9,0,0,1,7.94,21.93,32.7,32.7,0,0,1-7.14,26.38,14.81,14.81,0,0,1-4.59,3.51C519.57,150,507.57,139,499.57,131c2,20-11,40-30.22,46.48a111.1,111.1,0,0,1-13.68,3.82,49.57,49.57,0,0,0,7.59,21.06c8.53,13.06,21.11,18.29,24.63,19.7h0a73.77,73.77,0,0,1-10.65,25.25,70.8,70.8,0,0,1-31.7,26.58c-22.3,9.23-45.47,4.24-61.4-4-7.49-3.89-12.19-8.5-16.69-13A103.36,103.36,0,0,1,347.6,228.94Z"/><path class="cls-3" d="M509.71,213.86l1.62,25"/><path class="cls-3" d="M464,889.18a30.77,30.77,0,0,0,18,6.06,30.41,30.41,0,0,0,16.18-4.59,23.38,23.38,0,0,1,7.39,14.19,23.15,23.15,0,0,1-2.46,13.43c-10.92,3-17.41,1.91-21.39.18a16.9,16.9,0,0,0-8.21-1.83,16.34,16.34,0,0,0-7.92,2.78c-16.39,10.24-61,1.11-62.72,1.16a.49.49,0,0,1-.32-.09c-.41-.33,0-1.46,0-1.46.3-6.63,19.37-8.13,39.67-17.19A119.31,119.31,0,0,0,464,889.18Z"/><path class="cls-3" d="M646.22,887.42a3.36,3.36,0,0,0-4.73.56,19.45,19.45,0,0,1-28.74,2.38,2.28,2.28,0,0,0-3.51.65,36.19,36.19,0,0,0-4.45,16.75,35.8,35.8,0,0,0,2.58,13.87,3.28,3.28,0,0,0,2.45,2c11.26,2.18,16.91,0,20-2.73,2-1.81,3.47-4.31,6.69-4.93,4-.77,7.25,2.07,9.94,3.65,3.85,2.26,11,1.62,25.18.33,25.51-2.31,34.5-7.37,35.54-7.45a.46.46,0,0,0,.3-.12c.38-.37-.19-1.45-.19-1.45-.49-3.28-5.52-4.79-13.07-6.35C681.65,902,675.59,900.9,666,898A59.33,59.33,0,0,1,646.22,887.42Z"/><path class="cls-12" d="M510.75,408.83a.26.26,0,0,1,.31-.4A34.61,34.61,0,0,1,530.64,434a.26.26,0,0,1-.46.19Z"/><g id="Tickets"><path class="cls-13" d="M498.81,517.11c4.09-9.71,4.09-9.71,7-15,1.73-3.14,3.5-6,5.26-8.65l13.31,6.14a4.7,4.7,0,0,1,2.29,6.22l-10.5,22.78c-3.08-1.71-6.33-3.67-9.67-5.91C503.75,520.81,501.18,518.94,498.81,517.11Z"/><path class="cls-14" d="M499.75,506.87c0,.09,9.69,4.67,21.75,10.23"/><use transform="matrix(0.01, 0, 0, 0.01, 507.92, 495.56)" xlink:href="#image"/><path class="cls-13" d="M487.8,503.41V492.86a4.7,4.7,0,0,1,4.69-4.69h14.66a4.7,4.7,0,0,1,4.68,4.69v31.58c.07.16.13.37,0,.49-.67.83-8.07-3.58-13.05-7.82A48,48,0,0,1,487.8,503.41Z"/><path class="cls-14" d="M489.18,505.18l22.65.12"/><use transform="translate(490.48 491.42) scale(0.01)" xlink:href="#image"/></g><path id="Pocket" class="cls-12" d="M483.1,483.59c.19,3.26,1.72,23.79,19.18,37.27A50,50,0,0,0,531.15,531"/></g></g></g></g></svg>