<svg xmlns="http://www.w3.org/2000/svg" xmlns:xlink="http://www.w3.org/1999/xlink" viewBox="0 0 1100 1000"><defs><style>.cls-1,.cls-10,.cls-16,.cls-2,.cls-3,.cls-4,.cls-7,.cls-9{fill:#273549;}.cls-2,.cls-5,.cls-6,.cls-9{stroke:#f9ca9e;}.cls-10,.cls-12,.cls-13,.cls-16,.cls-17,.cls-2,.cls-3,.cls-4,.cls-5,.cls-6,.cls-7,.cls-8,.cls-9{stroke-miterlimit:10;}.cls-13,.cls-16,.cls-17,.cls-2,.cls-3,.cls-4,.cls-5,.cls-8{stroke-width:2px;}.cls-2,.cls-3,.cls-4{opacity:0.95;}.cls-10,.cls-16,.cls-17,.cls-3{stroke:#ff9f55;}.cls-12,.cls-4,.cls-7,.cls-8{stroke:#f9cadf;stroke-linecap:round;}.cls-13,.cls-17,.cls-5,.cls-6,.cls-8{fill:none;}.cls-10,.cls-12,.cls-6,.cls-7,.cls-9{stroke-width:4px;}.cls-11{fill:#f9ca9e;}.cls-12{fill:#263238;}.cls-13{stroke:#a8eecb;}.cls-14{fill:#fff;}.cls-15{fill:#fff8e1;}</style></defs><title>Dominate 1608</title><g id="Layer_2" data-name="Layer 2"><g id="Dominate"><rect id="Back" class="cls-1" width="1100" height="1000"/><g id="Crowd"><path class="cls-2" d="M271,980.88c2.93-25.19-3.26-49.07-.33-74.25,0-38.56-23-51.18-51.18-51.18h0a51.33,51.33,0,0,0-51.18,51.18c3,22.58.81,53,3.81,75.55"/><path class="cls-2" d="M403.29,979.57V909.23a51.33,51.33,0,0,0-51.18-51.18h0a51.33,51.33,0,0,0-51.18,51.18q3,35.82,6,71.65"/><path class="cls-3" d="M351.88,980.88V887.47c0-37.72-23-68.59-51.18-68.59h0c-28.14,0-51.18,30.87-51.18,68.59q3,48,6,96"/><path class="cls-4" d="M713,922.31v-70.2a51.34,51.34,0,0,1,51.18-51.18h0a51.33,51.33,0,0,1,51.18,51.18q-3,35.82-6,71.64"/><path class="cls-3" d="M839.91,977V907.28a51.33,51.33,0,0,0-51.18-51.18h0a51.33,51.33,0,0,0-51.17,51.18l6,71.64"/><path class="cls-2" d="M754.67,979.57V897.1a60.49,60.49,0,0,0-60.31-60.31h0a60.48,60.48,0,0,0-60.3,60.31l7.08,84.43"/><path class="cls-4" d="M186.67,984.13c2.92-25.18-3.27-49.07-.34-74.25,0-38.56-23-51.18-51.18-51.18h0A51.33,51.33,0,0,0,84,909.88c3,22.58.81,53,3.81,75.55"/><path class="cls-4" d="M467.8,983.58l27-80.34c10.91-36.1-2.2-72.31-29.14-80.46h0c-13.48-4.07-28-.39-40.43,8.83-17.56,13-25.53,34.18-28.41,42-15.47,42-19.86,91.3-21.7,108.77"/><path class="cls-2" d="M817,978.41c-2.92-25.18,3.27-49.06.34-74.25,0-38.56,23-51.18,51.18-51.18h0a51.33,51.33,0,0,1,51.18,51.18c-3,22.58-.81,53-3.81,75.55"/><path class="cls-4" d="M901.33,981.67c-2.92-25.19,3.26-49.07.34-74.25,0-38.56,23-51.18,51.18-51.18h0A51.33,51.33,0,0,1,1004,907.42c-3,22.58-.81,53-3.81,75.55"/></g><g id="Winner"><path class="cls-5" d="M560,659.21c0-1.51,5.09-.11,17-.21,12.46-.11,16.61-1.29,16.64.21,0,2.79-7.28,9.25-16.65,9.33h-.06C567.68,668.54,559.89,661.47,560,659.21Z"/><path class="cls-6" d="M615.42,724a40.72,40.72,0,0,1-75.48,0V683.34c3.08,2.74,17.83,15.26,39.91,14.42a57.54,57.54,0,0,0,35.57-14.42Z"/><path class="cls-7" d="M432.19,553.36a398.49,398.49,0,0,1,71.58,144.27l35.79,11.9,36.76,39.69L615,709.53l28.63-11.9a462.73,462.73,0,0,1,83.94-144.27L648.88,418.67c1.89,1.06,9.41,5,18.48,2.72S683.78,411.14,686,401.1A558.51,558.51,0,0,1,801.14,544.9a731.94,731.94,0,0,1-29.46,137.2,730.77,730.77,0,0,1-51.23,121.78q-13,91.11-26.08,182.2l-231.65-.87q-15.27-93.91-30.53-187.83c-16.43-30.55-36.21-71.7-50.85-115.28-17.58-52.31-24.25-96-29.19-135.25a702.46,702.46,0,0,1,123-145.75c.75,1.81,5.45,12.54,17.57,16.91a30.38,30.38,0,0,0,20.17,0Q472.53,485.69,432.19,553.36Z"/><path class="cls-6" d="M633.57,394.57c.46,2.64,14,22.95,14,22.95h0c1.14.51,13.58,5.78,25.27-1.4A27.4,27.4,0,0,0,684.67,400l-6.19-8.79,6.19-34.8-8.78-32.29c-.72-2.64-2.48-2.89-3.91-.55l-38.61,63.21A26.5,26.5,0,0,0,633.57,394.57Z"/><path class="cls-6" d="M528.09,393c-4.89,7.13-14,23-14,23-2,.57-13.54,3.67-24.73-3.11A31,31,0,0,1,477,398.4l6.18-8.79L477,354.8l8.78-32.28c.72-2.64,2.48-2.89,3.91-.55l38.61,63.2A7.21,7.21,0,0,1,528.09,393Z"/><path class="cls-8" d="M727.9,551.72c2.65,9,18.19,12.26,34.75,7.37"/><path class="cls-8" d="M430.65,552.76c-3,10.35-24.89,13-48.83,5.94"/><path class="cls-7" d="M580.64,959.62l.51,26"/><path class="cls-8" d="M644.76,700c.21,10.87,2.31,50.53,32.65,77.73a91,91,0,0,0,23.42,15.19"/><path class="cls-8" d="M503.77,697.79c.36,3.73,1.65,21.3-10.73,35.22a42.78,42.78,0,0,1-15.18,10.85"/><path class="cls-9" d="M596.41,942.13l-15.77,17.49-16.8-16.46q4.6-94.73,9.23-189.45l6.24-.47Z"/><path class="cls-10" d="M570.73,751l-12.58-21.79a1.37,1.37,0,0,1,1.18-2.06,23.89,23.89,0,0,0,33.45,0,1.38,1.38,0,0,1,1.18,2.06L581.38,751A6.15,6.15,0,0,1,570.73,751Z"/><path class="cls-9" d="M662.27,840.13a51.5,51.5,0,0,1-52.06,0v-52c8.36,0,11.52,2.6,19.88,2.6,9,0,23.19-2.6,32.18-2.6Z"/><path class="cls-11" d="M622.65,799h-1.76v4.68H619.2V799h-1.78V797.5h5.23Z"/><path class="cls-11" d="M628.71,797.5v6.15H627v-2.41H625v2.41h-1.69V797.5H625v2.27H627V797.5Z"/><path class="cls-11" d="M634.15,802.18v1.47h-4.38V797.5h4.31V799h-2.62v.87h2.23v1.37h-2.23v1Z"/><path class="cls-11" d="M619.55,811v3h-1.69V807.9h1.32l2.47,3.13V807.9h1.69v6.15H622Z"/><path class="cls-11" d="M628.78,812.58v1.47H624.4V807.9h4.3v1.47h-2.61v.87h2.23v1.37h-2.23v1Z"/><path class="cls-11" d="M630.77,807.9l1.12,1.94L633,807.9h1.82L632.78,811l2,3h-1.82l-1.05-1.85-1,1.85H629l2-3-2-3.12Z"/><path class="cls-11" d="M640.06,809.37h-1.77v4.68H636.6v-4.68h-1.78V807.9h5.24Z"/><path class="cls-11" d="M623.1,822.87a1.38,1.38,0,0,1-.65,1.21,2.24,2.24,0,0,1-.71.28,3.89,3.89,0,0,1-.85.09h-3V818.3h3.57a1.11,1.11,0,0,1,.58.14,1.29,1.29,0,0,1,.44.36,1.46,1.46,0,0,1,.29.5,1.91,1.91,0,0,1,.1.58,1.61,1.61,0,0,1-.23.82,1.34,1.34,0,0,1-.66.6,1.62,1.62,0,0,1,.84.54A1.64,1.64,0,0,1,623.1,822.87Zm-3.55-3.13v.94h1.15a.59.59,0,0,0,.32-.09.42.42,0,0,0,.14-.38.46.46,0,0,0-.12-.36.37.37,0,0,0-.28-.11Zm1.83,2.79a.6.6,0,0,0-.12-.38A.39.39,0,0,0,621,822h-1.4v1h1.34a.51.51,0,0,0,.35-.13A.5.5,0,0,0,621.38,822.53Z"/><path class="cls-11" d="M623.84,824.45V818.3h1.69v6.15Z"/><path class="cls-11" d="M630.76,823.94a2.26,2.26,0,0,1-1.51.56,3.22,3.22,0,0,1-1.15-.22,2.74,2.74,0,0,1-1-.62,3,3,0,0,1-.65-1,3.57,3.57,0,0,1-.24-1.35,3.07,3.07,0,0,1,.24-1.21,3,3,0,0,1,.67-1,3.14,3.14,0,0,1,1-.65,3.37,3.37,0,0,1,1.24-.23,3.44,3.44,0,0,1,.8.09,2.89,2.89,0,0,1,.71.27,2.39,2.39,0,0,1,.58.42,2.14,2.14,0,0,1,.43.56l-1.26,1a1.34,1.34,0,0,0-.55-.58,1.44,1.44,0,0,0-.77-.23,1.12,1.12,0,0,0-.55.13,1.41,1.41,0,0,0-.44.33,1.73,1.73,0,0,0-.28.52,2,2,0,0,0-.11.65,1.9,1.9,0,0,0,.11.66,1.42,1.42,0,0,0,.29.51,1.31,1.31,0,0,0,.44.33,1.41,1.41,0,0,0,.59.12,1.72,1.72,0,0,0,1.29-.61h-1.06v-1.21h2.53v3.27h-1.4Z"/><path class="cls-11" d="M622.65,830.17h-1.76v4.68H619.2v-4.68h-1.78V828.7h5.23Z"/><path class="cls-11" d="M628.71,828.7v6.15H627v-2.41H625v2.41h-1.69V828.7H625V831H627V828.7Z"/><path class="cls-11" d="M629.77,834.85V828.7h1.69v6.15Z"/><path class="cls-11" d="M634.21,831.83v3h-1.69V828.7h1.31l2.47,3.13V828.7H638v6.15h-1.34Z"/><path class="cls-11" d="M643.23,834.34a2.29,2.29,0,0,1-1.52.55,3.12,3.12,0,0,1-1.14-.21,2.78,2.78,0,0,1-1-.62,3.09,3.09,0,0,1-.65-1,3.48,3.48,0,0,1-.24-1.34,3.07,3.07,0,0,1,.24-1.21,3.3,3.3,0,0,1,.67-1,3.21,3.21,0,0,1,2.25-.89,3,3,0,0,1,.79.1,3.15,3.15,0,0,1,.71.26,2.5,2.5,0,0,1,.58.43,2,2,0,0,1,.43.56l-1.26,1a1.46,1.46,0,0,0-.54-.59,1.56,1.56,0,0,0-.78-.22,1.14,1.14,0,0,0-.55.13,1.27,1.27,0,0,0-.43.33,1.75,1.75,0,0,0-.29.52,2,2,0,0,0-.1.65,1.91,1.91,0,0,0,.1.66,1.58,1.58,0,0,0,.29.51,1.35,1.35,0,0,0,1,.45,1.76,1.76,0,0,0,1.3-.61h-1.07v-1.22h2.53v3.28h-1.39Z"/><path class="cls-6" d="M627.81,670c-1.4,2.18-17.76,26.76-48.34,27.76a60.09,60.09,0,0,1-53.12-29.14,238.13,238.13,0,0,1-9.78-60.88c-.65-22.42-.69-33.74,6.84-43.91,14.47-19.55,46.39-17.29,57.69-16.49,13.16.94,34.72,2.46,46.86,18.22,8.26,10.74,8.62,22.58,8.77,43.05A209,209,0,0,1,627.81,670Z"/><path class="cls-12" d="M517.26,594.5c1.33-10.35,3.23-25.09,10.81-27.42,3.94-1.2,7.41,1.54,12-1.15,3.15-1.83,2.47-3.64,5.77-5.87,5-3.35,11.33-1.63,13.92-2.19,1.43-.32,9.07,2.72,11,2.15,1.37-.42,2.7.13,4,.46,1.78.46,7.81-.17,9.43-.34a65.81,65.81,0,0,1,7.57-.23c3.68.09,6.74,1.64,10.35,1.89a56.6,56.6,0,0,1,11.76,1.85c4.32,1.24,7.2,2,9.9,4.55,5.34,5,5.49,12.53,5.5,13.2,0,4.21,1.87,14.31,3.46,16.49,1.78,2.44,1.9,13.82,3,21.89.41,2.88,1.57,3,2.52.24,2.59-7.58,4.2-13,3.89-16.72-.12-1.39,3.07-14.52,4.36-17.89,1.85-4.8,4.67-21.37,4.12-22.47a39.11,39.11,0,0,1-2.79-7.77c-1.35-4.93-1.76-11.12-3.94-15.62a29.82,29.82,0,0,0-5.23-7.1c-2.79-2.67-4.59-10.65-7.75-13.66a30.19,30.19,0,0,0-6.49-5.13,16.05,16.05,0,0,1-6.16-5.59c-.53-.7-1.51-2.6-2.33-3-1.19-.56-9.3,0-11.77-1.89-2.26-1.72-4.46-3.41-6.87-4.91-4.85-3-11-1.91-16.66-1.91A34.8,34.8,0,0,0,564.23,500c-2.56,1.27-4.74,3.85-7.41,4.82-2.36.85-5.79.24-8.32.24-6,0-10.6,2.85-15.66,5.82-2.34,1.38-4.48,3.13-6.85,4.43-2,1.08-5,1.34-6.53,2.82-2.14,2.07-3.37,6.77-4.74,9.42-1,2-6.92,10.63-7.89,13.23-1.18,3.14-1.41,7.13-2,10.44-2.1,11.84-1.9,23-.43,34.89,1.74,14.08,7.64,23.22,11.06,31.51C516.68,620.58,516.32,601.8,517.26,594.5Z"/><g id="Tie_Clip" data-name="Tie Clip"><line class="cls-13" x1="584.52" y1="915.38" x2="596.41" y2="915.38"/><image width="1600" height="1000" transform="translate(568.71 908.87) scale(0.01)" xlink:href="../../PaperPlane Evo16x10.png"/></g></g><g id="Trophy"><path id="_1" data-name="1" class="cls-6" d="M665.7,43.67a487.47,487.47,0,0,1-82.86,7.39,487.37,487.37,0,0,1-86.33-7.39,6.51,6.51,0,0,1,0-13,552.92,552.92,0,0,0,84.59,6.51,553,553,0,0,0,84.6-6.51,6.51,6.51,0,0,1,0,13Z"/><path id="_4" data-name="4" class="cls-6" d="M608.91,206.86a94.91,94.91,0,0,1-54.66,0v-16.6a99.93,99.93,0,0,0,54.66,0Z"/><path id="_5" data-name="5" class="cls-6" d="M562,209.8a79.8,79.8,0,0,0,39.5,0c.24.42,1.77,1.43,1,2.27-4.49,5.08-12.65,16.25-13,31.73-.39,17.93,9.86,35.08,26.48,45,1.18.71,6.75,3.64,5.38,3.65-40.35.34-40.35.34-80.69,0-1.4,0,4.19-2.24,5.39-3,16.87-9.93,27.42-27.11,27.32-45.24-.09-15.62-8.07-27-12.48-32.25A1.36,1.36,0,0,1,562,209.8Z"/><rect id="_6" data-name="6" class="cls-9" x="558.16" y="233.87" width="45.55" height="23.43" rx="11.61" ry="11.61"/><path id="_7" data-name="7" class="cls-6" d="M645.37,305.44H516.84l1.66-2.8a20.82,20.82,0,0,1,17.91-10.21h89.38a20.82,20.82,0,0,1,17.92,10.21Z"/><path id="_2" data-name="2" class="cls-9" d="M641.32,151a61.7,61.7,0,0,1-117.85,0L504.06,48.5a2.6,2.6,0,0,1,3-3,400.63,400.63,0,0,0,71.42,6.9,400.33,400.33,0,0,0,76.72-6.92,2.6,2.6,0,0,1,3,3Q649.79,99.72,641.32,151Z"/><path class="cls-14" d="M546.55,86.49a20.8,20.8,0,0,0-2.1-1.08,20.5,20.5,0,0,0-2-.76,7.35,7.35,0,0,0-2.22-.36,2.9,2.9,0,0,0-1.4.28.94.94,0,0,0-.53.91,1,1,0,0,0,.31.78,2.84,2.84,0,0,0,.88.56,11.12,11.12,0,0,0,1.4.49c.55.15,1.18.35,1.88.57a24.4,24.4,0,0,1,3,1.12A9.12,9.12,0,0,1,548,90.44a5.52,5.52,0,0,1,1.45,2,7.27,7.27,0,0,1,.51,2.88,7.55,7.55,0,0,1-.8,3.63,6.53,6.53,0,0,1-2.09,2.35,8.6,8.6,0,0,1-3,1.27,14.18,14.18,0,0,1-3.3.39,19.31,19.31,0,0,1-2.7-.2,23.74,23.74,0,0,1-2.76-.58,21.5,21.5,0,0,1-2.64-.88,15.55,15.55,0,0,1-2.35-1.15l2.84-5.78a21.6,21.6,0,0,0,2.47,1.32,17.27,17.27,0,0,0,2.45.91,9.87,9.87,0,0,0,2.79.41,2.84,2.84,0,0,0,1.51-.29.89.89,0,0,0,.42-.76,1.07,1.07,0,0,0-.42-.86,3.74,3.74,0,0,0-1.17-.63q-.74-.27-1.71-.54c-.64-.18-1.32-.4-2-.64a18,18,0,0,1-2.74-1.17,7.54,7.54,0,0,1-1.9-1.42,5.13,5.13,0,0,1-1.1-1.81,7,7,0,0,1-.35-2.34,8.17,8.17,0,0,1,.72-3.52,7.43,7.43,0,0,1,2-2.54A9,9,0,0,1,537,79a10.9,10.9,0,0,1,3.4-.53,13.57,13.57,0,0,1,2.57.25,19.93,19.93,0,0,1,2.42.65q1.17.39,2.19.84c.67.31,1.28.6,1.82.87Z"/><path class="cls-14" d="M576.38,97.22v5.2H559.46V79h16.92v5.2H566v3.91h9.11v5.2H566v3.91Z"/><path class="cls-14" d="M603.71,97.22v5.2H586.79V79h16.92v5.2H593.29v3.91h9.11v5.2h-9.11v3.91Z"/><path class="cls-14" d="M614.12,102.42V79h9a13.27,13.27,0,0,1,5.11.92,10.35,10.35,0,0,1,5.94,6.22,13.56,13.56,0,0,1,.76,4.54,13.23,13.23,0,0,1-.84,4.83,10.36,10.36,0,0,1-6.13,6.07,13.32,13.32,0,0,1-4.84.84ZM629,90.67a8.39,8.39,0,0,0-.39-2.63,5.89,5.89,0,0,0-1.11-2,4.8,4.8,0,0,0-1.78-1.32,5.58,5.58,0,0,0-2.35-.48h-2.75v13h2.75a5.55,5.55,0,0,0,2.39-.5,4.9,4.9,0,0,0,1.78-1.37,6,6,0,0,0,1.09-2.07A9,9,0,0,0,629,90.67Z"/><path class="cls-14" d="M533.43,133.66V110.23h15.62v5.21H538.64v3.9h9.11v5.21h-9.11v9.11Z"/><path class="cls-14" d="M565.3,128.6a4.08,4.08,0,0,0,2.1-.5,4.34,4.34,0,0,0,1.42-1.34,6,6,0,0,0,.8-1.91,10.46,10.46,0,0,0,.25-2.27V110.23h6.51v12.35a16.16,16.16,0,0,1-.66,4.69,10.19,10.19,0,0,1-2,3.77,9.49,9.49,0,0,1-3.46,2.5,12.24,12.24,0,0,1-4.92.92,11.85,11.85,0,0,1-5-1,9.53,9.53,0,0,1-3.43-2.59,10.37,10.37,0,0,1-2-3.77,16.45,16.45,0,0,1-.62-4.55V110.23h6.51v12.35a10.17,10.17,0,0,0,.25,2.29,5.93,5.93,0,0,0,.8,1.92,4,4,0,0,0,1.4,1.32A4.09,4.09,0,0,0,565.3,128.6Z"/><path class="cls-14" d="M590.69,122.14v11.52h-6.5V110.23h5l9.34,11.91V110.23H605v23.43h-5.08Z"/><path class="cls-14" d="M612.82,133.66V110.23h9a13.33,13.33,0,0,1,5.12.92,10.35,10.35,0,0,1,5.94,6.22,13.56,13.56,0,0,1,.76,4.54,13.23,13.23,0,0,1-.85,4.83,10.36,10.36,0,0,1-2.39,3.7,10.63,10.63,0,0,1-3.73,2.37,13.13,13.13,0,0,1-4.85.85Zm14.88-11.75a8.5,8.5,0,0,0-.39-2.64,5.89,5.89,0,0,0-1.11-2,5,5,0,0,0-1.78-1.32,5.61,5.61,0,0,0-2.35-.47h-2.75v13h2.75a5.55,5.55,0,0,0,2.39-.49,5.22,5.22,0,0,0,1.78-1.37,6.16,6.16,0,0,0,1.09-2.08A9,9,0,0,0,627.7,121.91Z"/><path id="_8b" data-name="8b" class="cls-10" d="M666.17,369.21H494.39a5.22,5.22,0,0,1-5.21-5.2V312c0-2.86,24.47-5.21,27.33-5.21H645.35c2.86,0,26,2.35,26,5.21V364A5.22,5.22,0,0,1,666.17,369.21Z"/><path class="cls-15" d="M546,332.9a13.19,13.19,0,0,0-1.63-.88,14,14,0,0,0-1.67-.7c-.62-.21-1.25-.38-1.49-.49v3.05c-.19,0,0,.1.25.18l.71.22a24,24,0,0,1,3,1.12,8.88,8.88,0,0,1,2.28,1.44,5.55,5.55,0,0,1,1.46,2,7.47,7.47,0,0,1,.5,2.88,7.66,7.66,0,0,1-.69,3.4,6.62,6.62,0,0,1-1.83,2.3,7.8,7.8,0,0,1-2.59,1.35,14.69,14.69,0,0,1-4.39.56v4.26h-1.3v-4.33a22,22,0,0,1-4.66-.91,19.21,19.21,0,0,1-4.13-1.8l2.84-5.78a21.48,21.48,0,0,0,2,1.08,19.63,19.63,0,0,0,2,.86,10.72,10.72,0,0,0,3.24.6v-3a12.24,12.24,0,0,1-3-.64,18.47,18.47,0,0,1-2.74-1.17,7.3,7.3,0,0,1-1.89-1.42,5,5,0,0,1-1.1-1.81,7,7,0,0,1-.36-2.34,8,8,0,0,1,.61-3.23,7.61,7.61,0,0,1,1.66-2.42,8,8,0,0,1,2.45-1.62,10,10,0,0,1,3-.78v-3.85h1.3v3.88a15.38,15.38,0,0,1,3.55.41c.7.18,1.37.39,2,.62s1.25.49,1.81.75,1.09.5,1.56.73Zm-8.75-1a1.09,1.09,0,0,0,.34.83,3.26,3.26,0,0,0,1,.59v-2.57C537.73,330.84,537.28,331.23,537.28,331.88Zm5.45,10.49a1.08,1.08,0,0,0-.41-.83,3.66,3.66,0,0,0-1.08-.63v2.51a2.24,2.24,0,0,0,1.15-.34A.89.89,0,0,0,542.73,342.37Z"/><path class="cls-15" d="M574.75,332.9a12.37,12.37,0,0,0-1.62-.88,14.94,14.94,0,0,0-1.68-.7c-.62-.21-1.24-.38-1.58-.49v3.05c-.09,0,.12.1.35.18s.46.15.71.22a24.4,24.4,0,0,1,3,1.12,8.78,8.78,0,0,1,2.29,1.44,5.52,5.52,0,0,1,1.45,2,7.27,7.27,0,0,1,.51,2.88,7.66,7.66,0,0,1-.69,3.4,6.74,6.74,0,0,1-1.83,2.3,7.9,7.9,0,0,1-2.59,1.35,15,15,0,0,1-4.49.56v4.26h-1.3v-4.33a22.32,22.32,0,0,1-4.56-.91,19,19,0,0,1-4.13-1.8l2.84-5.78a21.28,21.28,0,0,0,2,1.08,19.86,19.86,0,0,0,2,.86,10.54,10.54,0,0,0,3.14.6v-3a12.37,12.37,0,0,1-2.85-.64,18.47,18.47,0,0,1-2.74-1.17,7.54,7.54,0,0,1-1.9-1.42,5.28,5.28,0,0,1-1.1-1.81,7.29,7.29,0,0,1-.35-2.34,8,8,0,0,1,.61-3.23,7.46,7.46,0,0,1,1.66-2.42,7.81,7.81,0,0,1,2.45-1.62,10,10,0,0,1,2.92-.78v-3.85h1.3v3.88a15.78,15.78,0,0,1,3.65.41c.69.18,1.37.39,2,.62s1.24.49,1.81.75l1.56.73Zm-8.84-1a1.12,1.12,0,0,0,.34.83,3.26,3.26,0,0,0,1,.59v-2.57C566.36,330.84,565.91,331.23,565.91,331.88Zm5.45,10.49a1.08,1.08,0,0,0-.41-.83,3.66,3.66,0,0,0-1.08-.63v2.51a2.24,2.24,0,0,0,1.15-.34A.89.89,0,0,0,571.36,342.37Z"/><path class="cls-15" d="M603.48,332.9a13.81,13.81,0,0,0-1.62-.88,14.94,14.94,0,0,0-1.68-.7c-.62-.21-1.25-.38-.38-.49v3.05c-1.29,0-1.08.1-.85.18s.46.15.71.22a24.4,24.4,0,0,1,3,1.12,8.88,8.88,0,0,1,2.28,1.44,5.43,5.43,0,0,1,1.46,2,7.27,7.27,0,0,1,.51,2.88,7.53,7.53,0,0,1-.7,3.4,6.71,6.71,0,0,1-1.82,2.3,7.9,7.9,0,0,1-2.59,1.35,12.64,12.64,0,0,1-3.29.56v4.26h-2.6v-4.33a22.9,22.9,0,0,1-4.47-.91,18.91,18.91,0,0,1-4.12-1.8l2.84-5.78a21.28,21.28,0,0,0,2,1.08,19.86,19.86,0,0,0,2,.86,10.45,10.45,0,0,0,3,.6v-3a12.31,12.31,0,0,1-2.75-.64,18.17,18.17,0,0,1-2.75-1.17,7.66,7.66,0,0,1-1.89-1.42,5.13,5.13,0,0,1-1.1-1.81,7,7,0,0,1-.35-2.34,8.16,8.16,0,0,1,.6-3.23,7.61,7.61,0,0,1,1.66-2.42,8,8,0,0,1,2.46-1.62,10.29,10.29,0,0,1,2.82-.78v-3.85h2.6v3.88a14.3,14.3,0,0,1,2.44.41c.7.18,1.37.39,2,.62s1.24.49,1.81.75l1.55.73Zm-8.94-1a1.12,1.12,0,0,0,.34.83,3.38,3.38,0,0,0,1,.59v-2.57C595,330.84,594.54,331.23,594.54,331.88ZM600,342.37a1.08,1.08,0,0,0-.41-.83,3.66,3.66,0,0,0-1.08-.63v2.51a2.2,2.2,0,0,0,1.15-.34A.86.86,0,0,0,600,342.37Z"/><path class="cls-15" d="M632.21,332.9a13.19,13.19,0,0,0-1.63-.88,14,14,0,0,0-1.67-.7c-.62-.21-1.25-.38-.48-.49v3.05c-1.2,0-1,.1-.76.18l.71.22a24,24,0,0,1,3,1.12,8.88,8.88,0,0,1,2.28,1.44,5.55,5.55,0,0,1,1.46,2,7.47,7.47,0,0,1,.5,2.88,7.66,7.66,0,0,1-.69,3.4,6.62,6.62,0,0,1-1.83,2.3,7.8,7.8,0,0,1-2.59,1.35,12.64,12.64,0,0,1-3.38.56v4.26h-2.6v-4.33a23.38,23.38,0,0,1-4.37-.91,19.21,19.21,0,0,1-4.13-1.8l2.85-5.78a20,20,0,0,0,2,1.08,19,19,0,0,0,2,.86,11.4,11.4,0,0,1,1.64.6v-3c0-.18-.66-.4-1.36-.64a18.47,18.47,0,0,1-2.74-1.17,7.3,7.3,0,0,1-1.89-1.42,5,5,0,0,1-1.1-1.81,7,7,0,0,1-.36-2.34,8,8,0,0,1,.61-3.23,7.61,7.61,0,0,1,1.66-2.42,8,8,0,0,1,2.45-1.62,10.88,10.88,0,0,1,2.73-.78v-3.85h2.6v3.88a14,14,0,0,1,2.54.41c.7.18,1.37.39,2,.62s1.25.49,1.81.75,1.09.5,1.56.73Zm-7.73-1a1.12,1.12,0,0,0,.33.83,3.38,3.38,0,0,0,1,.59v-2.57C624.93,330.84,624.48,331.23,624.48,331.88Zm4.14,10.49a1.08,1.08,0,0,0-.41-.83,3.66,3.66,0,0,0-1.08-.63v2.51a2.2,2.2,0,0,0,1.15-.34A.86.86,0,0,0,628.62,342.37Z"/><path class="cls-6" d="M654.44,76.49c.62-.17,12.15-3.06,20.59,4.4a19.67,19.67,0,0,1,6.48,13.88c.1,2.85,1.27,12.41-8.19,27.61-9.69,15.57-23.06,25.51-33.36,31.5"/><path class="cls-6" d="M509.69,76.78c-.62-.16-12.15-3.06-20.59,4.41a19.66,19.66,0,0,0-6.48,13.88c-.1,2.85-1.27,12.4,8.19,27.61,9.69,15.57,23.06,25.51,33.36,31.5"/></g><g id="Decorations"><circle class="cls-16" cx="280.96" cy="353.6" r="10.41"/><circle class="cls-5" cx="866.59" cy="498.05" r="10.41"/><circle class="cls-5" cx="249.72" cy="740.12" r="11.71"/><polygon class="cls-8" points="395.63 95.27 389.31 82.45 375.16 80.4 385.4 70.42 382.98 56.32 395.63 62.98 408.29 56.32 405.87 70.42 416.11 80.4 401.96 82.45 395.63 95.27"/><polygon class="cls-16" points="839.65 720.82 829.63 722.48 825.32 731.66 820.65 722.65 810.58 721.38 817.71 714.16 815.8 704.19 824.88 708.74 833.77 703.85 832.25 713.88 839.65 720.82"/><path class="cls-5" d="M188.57,451.57c21.17,13.16,28.32,26.47,30.71,36.67,3.81,16.27-4,26.73,4.39,40.94,5.6,9.51,11.76,9.35,19,20.48,6.57,10.08,8.32,20.65,8.77,28.05"/><path class="cls-8" d="M856.55,154.18c-21.16,13.16-28.31,26.47-30.7,36.67-3.82,16.27,4,26.73-4.39,40.94-5.6,9.51-11.76,9.36-19,20.48-6.57,10.08-8.33,20.65-8.77,28"/><path class="cls-17" d="M957.91,343.42c-.13,16.1-4.5,25.42-8.77,31.06-6.8,9-14.23,9.77-18.67,20.09-3,6.9-1.07,9.84-4.34,18.25a48.06,48.06,0,0,1-11.08,16.58"/><path class="cls-17" d="M888,677.27c21.17,13.17,28.32,26.48,30.71,36.67,3.82,16.28-4,26.73,4.39,40.95,5.6,9.5,11.76,9.35,19,20.47,6.57,10.08,8.32,20.66,8.77,28.06"/><path class="cls-17" d="M424.76,190.87c-11.4,10.48-16.17,19.61-18.36,26.28-3.49,10.65-.86,16.44-6.3,26.26-3.64,6.57-6.55,7.1-11.14,14.86a60.8,60.8,0,0,0-7.06,18.59"/></g></g></g></svg>