<svg xmlns="http://www.w3.org/2000/svg" xmlns:xlink="http://www.w3.org/1999/xlink" viewBox="0 0 31.46 31.45"><defs><linearGradient id="linear-gradient" x1="2.64" y1="28.81" x2="28.8" y2="2.66" gradientUnits="userSpaceOnUse"><stop offset="0.01" stop-color="#3542e0"/><stop offset="0.17" stop-color="#3841df"/><stop offset="0.27" stop-color="#403fda"/><stop offset="0.36" stop-color="#4e3cd2"/><stop offset="0.43" stop-color="#6337c7"/><stop offset="0.5" stop-color="#7d31b9"/><stop offset="0.56" stop-color="#9e2aa8"/><stop offset="0.62" stop-color="#c32193"/><stop offset="0.62" stop-color="#c82091"/><stop offset="0.76" stop-color="#f62b37"/><stop offset="1" stop-color="#ffc658"/></linearGradient></defs><title>insta</title><g id="Layer_2" data-name="Layer 2"><g id="Layer_1-2" data-name="Layer 1"><path d="M31.21,7.89a8.34,8.34,0,0,0-2.54-5.37A8.72,8.72,0,0,0,22.89.18C19.2,0,10.42-.15,7.33.35A7.94,7.94,0,0,0,.53,6.46c-.75,2.68-.6,15-.16,17.66A8,8,0,0,0,6.68,31c2.48.64,14.68.56,17.42.12A8,8,0,0,0,31,24.81C31.71,22.06,31.46,10.37,31.21,7.89Zm-2.9,15.72a5.33,5.33,0,0,1-5,4.75c-2.54.28-13.87.43-16.23-.23a5.16,5.16,0,0,1-3.91-4.44,105.31,105.31,0,0,1,0-15.88,5.32,5.32,0,0,1,5-4.73,110.92,110.92,0,0,1,15.49.06,5.33,5.33,0,0,1,4.74,5A112.94,112.94,0,0,1,28.31,23.61Zm-12.58-16a8.07,8.07,0,1,0,8.06,8.07A8.07,8.07,0,0,0,15.73,7.66Zm-.06,13.28a5.22,5.22,0,1,1,5.26-5.17A5.22,5.22,0,0,1,15.68,20.94ZM26,7.35a1.89,1.89,0,1,1-1.88-1.89A1.89,1.89,0,0,1,26,7.35Z" style="fill:url(#linear-gradient)"/></g></g></svg>