<svg xmlns="http://www.w3.org/2000/svg" xmlns:xlink="http://www.w3.org/1999/xlink" viewBox="0 0 1100 1000.72"><defs><style>.cls-1,.cls-10,.cls-14,.cls-15,.cls-2,.cls-3,.cls-4,.cls-6,.cls-8{fill:#273549;}.cls-18,.cls-2{stroke:#f9cadf;}.cls-12,.cls-18,.cls-2,.cls-6,.cls-7{stroke-linecap:round;}.cls-10,.cls-11,.cls-12,.cls-13,.cls-14,.cls-15,.cls-16,.cls-17,.cls-18,.cls-19,.cls-2,.cls-20,.cls-3,.cls-4,.cls-5,.cls-6,.cls-7,.cls-8{stroke-miterlimit:10;}.cls-2,.cls-3,.cls-4{stroke-width:1.47px;opacity:0.95;}.cls-15,.cls-20,.cls-3{stroke:#ff9f55;}.cls-13,.cls-14,.cls-17,.cls-4{stroke:#f9ca9e;}.cls-11,.cls-13,.cls-16,.cls-17,.cls-18,.cls-19,.cls-20,.cls-5,.cls-7{fill:none;}.cls-5,.cls-8{stroke:#8eacd8;}.cls-10,.cls-12,.cls-13,.cls-14,.cls-16,.cls-19,.cls-5,.cls-6,.cls-8{stroke-width:4px;}.cls-12,.cls-16,.cls-6,.cls-7{stroke:#3ff1ff;}.cls-11,.cls-15,.cls-17,.cls-18,.cls-20,.cls-7{stroke-width:2px;}.cls-9{fill:#8aefbf;}.cls-10,.cls-19{stroke:#8aefbf;}.cls-11{stroke:#a8eecb;}.cls-12{fill:#263238;}</style></defs><title>Dominate 2308 Electric</title><g id="Layer_2" data-name="Layer 2"><g id="Dominate"><g id="Dominate_Electric" data-name="Dominate Electric"><rect id="Back" class="cls-1" width="1100" height="1000"/><g id="Crowd"><path class="cls-2" d="M848,958.63v-44.9c0-18,19.57-32.73,43.48-32.73h0c23.92,0,43.49,14.73,43.49,32.73q-2.55,22.92-5.11,45.82"/><path class="cls-3" d="M955.78,993.59V949c0-18-19.57-32.74-43.48-32.74h0c-23.92,0-43.49,14.73-43.49,32.74q2.55,22.9,5.11,45.82"/><path class="cls-4" d="M883.35,995.25V942.51c0-21.21-23.05-38.57-51.24-38.57h0c-28.18,0-51.24,17.36-51.24,38.57q3,27,6,54"/><path class="cls-2" d="M400.75,998.17c2.48-16.11-2.77-31.38-.29-47.49C400.46,926,380.89,918,357,918h0c-23.92,0-43.49,14.73-43.49,32.73,2.56,14.44.69,33.88,3.24,48.32"/><path class="cls-4" d="M936.35,994.51c-2.48-16.11,2.77-31.38.29-47.49,0-24.66,19.56-32.73,43.48-32.73h0c23.92,0,43.49,14.73,43.49,32.73-2.56,14.45-.69,33.88-3.24,48.32"/><path class="cls-2" d="M1008,996.59c-2.49-16.1,2.77-31.38.28-47.49,0-24.66,19.57-32.73,43.49-32.73h0c23.91,0,43.48,14.73,43.48,32.73-2.55,14.45-.68,33.88-3.24,48.32"/><path class="cls-4" d="M164.09,996.09c2.49-16.11-2.77-31.38-.29-47.49,0-24.66-19.56-32.73-43.48-32.73h0c-23.92,0-43.48,14.73-43.48,32.73,2.55,14.44.68,33.88,3.23,48.32"/><path class="cls-4" d="M276.53,995.25v-45c0-18-19.57-32.73-43.48-32.73h0c-23.92,0-43.49,14.73-43.49,32.73q2.55,22.92,5.11,45.83"/><path class="cls-3" d="M232.85,996.09V936.35c0-24.13-19.57-43.87-43.48-43.87h0c-23.92,0-43.49,19.74-43.49,43.87q2.56,30.71,5.11,61.4"/><path class="cls-2" d="M92.48,998.17c2.48-16.11-2.78-31.38-.29-47.49C92.19,926,72.62,918,48.71,918h0c-23.92,0-43.49,14.73-43.49,32.73,2.55,14.44.69,33.88,3.24,48.32"/><path class="cls-2" d="M331.34,997.82l23-51.38c9.28-23.1-1.86-46.25-24.76-51.46h0c-11.44-2.61-23.74-.25-34.35,5.64-14.92,8.3-21.68,21.87-24.13,26.87-13.15,26.89-16.88,58.39-18.44,69.56"/><path class="cls-2" d="M699.69,996.59c-2.48-16.1,2.77-31.38.29-47.49,0-24.66,19.57-32.73,43.48-32.73h0c23.92,0,43.49,14.73,43.49,32.73-2.56,14.45-.69,33.88-3.24,48.32"/></g><g id="Winner"><path id="Neck" class="cls-5" d="M588.42,736.64a40.72,40.72,0,0,1-75.48,0V696c3.08,2.74,17.83,15.27,39.91,14.42A57.54,57.54,0,0,0,588.42,696Z"/><g id="Torso_and_Arms" data-name="Torso and Arms"><path id="Torso_and_Arms-2" data-name="Torso and Arms" class="cls-6" d="M404.19,566a398.56,398.56,0,0,1,71.58,144.26l35.79,11.91,38.66,22.16L587,722.17l28.63-11.91A462.55,462.55,0,0,1,699.61,566L620.88,431.3c1.89,1.07,9.41,5,18.48,2.72s16.42-10.24,18.61-20.29A558.32,558.32,0,0,1,773.14,557.54a732,732,0,0,1-29.46,137.19,730.91,730.91,0,0,1-51.23,121.79q-13,91.1-26.08,182.2l-231.65-.87Q419.45,903.94,404.19,810c-16.43-30.55-36.21-71.69-50.85-115.28-17.58-52.3-24.25-96-29.19-135.24a702.17,702.17,0,0,1,123-145.76c.75,1.81,5.45,12.55,17.57,16.92a30.45,30.45,0,0,0,20.17,0Q444.53,498.32,404.19,566Z"/><path id="Hand_Right" data-name="Hand Right" class="cls-5" d="M605.57,407.2c.46,2.64,14,22.95,14,22.95h0c1.14.51,13.58,5.78,25.27-1.4a27.41,27.41,0,0,0,11.82-16.16q-3.1-4.39-6.19-8.8l6.19-34.8-8.78-32.28c-.72-2.65-2.48-2.9-3.91-.56l-38.61,63.21A26.5,26.5,0,0,0,605.57,407.2Z"/><path id="Hand_Left" data-name="Hand Left" class="cls-5" d="M500.09,405.65c-4.89,7.12-14,23-14,23-2,.58-13.54,3.67-24.73-3.1A31,31,0,0,1,449,411l6.18-8.79L449,367.44l8.78-32.29c.72-2.64,2.48-2.89,3.91-.55l38.61,63.21A7.21,7.21,0,0,1,500.09,405.65Z"/><path id="Crease_Elbow_Left" data-name="Crease Elbow Left" class="cls-7" d="M699.9,564.35c2.65,9,18.19,12.26,34.75,7.37"/><path id="Crease_Elbow_Right" data-name="Crease Elbow Right" class="cls-7" d="M402.65,565.39c-3,10.35-24.89,13-48.83,5.94"/><path id="Shirt_Lining" data-name="Shirt Lining" class="cls-6" d="M552.22,964.25c.17,8.68.23,25.36.4,34"/><path id="Crease_Armpit_Left" data-name="Crease Armpit Left" class="cls-7" d="M616.76,712.59c.21,10.88,2.31,50.54,32.65,77.74a91.21,91.21,0,0,0,23.42,15.18"/><path id="Crease_Armpit_Right" data-name="Crease Armpit Right" class="cls-7" d="M475.77,710.42c.36,3.74,1.65,21.31-10.73,35.23a42.86,42.86,0,0,1-15.18,10.84"/><path id="Pocket" class="cls-8" d="M634.27,852.77a51.57,51.57,0,0,1-52.06,0V800.71c8.36,0,11.52,2.61,19.88,2.61,9,0,23.19-2.61,32.18-2.61Z"/><g id="The_Next_Big_Thing" data-name="The Next Big Thing"><path class="cls-9" d="M594.65,811.61h-1.76v4.68H591.2v-4.68h-1.78v-1.48h5.23Z"/><path class="cls-9" d="M600.71,810.13v6.16H599v-2.41H597v2.41h-1.69v-6.16H597v2.27H599v-2.27Z"/><path class="cls-9" d="M606.15,814.81v1.48h-4.38v-6.16h4.31v1.48h-2.62v.86h2.23v1.37h-2.23v1Z"/><path class="cls-9" d="M591.55,823.66v3h-1.69v-6.16h1.32l2.47,3.13v-3.13h1.69v6.16H594Z"/><path class="cls-9" d="M600.78,825.21v1.48H596.4v-6.16h4.3V822h-2.61v.86h2.23v1.37h-2.23v1Z"/><path class="cls-9" d="M602.77,820.53l1.12,1.94,1.12-1.94h1.82l-2.05,3.12,2,3h-1.82l-1.05-1.86-1,1.86H601l2-3-2-3.12Z"/><path class="cls-9" d="M612.06,822h-1.77v4.68H608.6V822h-1.78v-1.48h5.24Z"/><path class="cls-9" d="M595.1,835.51a1.34,1.34,0,0,1-.18.71,1.3,1.3,0,0,1-.47.49,2.24,2.24,0,0,1-.71.28,3.88,3.88,0,0,1-.85.1h-3v-6.16h3.57a1.21,1.21,0,0,1,.58.14,1.29,1.29,0,0,1,.44.36,1.68,1.68,0,0,1,.29.5,1.91,1.91,0,0,1,.1.58,1.68,1.68,0,0,1-.23.83,1.32,1.32,0,0,1-.66.59,1.68,1.68,0,0,1,.84.54A1.65,1.65,0,0,1,595.1,835.51Zm-3.55-3.14v.94h1.15a.59.59,0,0,0,.32-.09c.1-.06.14-.19.14-.38a.46.46,0,0,0-.12-.36.41.41,0,0,0-.28-.11Zm1.83,2.79a.62.62,0,0,0-.12-.38.39.39,0,0,0-.31-.15h-1.4v1h1.34a.51.51,0,0,0,.35-.13A.48.48,0,0,0,593.38,835.16Z"/><path class="cls-9" d="M595.84,837.09v-6.16h1.69v6.16Z"/><path class="cls-9" d="M602.76,836.57a2.26,2.26,0,0,1-1.51.56,3.21,3.21,0,0,1-1.15-.21,2.89,2.89,0,0,1-1-.62,3,3,0,0,1-.65-1,3.52,3.52,0,0,1-.24-1.34,3,3,0,0,1,.24-1.21,2.86,2.86,0,0,1,.67-1,3,3,0,0,1,1-.65,3.19,3.19,0,0,1,1.24-.24,3.44,3.44,0,0,1,.8.09,2.89,2.89,0,0,1,.71.27,3.07,3.07,0,0,1,.58.42,2.32,2.32,0,0,1,.43.56l-1.26,1a1.39,1.39,0,0,0-.55-.58,1.43,1.43,0,0,0-.77-.22,1.23,1.23,0,0,0-.55.12,1.31,1.31,0,0,0-.44.34,1.56,1.56,0,0,0-.28.51,2,2,0,0,0,0,1.32,1.46,1.46,0,0,0,.29.5,1.31,1.31,0,0,0,.44.33,1.41,1.41,0,0,0,.59.12,1.69,1.69,0,0,0,1.29-.61h-1.06v-1.21h2.53v3.28h-1.4Z"/><path class="cls-9" d="M594.65,842.8h-1.76v4.68H591.2V842.8h-1.78v-1.47h5.23Z"/><path class="cls-9" d="M600.71,841.33v6.15H599v-2.4H597v2.4h-1.69v-6.15H597v2.27H599v-2.27Z"/><path class="cls-9" d="M601.77,847.48v-6.15h1.69v6.15Z"/><path class="cls-9" d="M606.21,844.46v3h-1.69v-6.15h1.31l2.47,3.13v-3.13H610v6.15h-1.34Z"/><path class="cls-9" d="M615.23,847a2.3,2.3,0,0,1-1.52.56,2.93,2.93,0,0,1-1.14-.22,2.76,2.76,0,0,1-1-.61,3.32,3.32,0,0,1-.65-1,3.52,3.52,0,0,1-.24-1.34,3,3,0,0,1,.24-1.21,3.06,3.06,0,0,1,.67-1,2.93,2.93,0,0,1,1-.65,3.24,3.24,0,0,1,1.25-.24,3.42,3.42,0,0,1,.79.09,2.75,2.75,0,0,1,.71.27,2.78,2.78,0,0,1,.58.42,2.09,2.09,0,0,1,.43.56l-1.26,1a1.43,1.43,0,0,0-.54-.58,1.46,1.46,0,0,0-.78-.22,1.26,1.26,0,0,0-.55.12,1.18,1.18,0,0,0-.43.34,1.58,1.58,0,0,0-.29.51,2.23,2.23,0,0,0,0,1.32,1.64,1.64,0,0,0,.29.5,1.35,1.35,0,0,0,1,.45,1.72,1.72,0,0,0,1.3-.61h-1.07v-1.21h2.53v3.27h-1.39Z"/></g></g><g id="Tie"><path id="Tie_Tail" data-name="Tie Tail" class="cls-10" d="M568.41,950c-5.26,5.83-10.52,11.42-15.77,17.25-5.6-5.48-11.2-11.76-16.8-17.25,3.07-63.15,6.3-126.85,9.38-190a5,5,0,0,0,8,0C558.92,823,562.71,887,568.41,950Z"/><path id="Tie_Notch" data-name="Tie Notch" class="cls-10" d="M554.32,756.71a.91.91,0,0,1-.41.5,8.61,8.61,0,0,1-4.6,1.29,16.3,16.3,0,0,1-4.72-1.28,1,1,0,0,1-.49-.55c-2.22-6-7.63-13.72-10.49-20.07a1,1,0,0,1,1.32-1.33c3.63,1.61,10.08,4.27,13.47,4.48,4.11.26,11.37-2.42,15.23-3.94a1,1,0,0,1,1.28,1.34C562.16,743.22,556.32,751.07,554.32,756.71Z"/><g id="Tie_Clip" data-name="Tie Clip"><line class="cls-11" x1="556.52" y1="923.01" x2="568.41" y2="923.01"/><image width="1600" height="1000" transform="translate(540.71 916.51) scale(0.01)" xlink:href="../../PaperPlane Evo16x10.png"/></g></g><g id="Face"><path id="Face_Outline" data-name="Face Outline" class="cls-5" d="M600.81,681.63c-1.4,2.19-17.76,27.77-48.34,28.76-21.47.7-41.81-11.49-53.12-30.14a229.71,229.71,0,0,1-9.78-59.87c-.65-22.43-.69-33.75,6.84-43.92,14.47-19.54,46.39-17.28,57.69-16.48,13.16.93,34.72,2.45,46.86,18.22,8.26,10.74,8.62,22.58,8.77,43A203.1,203.1,0,0,1,600.81,681.63Z"/><path id="Lips_Single" data-name="Lips Single" class="cls-5" d="M533,672.67a24.25,24.25,0,0,0,33.62,0"/><path class="cls-12" d="M490.26,607.13c1.33-10.35,3.23-25.09,10.81-27.41,3.94-1.21,7.41,1.53,12-1.15,3.15-1.83,2.47-3.64,5.77-5.88,5-3.35,11.33-1.63,13.92-2.19,1.43-.31,9.07,2.72,11,2.15,1.37-.42,2.7.13,4,.46,1.78.46,7.81-.17,9.43-.33a61.58,61.58,0,0,1,7.57-.23c3.68.08,6.74,1.63,10.35,1.88a57.28,57.28,0,0,1,11.76,1.86c4.32,1.23,7.2,2,9.9,4.55,5.34,5,5.49,12.52,5.5,13.19,0,4.22,1.87,14.32,3.46,16.49,1.78,2.44,1.9,13.83,3,21.89.41,2.88,1.57,3,2.52.24,2.59-7.58,4.2-13,3.89-16.72-.12-1.39,3.07-14.52,4.36-17.88,1.85-4.81,4.67-21.38,4.12-22.48a38.79,38.79,0,0,1-2.79-7.76c-1.35-4.93-1.76-11.13-3.94-15.62a29.67,29.67,0,0,0-5.23-7.11c-2.79-2.67-4.59-10.65-7.75-13.66a30.19,30.19,0,0,0-6.49-5.13,16.1,16.1,0,0,1-6.16-5.58c-.53-.71-1.51-2.6-2.33-3-1.19-.56-9.3,0-11.77-1.88-2.26-1.73-4.46-3.42-6.87-4.92-4.85-3-11-1.9-16.66-1.9a34.8,34.8,0,0,0-16.44,3.65c-2.56,1.26-4.74,3.84-7.41,4.81-2.36.85-5.79.24-8.32.24-6,0-10.6,2.85-15.66,5.83-2.34,1.37-4.48,3.12-6.85,4.43-1.95,1.07-5,1.34-6.53,2.81-2.14,2.07-3.37,6.77-4.74,9.43-1,2-6.92,10.63-7.89,13.22-1.18,3.15-1.41,7.13-2,10.44-2.1,11.85-1.9,23-.43,34.89,1.74,14.08,7.64,23.22,11.06,31.52C489.68,633.21,489.32,614.43,490.26,607.13Z"/></g></g><g id="Trophy"><path id="_1" data-name="1" class="cls-13" d="M638.7,56.3a488.4,488.4,0,0,1-82.86,7.4,488.23,488.23,0,0,1-86.33-7.4,6.51,6.51,0,0,1,0-13,552.92,552.92,0,0,0,84.59,6.51,553,553,0,0,0,84.6-6.51,6.51,6.51,0,0,1,0,13Z"/><path id="_4" data-name="4" class="cls-13" d="M581.91,219.49a94.91,94.91,0,0,1-54.66,0V202.9a100.18,100.18,0,0,0,54.66,0Z"/><path id="_5" data-name="5" class="cls-13" d="M535,222.44a79.8,79.8,0,0,0,39.5,0c.24.41,1.77,1.43,1,2.26-4.49,5.08-12.65,16.25-13,31.73-.39,17.94,9.86,35.09,26.48,45,1.18.7,6.75,3.64,5.38,3.65-40.35.33-40.35.34-80.69,0-1.4,0,4.19-2.25,5.39-3,16.87-9.93,27.42-27.11,27.32-45.24-.09-15.62-8.07-27-12.48-32.24A1.36,1.36,0,0,1,535,222.44Z"/><path id="Handle_Right" data-name="Handle Right" class="cls-13" d="M627.44,89.12c.62-.17,12.15-3.06,20.59,4.4a19.67,19.67,0,0,1,6.48,13.89c.1,2.85,1.27,12.4-8.19,27.61-9.69,15.56-23.06,25.51-33.36,31.5"/><path id="Handle_Left" data-name="Handle Left" class="cls-13" d="M482.69,89.42c-.62-.17-12.15-3.06-20.59,4.4a19.67,19.67,0,0,0-6.48,13.88c-.1,2.85-1.27,12.41,8.19,27.61,9.69,15.57,23.06,25.51,33.36,31.5"/><path id="_7" data-name="7" class="cls-13" d="M618.37,318.08H489.84l1.66-2.81a20.82,20.82,0,0,1,17.91-10.21h89.38a20.82,20.82,0,0,1,17.92,10.21Z"/><rect id="_6" data-name="6" class="cls-14" x="531.16" y="246.5" width="45.55" height="23.43" rx="11.61" ry="11.61"/><path id="_2" data-name="2" class="cls-14" d="M614.32,163.63a61.7,61.7,0,0,1-117.85,0L477.06,61.14a2.6,2.6,0,0,1,3-3A399.62,399.62,0,0,0,551.5,65a400.33,400.33,0,0,0,76.72-6.92,2.59,2.59,0,0,1,3,3Q622.79,112.35,614.32,163.63Z"/><path id="_8b" data-name="8b" class="cls-14" d="M639.17,381.85H467.39a5.23,5.23,0,0,1-5.21-5.21V324.58c0-2.86,24.47-5.2,27.33-5.2H618.35c2.86,0,26,2.34,26,5.2v52.06A5.23,5.23,0,0,1,639.17,381.85Z"/><g id="Dollars"><path class="cls-9" d="M519,345.53a13.19,13.19,0,0,0-1.63-.88,12.56,12.56,0,0,0-1.67-.69c-.62-.22-1.25-.38-1.49-.5v3.05c-.19.05,0,.11.25.19l.71.22a24,24,0,0,1,3,1.11,9.46,9.46,0,0,1,2.28,1.44,5.55,5.55,0,0,1,1.46,2,7.47,7.47,0,0,1,.5,2.88,7.66,7.66,0,0,1-.69,3.4,6.53,6.53,0,0,1-1.83,2.3,8,8,0,0,1-2.59,1.36,14.79,14.79,0,0,1-4.39.55v4.26h-1.3v-4.32A22,22,0,0,1,507,361a19.2,19.2,0,0,1-4.13-1.79l2.84-5.79a22.7,22.7,0,0,0,4,1.95,10.79,10.79,0,0,0,3.24.59v-3a11.77,11.77,0,0,1-3-.64,17.47,17.47,0,0,1-2.74-1.17,7.3,7.3,0,0,1-1.89-1.42,4.9,4.9,0,0,1-1.1-1.81,7,7,0,0,1-.36-2.33,8,8,0,0,1,.61-3.24,7.46,7.46,0,0,1,1.66-2.41,8.26,8.26,0,0,1,2.45-1.63,10.33,10.33,0,0,1,3-.78v-3.85h1.3v3.89a15.61,15.61,0,0,1,3.55.4,19.68,19.68,0,0,1,2,.63c.64.23,1.25.48,1.81.74l1.56.73Zm-8.75-1a1.07,1.07,0,0,0,.34.83,3.08,3.08,0,0,0,1,.59v-2.57C510.73,343.48,510.28,343.86,510.28,344.51ZM515.73,355a1.1,1.1,0,0,0-.41-.83,3.89,3.89,0,0,0-1.08-.62v2.5a2.15,2.15,0,0,0,1.15-.34A.87.87,0,0,0,515.73,355Z"/><path class="cls-9" d="M547.75,345.53a12.37,12.37,0,0,0-1.62-.88,13.31,13.31,0,0,0-1.68-.69c-.62-.22-1.24-.38-1.58-.5v3.05c-.09.05.12.11.35.19s.46.15.71.22a24.43,24.43,0,0,1,3,1.11,9.33,9.33,0,0,1,2.29,1.44,5.52,5.52,0,0,1,1.45,2,7.27,7.27,0,0,1,.51,2.88,7.66,7.66,0,0,1-.69,3.4,6.64,6.64,0,0,1-1.83,2.3,8.11,8.11,0,0,1-2.59,1.36,15.08,15.08,0,0,1-4.49.55v4.26h-1.3v-4.32a22.36,22.36,0,0,1-4.56-.92,19,19,0,0,1-4.13-1.79l2.84-5.79a17.4,17.4,0,0,0,2,1.08,17.81,17.81,0,0,0,2,.87,10.6,10.6,0,0,0,3.14.59v-3a11.86,11.86,0,0,1-2.85-.64,17.47,17.47,0,0,1-2.74-1.17,7.54,7.54,0,0,1-1.9-1.42,5.18,5.18,0,0,1-1.1-1.81,7.22,7.22,0,0,1-.35-2.33,8,8,0,0,1,.61-3.24A7.31,7.31,0,0,1,534.9,340a8,8,0,0,1,2.45-1.63,10.35,10.35,0,0,1,2.92-.78v-3.85h1.3v3.89a16,16,0,0,1,3.65.4,20.49,20.49,0,0,1,2,.63c.64.23,1.24.48,1.81.74l1.56.73Zm-8.84-1a1.11,1.11,0,0,0,.34.83,3.08,3.08,0,0,0,1,.59v-2.57C539.36,343.48,538.91,343.86,538.91,344.51ZM544.36,355a1.1,1.1,0,0,0-.41-.83,3.89,3.89,0,0,0-1.08-.62v2.5a2.15,2.15,0,0,0,1.15-.34A.87.87,0,0,0,544.36,355Z"/><path class="cls-9" d="M576.48,345.53a13.81,13.81,0,0,0-1.62-.88,13.31,13.31,0,0,0-1.68-.69c-.62-.22-1.25-.38-.38-.5v3.05c-1.29.05-1.08.11-.85.19s.46.15.71.22a24.43,24.43,0,0,1,3,1.11,9.46,9.46,0,0,1,2.28,1.44,5.43,5.43,0,0,1,1.46,2,7.27,7.27,0,0,1,.51,2.88,7.53,7.53,0,0,1-.7,3.4,6.62,6.62,0,0,1-1.82,2.3,8.11,8.11,0,0,1-2.59,1.36,12.67,12.67,0,0,1-3.29.55v4.26h-2.6v-4.32a23,23,0,0,1-4.47-.92,18.9,18.9,0,0,1-4.12-1.79l2.84-5.79a17.4,17.4,0,0,0,2,1.08,17.81,17.81,0,0,0,2,.87,10.51,10.51,0,0,0,3,.59v-3a11.77,11.77,0,0,1-2.75-.64,17.21,17.21,0,0,1-2.75-1.17,7.66,7.66,0,0,1-1.89-1.42,5,5,0,0,1-1.1-1.81,7,7,0,0,1-.35-2.33,8.21,8.21,0,0,1,.6-3.24,7.46,7.46,0,0,1,1.66-2.41,8.18,8.18,0,0,1,2.46-1.63,10.66,10.66,0,0,1,2.82-.78v-3.85h2.6v3.89a14.4,14.4,0,0,1,2.44.4,20.69,20.69,0,0,1,2,.63c.64.23,1.24.48,1.81.74l1.55.73Zm-8.94-1a1.11,1.11,0,0,0,.34.83,3.19,3.19,0,0,0,1,.59v-2.57C568,343.48,567.54,343.86,567.54,344.51ZM573,355a1.1,1.1,0,0,0-.41-.83,3.89,3.89,0,0,0-1.08-.62v2.5a2.12,2.12,0,0,0,1.15-.34A.85.85,0,0,0,573,355Z"/><path class="cls-9" d="M605.21,345.53a13.19,13.19,0,0,0-1.63-.88,12.56,12.56,0,0,0-1.67-.69c-.62-.22-1.25-.38-.48-.5v3.05c-1.2.05-1,.11-.76.19l.71.22a24,24,0,0,1,3,1.11,9.46,9.46,0,0,1,2.28,1.44,5.55,5.55,0,0,1,1.46,2,7.47,7.47,0,0,1,.5,2.88,7.66,7.66,0,0,1-.69,3.4,6.53,6.53,0,0,1-1.83,2.3,8,8,0,0,1-2.59,1.36,12.67,12.67,0,0,1-3.38.55v4.26h-2.6v-4.32a23.46,23.46,0,0,1-4.37-.92A19.2,19.2,0,0,1,589,359.2l2.85-5.79a16.57,16.57,0,0,0,2,1.08,17.08,17.08,0,0,0,2,.87,11.92,11.92,0,0,1,1.64.59v-3c0-.18-.66-.39-1.36-.64a17.47,17.47,0,0,1-2.74-1.17,7.3,7.3,0,0,1-1.89-1.42,4.9,4.9,0,0,1-1.1-1.81,7,7,0,0,1-.36-2.33,8,8,0,0,1,.61-3.24,7.46,7.46,0,0,1,1.66-2.41,8.26,8.26,0,0,1,2.45-1.63,11.31,11.31,0,0,1,2.73-.78v-3.85h2.6v3.89a14.12,14.12,0,0,1,2.54.4,19.68,19.68,0,0,1,2,.63c.65.23,1.25.48,1.81.74l1.56.73Zm-7.73-1a1.1,1.1,0,0,0,.33.83,3.19,3.19,0,0,0,1,.59v-2.57C597.93,343.48,597.48,343.86,597.48,344.51ZM601.62,355a1.1,1.1,0,0,0-.41-.83,3.89,3.89,0,0,0-1.08-.62v2.5a2.12,2.12,0,0,0,1.15-.34A.85.85,0,0,0,601.62,355Z"/></g><g id="Seed_Fund" data-name="Seed Fund"><path class="cls-9" d="M519.55,99.13a17.36,17.36,0,0,0-2.1-1.08,18.23,18.23,0,0,0-2-.77,7.66,7.66,0,0,0-2.22-.35,3,3,0,0,0-1.4.27.94.94,0,0,0-.53.91,1,1,0,0,0,.31.78,2.84,2.84,0,0,0,.88.56,11.12,11.12,0,0,0,1.4.49l1.88.57a26.15,26.15,0,0,1,3,1.12,9.73,9.73,0,0,1,2.29,1.44,5.52,5.52,0,0,1,1.45,2A7.27,7.27,0,0,1,523,108a7.59,7.59,0,0,1-.8,3.64,6.61,6.61,0,0,1-2.09,2.35,8.8,8.8,0,0,1-3,1.27,14.18,14.18,0,0,1-3.3.39,17.94,17.94,0,0,1-2.7-.21,21.8,21.8,0,0,1-2.76-.57,23.34,23.34,0,0,1-2.64-.88,16.55,16.55,0,0,1-2.35-1.15l2.84-5.79a18.86,18.86,0,0,0,2.47,1.32,17.27,17.27,0,0,0,2.45.91,9.52,9.52,0,0,0,2.79.41,2.84,2.84,0,0,0,1.51-.29.87.87,0,0,0,.42-.76,1.09,1.09,0,0,0-.42-.86,3.74,3.74,0,0,0-1.17-.63q-.74-.27-1.71-.54c-.64-.18-1.32-.39-2-.64a17.07,17.07,0,0,1-2.74-1.17,7.54,7.54,0,0,1-1.9-1.42,5,5,0,0,1-1.1-1.81,7,7,0,0,1-.35-2.33,8.1,8.1,0,0,1,.72-3.52,7.33,7.33,0,0,1,2-2.54A8.88,8.88,0,0,1,510,91.6a10.9,10.9,0,0,1,3.4-.53,12.8,12.8,0,0,1,2.57.26,19.93,19.93,0,0,1,2.42.64,22.22,22.22,0,0,1,2.19.85c.67.3,1.28.59,1.82.86Z"/><path class="cls-9" d="M549.38,109.85v5.21H532.46V91.63h16.92v5.21H539v3.9h9.11V106H539v3.9Z"/><path class="cls-9" d="M576.71,109.85v5.21H559.79V91.63h16.92v5.21H566.29v3.9h9.11V106h-9.11v3.9Z"/><path class="cls-9" d="M587.12,115.06V91.63h9a13.27,13.27,0,0,1,5.11.92,10.35,10.35,0,0,1,5.94,6.22,13.56,13.56,0,0,1,.76,4.54,13.23,13.23,0,0,1-.84,4.83,10.52,10.52,0,0,1-2.4,3.7,10.63,10.63,0,0,1-3.73,2.37,13.12,13.12,0,0,1-4.84.85ZM602,103.31a8.5,8.5,0,0,0-.39-2.64,5.89,5.89,0,0,0-1.11-2,5,5,0,0,0-1.78-1.32,5.57,5.57,0,0,0-2.35-.47h-2.75v13h2.75a5.55,5.55,0,0,0,2.39-.49,5.12,5.12,0,0,0,1.78-1.37,6.16,6.16,0,0,0,1.09-2.08A9,9,0,0,0,602,103.31Z"/><path class="cls-9" d="M506.43,146.29V122.86h15.62v5.21H511.64V132h9.11v5.21h-9.11v9.11Z"/><path class="cls-9" d="M538.3,141.24a4.08,4.08,0,0,0,2.1-.51,4.24,4.24,0,0,0,1.42-1.34,6,6,0,0,0,.8-1.91,10.43,10.43,0,0,0,.25-2.26V122.86h6.51v12.36a16.09,16.09,0,0,1-.66,4.68,10.11,10.11,0,0,1-2,3.77,9.63,9.63,0,0,1-3.46,2.51,12.24,12.24,0,0,1-4.92.91,12,12,0,0,1-5-1,9.76,9.76,0,0,1-3.43-2.59,10.37,10.37,0,0,1-2-3.77,16.5,16.5,0,0,1-.62-4.55V122.86h6.51v12.36a10.08,10.08,0,0,0,.25,2.28,6,6,0,0,0,.8,1.93,3.92,3.92,0,0,0,3.49,1.81Z"/><path class="cls-9" d="M563.69,134.77v11.52h-6.5V122.86h5l9.34,11.91V122.86H578v23.43h-5.08Z"/><path class="cls-9" d="M585.82,146.29V122.86h9a13.14,13.14,0,0,1,5.12.93,10.35,10.35,0,0,1,5.94,6.22,13.54,13.54,0,0,1,.76,4.53,13.25,13.25,0,0,1-.85,4.84,10.32,10.32,0,0,1-2.39,3.69,10.51,10.51,0,0,1-3.73,2.38,13.34,13.34,0,0,1-4.85.84Zm14.88-11.75a8.5,8.5,0,0,0-.39-2.64,6.08,6.08,0,0,0-1.11-2,5,5,0,0,0-1.78-1.32,5.77,5.77,0,0,0-2.35-.47h-2.75v13h2.75a5.55,5.55,0,0,0,2.39-.49,5.1,5.1,0,0,0,1.78-1.37,6.16,6.16,0,0,0,1.09-2.08A8.92,8.92,0,0,0,600.7,134.54Z"/></g></g><g id="Decorations"><circle class="cls-15" cx="256.96" cy="350.6" r="10.41"/><circle class="cls-16" cx="842.59" cy="495.05" r="10.41"/><circle class="cls-17" cx="225.72" cy="737.12" r="11.71"/><polygon class="cls-18" points="371.63 92.27 365.31 79.45 351.16 77.4 361.4 67.42 358.98 53.32 371.63 59.98 384.29 53.32 381.87 67.42 392.11 77.4 377.96 79.45 371.63 92.27"/><polygon class="cls-19" points="815.65 717.82 805.63 719.48 801.32 728.66 796.65 719.65 786.58 718.38 793.71 711.16 791.8 701.19 800.88 705.74 809.77 700.85 808.25 710.88 815.65 717.82"/><path class="cls-19" d="M164.57,448.57c21.17,13.16,28.32,26.47,30.71,36.67,3.81,16.27-4,26.73,4.39,40.94,5.6,9.51,11.76,9.35,19,20.48,6.57,10.08,8.32,20.65,8.77,28.05"/><path class="cls-18" d="M832.55,151.18c-21.16,13.16-28.31,26.47-30.7,36.67-3.82,16.27,4,26.73-4.39,40.94-5.6,9.51-11.76,9.36-19,20.48-6.57,10.08-8.33,20.65-8.77,28"/><path class="cls-20" d="M933.91,340.42c-.13,16.1-4.5,25.42-8.77,31.06-6.8,9-14.23,9.77-18.67,20.09-3,6.9-1.07,9.84-4.34,18.25a48.06,48.06,0,0,1-11.08,16.58"/><path class="cls-20" d="M864,674.27c21.17,13.17,28.32,26.48,30.71,36.67,3.82,16.28-4,26.73,4.39,40.95,5.6,9.5,11.76,9.35,19,20.47,6.57,10.08,8.32,20.66,8.77,28.06"/><path class="cls-16" d="M400.76,187.87c-11.4,10.48-16.17,19.61-18.36,26.28-3.49,10.65-.86,16.44-6.3,26.26-3.64,6.57-6.55,7.1-11.14,14.86a60.8,60.8,0,0,0-7.06,18.59"/><line class="cls-13" x1="279.31" y1="998.29" x2="825.55" y2="998.29"/></g></g></g></g></svg>