<svg xmlns="http://www.w3.org/2000/svg" xmlns:xlink="http://www.w3.org/1999/xlink" viewBox="0 0 1100 1000"><defs><style>.cls-1,.cls-10,.cls-14,.cls-20{fill:#273549;}.cls-11,.cls-12,.cls-13,.cls-15,.cls-16,.cls-18,.cls-19,.cls-2,.cls-21,.cls-3,.cls-4,.cls-8,.cls-9{fill:none;}.cls-10,.cls-11,.cls-12,.cls-2,.cls-9{stroke:#f9cadf;}.cls-10,.cls-11,.cls-12,.cls-13,.cls-14,.cls-15,.cls-16,.cls-17,.cls-18,.cls-19,.cls-2,.cls-20,.cls-21,.cls-3,.cls-4,.cls-8,.cls-9{stroke-miterlimit:10;}.cls-10,.cls-14,.cls-15,.cls-16,.cls-17,.cls-2,.cls-8,.cls-9{stroke-width:4px;}.cls-3,.cls-8{stroke:#f9ca9e;}.cls-3{stroke-width:4.25px;}.cls-4{stroke:#ff9f55;stroke-width:3.92px;}.cls-5{font-size:36.92px;fill:#ff9f55;}.cls-5,.cls-6{font-family:Raleway-Black, Raleway;}.cls-6{font-size:40px;fill:#f9cadf;}.cls-7{fill:#f9ca9e;}.cls-10,.cls-11,.cls-12,.cls-19,.cls-20,.cls-9{stroke-linecap:round;}.cls-11,.cls-13,.cls-21{stroke-width:2px;}.cls-12{stroke-width:4.21px;}.cls-13,.cls-16,.cls-17{stroke:#3ff1ff;}.cls-14,.cls-15,.cls-18,.cls-21{stroke:#8aefbf;}.cls-17{fill:#273648;}.cls-19,.cls-20{stroke:#16df82;stroke-width:1.06px;}</style><image id="image" width="1600" height="1000" xlink:href="../../PaperPlane Evo16x10.png"/></defs><title>Mature 2308 Electric</title><g id="Layer_2" data-name="Layer 2"><g id="Mature"><g id="Mature_Electric" data-name="Mature Electric"><rect id="Back" class="cls-1" width="1100" height="1000"/><g id="Podium"><line id="Silver" class="cls-2" x1="9.48" y1="940" x2="369.48" y2="940"/><line id="Gold" class="cls-3" x1="367.34" y1="893" x2="727.34" y2="893"/><line id="Bronze" class="cls-4" x1="724.83" y1="947.33" x2="974.83" y2="947.33"/><text class="cls-5" transform="translate(839.7 979.69) scale(1.08 1)">3</text><text class="cls-6" transform="translate(172.7 975.33)">2</text><path id="_1" data-name="1" class="cls-7" d="M533.36,937V914.85a13.47,13.47,0,0,1-3.11,1.34,21.15,21.15,0,0,1-3.66.68V910a24.62,24.62,0,0,0,5.41-1.55,27.55,27.55,0,0,0,5.12-2.92h5.39V937Z"/></g><g id="Male_2" data-name="Male 2"><g id="Face"><path id="Ear_Left" data-name="Ear Left" class="cls-8" d="M882.85,183c0-.1,6.74.51,9.28,3.57,5.27,6.33-8.3,19.43-8.31,19.14C883.65,201.82,883.13,189.43,882.85,183Z"/><path id="Ear_Right" data-name="Ear Right" class="cls-8" d="M809.4,187.55c-.17-3.32-7.32.79-9.27,3.56-4.52,6.42,10.94,20,10.85,18.8C810.37,202.62,809.84,196.27,809.4,187.55Z"/><line id="Neck_Left" data-name="Neck Left" class="cls-8" x1="875.44" y1="234.88" x2="877.87" y2="256.75"/><line id="Neck_Right" data-name="Neck Right" class="cls-8" x1="823" y1="235.73" x2="822.31" y2="258.43"/><path id="Face_Outline" data-name="Face Outline" class="cls-8" d="M849.07,246.73a43.07,43.07,0,0,0,23.39-9.21,42.6,42.6,0,0,0,12-15.59q-1.43-33.31-2.84-66.63a40.57,40.57,0,0,0-8.19-13.86c-3.56-3.93-20.08-19.83-12.59-9.37-12.95-13-21.33-23.09-15.36-3.7-8.08-19.45-9.38-17.38-16.72,3.28,4.62-19.47-7.19.74-13.69,9.93,0-2-6.8,9.38-8.58,15.14l5.67,68a55.66,55.66,0,0,0,36.86,22Z"/><path id="Hairline" class="cls-8" d="M809.4,191a84.07,84.07,0,0,0,6-10.09c1.3-2.58,2.38-5,3.28-7.37a1.2,1.2,0,0,1,1.9-.47A30,30,0,0,0,838,180.5c13.06,1,21.78-7.3,23.12-8.62a7.25,7.25,0,0,1,10.63,0,47.27,47.27,0,0,0,11.42,18.6"/><path id="Smile" class="cls-8" d="M834.19,221.22a30.21,30.21,0,0,0,28-.36"/></g><g id="Legs"><path id="Leg_Left" data-name="Leg Left" class="cls-8" d="M882.91,921.3a26.86,26.86,0,0,0,18.61,0,25.62,25.62,0,0,0,9.28-6.23q-.33-30.65-.65-61.3c-2.55,3.06-10.15,11.29-22.45,13.31a34.59,34.59,0,0,1-11.17,0l2.81,23.84Z"/><path id="Leg_Right" data-name="Leg Right" class="cls-8" d="M788.41,913.5A25.19,25.19,0,0,0,799.63,922a26.1,26.1,0,0,0,19.49-.73l5.43-61.07c-1,1.68-5.06,7.73-12.68,9.69-8.44,2.17-17.88-1.56-23.72-9.48Q788.29,887,788.41,913.5Z"/></g><g id="Shoes"><path id="Foot_Left" data-name="Foot Left" class="cls-8" d="M891,945h64.77c1.73-1.8,3.94-4.58,3.19-6.91-1.65-5.17-15.74-1.63-27.11-8-4.35-2.43-9.67-7.06-13.79-16.86a2.88,2.88,0,0,0-5-.52,22.63,22.63,0,0,1-9.36,7.81,23.75,23.75,0,0,1-3.48,1.22,27.17,27.17,0,0,1-7.9.61c-6.8-.19-10.21-.27-10.95.47-1.22,1.22-.77,4.43.13,10.85.8,5.75,1.49,6.92,2.13,7.71A10.66,10.66,0,0,0,891,945Z"/><path id="Foot_Right" data-name="Foot Right" class="cls-8" d="M810.45,946H745.68c-1.73-1.8-3.94-4.58-3.19-6.91,1.69-5.29,16-.19,27.11-8,10.28-7.21,12.37-21.64,16-20.74.54.14.33.42,2.77,3.37a27.64,27.64,0,0,0,6.26,6.11,22.31,22.31,0,0,0,6.58,2.91,24.5,24.5,0,0,0,7.9.61c6.76-.53,8.14-3,10-1.83,2.09,1.3,1.67,5.27.85,13.15-.56,5.33-1.34,6.73-2.13,7.71A10.67,10.67,0,0,1,810.45,946Z"/></g><g id="Hands"><path id="Hand_Left" data-name="Hand Left" class="cls-8" d="M1021.59,177.63a6.23,6.23,0,0,1,11.7-2.66l9.57,14.34L1048.7,159a19.35,19.35,0,0,1,37.21,8q-10.1,33.21-20.2,66.44a25.53,25.53,0,0,1-12.75,1.07,26.38,26.38,0,0,1-15.42-9Z"/><path id="Hand_Right" data-name="Hand Right" class="cls-8" d="M712.83,171.56a6.23,6.23,0,0,0-10.29-6.16L689,176.05l3.85-30.6a19.35,19.35,0,0,0-37.84-4q-.74,34.72-1.46,69.44a25.7,25.7,0,0,0,11.8,5,26.32,26.32,0,0,0,17.46-3.8Z"/></g><g id="Torso_and_Arms" data-name="Torso and Arms"><path id="Arm_Left" data-name="Arm Left" class="cls-8" d="M945.75,283.24a1.85,1.85,0,0,1,3-1.25,120.39,120.39,0,0,0,52.61,25.34,201.47,201.47,0,0,0,36.15-81.86,26.38,26.38,0,0,0,15.42,9,25.53,25.53,0,0,0,12.75-1.07L1045,322.75a49.13,49.13,0,0,1-29.23,36.15,170.09,170.09,0,0,1-76.41-11.73Q942.55,315.21,945.75,283.24Z"/><path id="Arm_Right" data-name="Arm Right" class="cls-8" d="M754.09,285c-11.35,3.67-23.52,7.18-36.45,10.38q-13.39,3.3-25.93,5.73a201.55,201.55,0,0,1-8.91-89.05,26.32,26.32,0,0,1-17.46,3.8,25.7,25.7,0,0,1-11.8-5q-4,45.66-8,91.32c-.42,4.8-2,14.3,2.82,23.86,5.91,11.77,17.75,16.85,28.53,21.3,19.87,8.2,37.36,8,46.78,7.79a138.55,138.55,0,0,0,45.68-8.87Z"/><path id="Capri" class="cls-8" d="M850.33,640.55c1.86,0,1.82,24.32,6.57,57.44,5.38,37.49,9.75,33.58,11.66,56.93,2.23,27.23-2.92,38.22-.53,81.33,1.1,19.86,2.77,27.78,8.5,30.83,12.78,6.79,36-15.77,38.28-18.07,5.72-44.62,10.48-91.82,13.82-141.4,4-59.74,5.56-116.4,5.32-169.57A278.89,278.89,0,0,1,767,540.16c0,52,1.43,106.87,4.78,164.26,3.16,53.89,7.73,105.34,13.29,154.16,1.73,1.55,17.83,15.67,30.82,10.27,6.89-2.87,10.91-10.39,14.37-26.75,7.48-35.4-1.07-48.73,1.06-83.46,1.39-22.63,5.07-17.73,11.47-61.63C847.83,662.65,848.36,640.54,850.33,640.55Z"/><path id="Torso" class="cls-8" d="M877.87,256.75c-3,11.34-11.91,20-22.69,21.91-13.46,2.44-27.72-5.9-32.87-20.23A243.76,243.76,0,0,0,754.09,285a376.23,376.23,0,0,1,14,55.12c1.93,11.08,7.09,39.55,4.27,111.26-.93,23.54-2.5,53.66-5.32,88.77A359.06,359.06,0,0,0,934,538q-1.17-22.37-1.49-46.6c0-3.2.11-6.34.37-9.37C934.15,454,930.15,427,935,398.76c.24-3.52.49-7,.75-10.51,2.92-38.28,7.53-73.81,13-106.26q-16.9-6.75-35.21-13.29T877.87,256.75Z"/><path id="Pocket_Left" data-name="Pocket Left" class="cls-8" d="M888.1,474.51c0,21,8.7,37.93,19.44,37.93"/><path id="Pocket_Right" data-name="Pocket Right" class="cls-8" d="M816.7,476c0,21-8.7,37.94-19.45,37.94"/><path id="Zip" class="cls-8" d="M845.3,278.94l6.78,273"/><line id="Zipper" class="cls-8" x1="845.53" y1="281.15" x2="854.15" y2="292.83"/></g></g><g id="Male_1" data-name="Male 1"><path id="Shoe_Left" data-name="Shoe Left" class="cls-9" d="M360.82,937.34c2.47,0,4.79-3.9,3.15-5.75-2.25-2.53-15.76-5.43-20.09-6-22.3-2.92-37.95-15.33-39.42-25.34a4.1,4.1,0,0,0-5.31-3.32,54.51,54.51,0,0,1-26.52,1.64,4.51,4.51,0,0,0-5.26,3.48c-1.43,6.54-2.23,18.05-3.78,28.91a4.77,4.77,0,0,0,4.71,5.45C294.94,936.51,334.14,937.24,360.82,937.34Z"/><path id="Shoe_Right" data-name="Shoe Right" class="cls-9" d="M16.57,936.87c-7,0,.62-7.33,1.75-8.52,3.81-4,12.05-6.05,17.17-7.27,18.24-4.34,19.6-5,21.5-7.06,5-5.36.59-14.41,7.25-13.69,4.27.45,6.54,1.09,15.1,1.58,11.74.68,18.85-5.24,20.68-.33,5.27,14.17,12.94,33.67-.93,34.37C89.22,936.44,30.33,936.82,16.57,936.87Z"/><path id="Trousers" class="cls-10" d="M180.3,587c4.95-.14,7,21,16.77,56,13.67,49.31,22.05,52.75,30.22,90.19,6.11,28-4.47,29.85,7.76,72.16,21.67,75,28.49,77.78,29.09,82.48,1.37,10.85,15.4,12.24,22,11.51,5-.56,19.49-4.35,19.84-9.22.86-12-3.54-27.8-9.82-79.08-5.25-42.87-2.7-69.88-3.18-80.54-2.77-60.38-8.91-75.13-10.55-119.8-1.23-33.34-9.52-101.38-9.87-101.7-.8-.75-25-9.37-48.6-10.93-27.22-1.79-26.29,4.18-54.84,9.73-16.23,3.16-25.76,7.16-46.28,7.77-18.48.56-23.91-3.24-31.91-2.15-12,1.63-13.19,112.81-13.19,112.81.12,29.23-1.36,57.35-2.07,67.48-.4,5.63-1,12.26-1.55,21.32,0,0-.53,9.57-1.37,18.37h0c-1.42,16.23-8.5,35.63-9,67-.53,34.22-1.3,49-3.49,64-1.15,7.92-5.57,30.45,2,33.83,8.22,3.69,11.23,4.35,17.1,3.58a75.9,75.9,0,0,0,21.06-5.86s13.1-38,17.51-48.43a188.27,188.27,0,0,0,9.75-29.31c1.09-4.43,3.87-9.21,4.8-16.72,2.34-19.11.35-46.35,5.49-71.21,1.05-5.06,6.93-24.35,14-49.16,5.46-19.12,6.55-19.63,11.88-37.86C175.35,604,175.89,587.16,180.3,587Z"/><path id="Pocket_Left-2" data-name="Pocket Left" class="cls-11" d="M249.84,517.24a36.93,36.93,0,0,0,3.71,23.3c7.73,14.41,22.53,17.94,24.83,18.45"/><path id="Pocket_Right-2" data-name="Pocket Right" class="cls-11" d="M106,526.36c.64,3.32,1.86,13.08-2.53,22.52C96.9,563,83.14,566.27,80.89,566.94"/><path id="Torso-2" data-name="Torso" class="cls-9" d="M212.26,206c-1.88,16.14-15.17,28.45-30.69,29.11-16.73.71-31.81-12.28-33.55-29.74L83.46,234.16q2.3,17.63,4.11,35.77a1192.09,1192.09,0,0,1-1,244.16c38.57,4.14,67-.77,86.09-6.21,11.33-3.23,18-6.16,30.38-8.2,28.54-4.69,53.4,2,70.26,8.54-12.45-69.26-17.43-150.14-4.11-238.29q2.73-18.09,6.25-35.29Z"/><path id="Shirt_Lining" data-name="Shirt Lining" class="cls-9" d="M212.26,206q-10.89,114.15-28.91,234.84-5.11,33.87-10.65,67"/><g id="Arms"><circle id="Button" class="cls-12" cx="198.58" cy="242" r="4"/><path class="cls-10" d="M71.75,245.56c1.66-5.87,6.2-10.34,11.71-11.4,7.22-1.38,15.08,3.32,17.72,11.4a135.74,135.74,0,0,1,16.18,50.74,134.93,134.93,0,0,1-1.62,40.4l107.91,6.65-6.32,27.53a244.05,244.05,0,0,1-141.74,8.91A13.79,13.79,0,0,1,65,366c.42-13.52,0-24.74-.51-33.05-1.83-29-6.6-46.29.32-69.94A98.84,98.84,0,0,1,71.75,245.56Z"/><path class="cls-10" d="M259.73,244.29c4.54-8.29,13.93-11.59,20.89-8.54,5,2.17,7.14,7.7,8.86,13,8.9,27.26,10.33,44.82,10.33,44.82a272.08,272.08,0,0,1-.84,54.24c-2.63,22.12-4,33.18-9.51,38.21-11.14,10.06-31.37,5.31-74-9.73-25.18-8.88-59.39-21.77-99.69-39.56.87-.84,3.63-14.05,3.16-15.19,7.35.29,19,.69,33.35,1,26.11.5,34.19,0,48.58.8a370.48,370.48,0,0,1,46.88,5.51c-2.8-19.29-2.84-35.38-1-46.52A124.67,124.67,0,0,1,259.73,244.29Z"/></g><g id="Face-2" data-name="Face"><path id="Face_Outline-2" data-name="Face Outline" class="cls-9" d="M180.3,199a45.52,45.52,0,0,1-36.08-23.42A148.86,148.86,0,0,1,143,97.77c7-18,25-28.87,43-26.59a38.83,38.83,0,0,1,14.56,4.94,38.39,38.39,0,0,1,11.63,10.1,39.71,39.71,0,0,1,7.35,14.08,195.11,195.11,0,0,1,2.53,28.48A197.19,197.19,0,0,1,217,176.25a41.3,41.3,0,0,1-13.93,15.82A41.72,41.72,0,0,1,180.3,199Z"/><path id="Ear_Left-2" data-name="Ear Left" class="cls-9" d="M220.77,154.59a10.76,10.76,0,0,0,1.32-20.91"/><path id="Ear_Right-2" data-name="Ear Right" class="cls-9" d="M139.12,155.06a10.75,10.75,0,0,1-1.31-20.91"/><path id="Smile-2" data-name="Smile" class="cls-9" d="M195.73,171.15a23.29,23.29,0,0,1-27.54.48"/><path id="Hairline-2" data-name="Hairline" class="cls-9" d="M139.27,150.56a32.4,32.4,0,0,0,8.51-8.33,33.81,33.81,0,0,0,5.94-18.42,1.14,1.14,0,0,1,1.86-1,21.35,21.35,0,0,0,31.69-12.33c.47-1.41,1.45-1.46,2.12-.13a17,17,0,0,0,8,8,16.62,16.62,0,0,0,7.65,1.48,2.89,2.89,0,0,1,2.91,2.39,57.55,57.55,0,0,0,12.82,28.17"/><path id="Neck_Left-2" data-name="Neck Left" class="cls-9" d="M212.25,183.65q-.13,12.61-.26,25.22"/><path id="Neck_Right-2" data-name="Neck Right" class="cls-9" d="M150.41,184.25q.1,11.87.22,23.73"/></g></g><g id="Female"><path id="Shoe_Right-2" data-name="Shoe Right" class="cls-13" d="M460.58,856.18a30.73,30.73,0,0,0,18,6.06,30.41,30.41,0,0,0,16.18-4.59,41.42,41.42,0,0,1,4.83,14.87c.09.79.58,16.48-2.88,16.48H475.58c-2.46,0-1.66-4.81-1.54-7.23.14-2.84-12.67,7.23-21,7.23H393.33c-1.79,0-4.51-4-4-6.93.22-1.32,1.51-4.73,19.22-9a173.58,173.58,0,0,1,18.33-3.3C435,868.66,446.62,865.47,460.58,856.18Z"/><path id="Shoe_Left-2" data-name="Shoe Left" class="cls-13" d="M638.8,853.42c-1.46-1.16-10.32,7.24-16.4,7.19s-15.87-3.89-16.57-2.6a36.06,36.06,0,0,0-4.46,16.75c-.09,5.91,1.39,14.17,5.21,14.24,13.39.26,11.75.14,18,0,2.93-.07.78-7.38,4-8,4-.77,17.94,6.44,21,7,6.14,1.11,23.38,1.34,54.17,1,0,0,8.28-1.31,8.12-8-.1-4-13.53-7.79-21.07-9.35-12.56-2.59-18.62-2.7-28.18-5.6A85.06,85.06,0,0,1,638.8,853.42Z"/><path id="Torso-3" data-name="Torso" class="cls-14" d="M462.52,207.06c-.1-3.26-30.13-8.54-30.25-2.75-.34,16.15-5.48,35.62-5.81,58.1-.53,34.79-11.68,62.29-15.66,71.88-5.37,12.91-12.19,25.66-17.19,34.91-14.9,27.56-20.72,32.41-21.53,37.89a7.18,7.18,0,0,0,0,2.84c1,4.21,7.65,11.65,99.76,18.27,8.23.59,36.68,13.66,37.53,13.44,6.4-1.65-1.79-84.77,3.33-102.86a84.52,84.52,0,0,1,3.53-9.8c3.57-7.63,5.66-10.22,16.18-34.54,7.34-17,12.16-19,8.2-24.84a107.64,107.64,0,0,1-5.9-9.3c-4.52-7.88-5.73-10.37-8.82-14.94-5.82-8.62-6.63-21.34-2.76-30.52a49.9,49.9,0,0,1,9-14.83c2.1-2.51-13.17,1.87-20.82,4.85-3,1.16-18.95,14.28-26.25,22.72-11.46,13.26-19.47,21.28-22.11,19.89C462,247,462.75,215.07,462.52,207.06Z"/><path id="Jeans" class="cls-15" d="M461,567.89c43.18,68.29,57.91,98,62,111.55.71,2.32,5,17,12.61,36.72,0,0,2.77,7.19,5.7,14.17,14.91,35.57,26.8,46.09,40.37,77.76,11,25.72,15.19,46.73,25.74,47.3,3.86.21,6.48-2.4,15.9-3.56a61.07,61.07,0,0,1,16.71.27c-.69-8.75-10.79-46.91-11.36-48.73-4.74-15.09-21.77-62.36-29.75-91.52-18.54-67.74-37.27-104.21-43.64-155.53-4-32.57-5.31-71.7-34.89-104.77a106.54,106.54,0,0,0-12.86-12.35c-18.89-15.08-78.62-17-130.08-28.12a3.61,3.61,0,0,0-4.36,3.17C367,474.9,371.14,523.07,376,555.58c6.5,43.92,15.72,69.31,48,178.61,14.27,48.25,27.65,93.8,34.86,119a5.08,5.08,0,0,0,1.73,2.95c3.53,2.59,8.7-.28,16.53-.56,9.59-.34,13.25,4.09,17.65,2,3.45-1.6,3.53-7.51,2.91-30.79-.73-27.06-1.19-31.89-1.53-35a282.69,282.69,0,0,0-4.4-28.1h0c-4.46-33.42-11.54-49.53-18.95-84.68A560.59,560.59,0,0,1,461,567.89Z"/><path id="Jeans_Zip" data-name="Jeans Zip" class="cls-15" d="M435.48,462.38c.34,12.73-.78,20.21,1.51,35.3,4.17,27.56,16.7,51.17,24,70.21"/><path id="Arm_Right-2" data-name="Arm Right" class="cls-16" d="M391.24,373.91c-3.41,5.69-3.35,5.76-6.49,8.4-3.39,2.85-28.28-71.17-29.92-76a64.42,64.42,0,0,0-3.14-7.54,5,5,0,0,1,.68-5.5c4.29-5,13.22-17,18.18-24.16s62-65.46,62-65.46v0c1.38,10.2-2.41,24.3-2.67,26.3-.82,6.44-2.9,10.85-3.8,40-7.88,7.63-14.79,13.57-19.3,17.54-12.21,10.74-16.88,13.85-17.82,20.28-.46,3.17,1.57,7.59,4.94,16.58,4,10.76,6.87,18.8,9.17,26.2,0,.12-3.51,8.56-5.75,12.94C394.84,368.35,394.58,368.34,391.24,373.91Z"/><path id="Neckline" class="cls-16" d="M506.29,180.86l1.62,25"/><path id="Arm_Left-2" data-name="Arm Left" class="cls-17" d="M521,226.38c.2-14.13,9.17-24.71,9.3-24.8l.21-.16.23-.15c.16-.11,13.5-1.55,25.07,5.17,14.5,8.42,21.37,26.82,30.72,48.18,22.71,51.89,34.32,62.45,27.41,75.65-1.76,3.34-9.33,9.17-24.49,20.83-12.25,9.42-13.36,9.37-24.48,17.9,0,0-13.32,11-32.57,29.72-6.8,6.6-11.18,11.79-11.8,18.65q-.52,5.69-1,11.38c-.13,1.36-2.69,1.21-4,.88-7.88-2-4.36-29.69-11.27-31.39-4-1-8.28,7.58-10.23,6.58-2.2-1.14-.36-13.89,6.81-24.95,3-4.57,6.84-5.84,16.14-12.13,2.09-1.41,7.89-6,19.51-15,22.57-17.58,33.85-26.45,34.64-29.39,2-7.52-2.44-12.15-26.67-47.87C528.46,251.74,520.84,239.66,521,226.38Z"/><path id="Arm_Left_Cover" data-name="Arm Left Cover" class="cls-15" d="M541.17,270.25c.31-.61,2,3.08,1.38,2.2-16.09-23.71-21.71-32.79-21.51-46.07.2-14.13,10.17-26.71,10.3-26.8s2.49-1.83-1.8,3.61"/><path id="Face_Outline-3" data-name="Face Outline" class="cls-16" d="M515,169.77c-6,12.3-18.82,19.62-31.88,18.41-17.62-1.64-25.61-17.88-26-18.63-1.74-4.13-3.49-8.72-5.14-13.75A103.38,103.38,0,0,1,448,140c-1.86-11-2.86-22-4.86-33,5,2,10,1,15,1,22-3,44-17,64-5,5,3,1,15,1.53,23-.45,4.8-.95,9.46-1.67,14.31A178.74,178.74,0,0,1,515,169.77Z"/><path id="Ear" class="cls-16" d="M524.14,119.78c5,.14,6.6,2,7.12,2.72,2.85,4-.61,13.05-10,21.58"/><path id="Smile-3" data-name="Smile" class="cls-16" d="M475.92,160.5a18.49,18.49,0,0,0,12.79,4.93,18.19,18.19,0,0,0,11.51-4.57"/><path id="Hair" class="cls-17" d="M344.18,195.94a50,50,0,0,0,52.63-24.66c3.93-6.56,5.65-12.55,8.49-28.78,4.3-24.57,3.69-29.91,5.76-39.67,2.37-11.22,8-26.82,22.57-44.34a72,72,0,0,1,30.6-18.22,68.93,68.93,0,0,1,41.66,1.09c6.74,2.4,18.15,6.46,26.31,18.09a46,46,0,0,1,7.95,21.93A32.75,32.75,0,0,1,533,107.76a14.81,14.81,0,0,1-4.59,3.51C516.15,117,504.15,106,496.15,98c2,20-11,40-30.22,46.48a91.1,91.1,0,0,1-11.51,3.31,2.52,2.52,0,0,0-1.94,2.68c.47,5.2.89,12.05,5.36,18.89a50.8,50.8,0,0,0,8.12,9.47c6.18,5.66,14.45,8.66,18.51,10.23h0a74,74,0,0,1-10.66,25.25,70.8,70.8,0,0,1-31.7,26.58c-22.3,9.23-45.47,4.24-61.39-4-7.5-3.89-12.2-8.5-16.69-13A103.35,103.35,0,0,1,344.18,195.94Z"/><path id="Hand_Left_Cuff" data-name="Hand Left Cuff" class="cls-18" d="M507.33,375.83a.26.26,0,0,1,.31-.4A34.65,34.65,0,0,1,527.23,401a.26.26,0,0,1-.47.19Z"/><g id="Tickets"><g id="T2"><path class="cls-19" d="M490.39,489.11c4.1-9.71,4.1-9.71,7-15,1.73-3.14,3.5-6,5.26-8.65L516,471.58a4.7,4.7,0,0,1,2.29,6.22l-10.5,22.78c-3.08-1.71-6.32-3.67-9.67-5.91C495.33,492.81,492.76,490.94,490.39,489.11Z"/><path class="cls-19" d="M491.34,478.87c0,.09,9.68,4.67,21.74,10.23"/><use transform="translate(499.47 468) rotate(24.75) scale(0.01)" xlink:href="#image"/></g><g id="T1"><path class="cls-20" d="M479.08,475.74V465.19a4.7,4.7,0,0,1,4.69-4.69H498.4a4.7,4.7,0,0,1,4.68,4.69v31.58c.07.16.13.38,0,.49-.67.83-8.06-3.58-13-7.81A48.25,48.25,0,0,1,479.08,475.74Z"/><path class="cls-19" d="M480.77,477.18l22.65.12"/><use transform="translate(481.58 463) scale(0.01)" xlink:href="#image"/></g></g><path id="Pocket" class="cls-21" d="M474.68,455.59c.19,3.26,1.72,23.79,19.19,37.27A50,50,0,0,0,522.74,503"/></g></g></g></g></svg>